<svg width="628" height="502" viewBox="0 0 628 502" fill="none" xmlns="http://www.w3.org/2000/svg">
<path opacity="0.36" d="M569.043 493.766C573.247 493.767 577.282 492.113 580.274 489.164C583.267 486.215 584.976 482.207 585.032 478.009C585.698 434.549 589.202 370.438 507.261 352.698C440.944 338.357 480.257 220.624 301.666 228.24C173.466 233.697 207.466 341.632 107.84 350.627C41.5108 356.612 40.933 440.408 43.4827 478.799C43.7504 482.846 45.5487 486.641 48.5129 489.413C51.4772 492.185 55.3857 493.728 59.4465 493.729L569.043 493.766Z" fill="url(#paint0_linear)"/>
<path d="M226.093 0H223.279V205.506H226.093V0Z" fill="#7B2C86"/>
<path d="M428.271 0H425.458V237.072H428.271V0Z" fill="#7B2C86"/>
<path d="M428.007 223.322L218.331 198.806C216.199 198.556 214.04 198.728 211.975 199.312C209.91 199.897 207.981 200.882 206.298 202.211C204.615 203.541 203.21 205.189 202.165 207.061C201.12 208.933 200.454 210.992 200.207 213.122L184.557 347.064C184.308 349.192 184.482 351.348 185.067 353.409C185.653 355.47 186.64 357.396 187.97 359.076C189.301 360.756 190.95 362.157 192.824 363.201C194.697 364.244 196.757 364.908 198.888 365.156L408.64 389.608C410.77 389.857 412.929 389.683 414.992 389.098C417.055 388.513 418.983 387.528 420.664 386.199C422.346 384.869 423.75 383.222 424.794 381.351C425.838 379.48 426.503 377.421 426.751 375.293L442.401 241.35C442.885 237.053 441.64 232.74 438.941 229.359C436.242 225.978 432.309 223.807 428.007 223.322Z" fill="#FDF1FF"/>
<path d="M440.856 254.612L442.401 241.35C442.885 237.053 441.64 232.74 438.941 229.359C436.242 225.978 432.309 223.807 428.007 223.322L218.331 198.806C216.199 198.556 214.04 198.728 211.975 199.312C209.91 199.897 207.981 200.882 206.298 202.211C204.615 203.541 203.21 205.189 202.165 207.061C201.12 208.933 200.454 210.992 200.206 213.122L198.662 226.383L440.856 254.612Z" fill="#8F489A"/>
<path d="M232.586 307.481L259.163 260.697C259.996 259.231 261.244 258.043 262.75 257.282C264.256 256.521 265.953 256.221 267.628 256.418C269.89 256.683 271.953 257.833 273.366 259.616C274.779 261.399 275.426 263.669 275.164 265.928L269.625 313.252H269.864C270.647 313.344 271.403 313.59 272.09 313.976C272.776 314.362 273.379 314.881 273.863 315.502C274.347 316.123 274.702 316.834 274.909 317.594C275.115 318.354 275.168 319.147 275.064 319.927C274.878 321.493 274.079 322.922 272.84 323.9C271.602 324.878 270.026 325.327 268.457 325.146H268.231L267.214 333.765C267.119 334.603 266.859 335.414 266.449 336.151C266.039 336.889 265.488 337.538 264.826 338.061C264.164 338.585 263.405 338.972 262.593 339.202C261.78 339.431 260.931 339.498 260.092 339.399C259.254 339.302 258.443 339.041 257.706 338.632C256.969 338.222 256.32 337.671 255.796 337.01C255.272 336.349 254.884 335.592 254.654 334.781C254.423 333.97 254.355 333.122 254.453 332.285L255.458 323.666L236.329 321.433C235.552 321.342 234.8 321.1 234.117 320.719C233.434 320.339 232.833 319.827 232.347 319.215C231.862 318.602 231.503 317.899 231.289 317.147C231.076 316.396 231.013 315.609 231.104 314.833L231.606 310.492C231.713 309.43 232.047 308.403 232.586 307.481ZM256.952 310.982L260.381 281.636C260.389 281.614 260.392 281.59 260.39 281.567C260.388 281.544 260.382 281.521 260.372 281.5C260.361 281.479 260.347 281.46 260.329 281.445C260.311 281.429 260.291 281.418 260.268 281.41C260.246 281.403 260.222 281.4 260.199 281.402C260.176 281.403 260.153 281.41 260.132 281.42C260.111 281.43 260.092 281.445 260.077 281.463C260.061 281.48 260.05 281.501 260.042 281.523L244.33 309.2C244.267 309.313 244.233 309.439 244.231 309.568C244.228 309.697 244.257 309.824 244.316 309.94C244.374 310.055 244.459 310.154 244.565 310.228C244.67 310.303 244.792 310.35 244.92 310.367L256.086 311.621C256.284 311.644 256.484 311.59 256.645 311.472C256.806 311.353 256.916 311.178 256.952 310.982Z" fill="#8F489A"/>
<path d="M349.884 321.182L376.474 274.397C377.306 272.933 378.552 271.747 380.055 270.986C381.558 270.225 383.253 269.924 384.926 270.119C386.047 270.248 387.131 270.597 388.116 271.145C389.101 271.693 389.969 272.43 390.669 273.313C391.369 274.196 391.887 275.209 392.195 276.292C392.503 277.376 392.594 278.51 392.462 279.629L386.936 326.953H387.175C387.951 327.042 388.702 327.283 389.384 327.662C390.066 328.041 390.667 328.552 391.152 329.164C391.636 329.776 391.994 330.478 392.206 331.229C392.418 331.98 392.48 332.765 392.387 333.54C392.298 334.315 392.057 335.066 391.677 335.748C391.298 336.43 390.787 337.031 390.174 337.516C389.562 338.001 388.86 338.36 388.108 338.573C387.356 338.787 386.569 338.85 385.793 338.759H385.554L384.55 347.378C384.351 349.067 383.49 350.607 382.154 351.662C380.819 352.716 379.119 353.197 377.428 352.999C376.589 352.904 375.778 352.644 375.04 352.235C374.302 351.825 373.652 351.274 373.128 350.613C372.604 349.952 372.216 349.194 371.986 348.383C371.756 347.571 371.689 346.722 371.789 345.885L372.794 337.266L353.652 334.982C352.875 334.892 352.124 334.65 351.44 334.269C350.757 333.889 350.156 333.377 349.671 332.764C349.185 332.151 348.826 331.449 348.612 330.697C348.399 329.946 348.336 329.159 348.427 328.383L348.942 324.042C349.063 323.036 349.383 322.063 349.884 321.182ZM374.288 324.657L377.717 295.311C377.722 295.268 377.712 295.225 377.688 295.188C377.664 295.152 377.629 295.124 377.588 295.111C377.546 295.098 377.501 295.099 377.461 295.115C377.42 295.131 377.387 295.161 377.365 295.199L361.665 322.875C361.603 322.988 361.569 323.114 361.566 323.243C361.564 323.372 361.593 323.5 361.651 323.615C361.71 323.73 361.795 323.829 361.9 323.903C362.006 323.978 362.128 324.026 362.256 324.042L373.422 325.297C373.62 325.319 373.82 325.266 373.981 325.147C374.142 325.028 374.251 324.853 374.288 324.657Z" fill="#8F489A"/>
<path d="M297.157 279.955C298.702 266.744 306.552 259.994 319.313 261.487C332.074 262.98 338.153 271.336 336.633 284.559L331.609 327.53C330.064 340.754 322.202 347.491 309.441 346.01C296.68 344.53 290.601 336.149 292.133 322.926L297.157 279.955ZM305.032 325.272C304.342 331.181 306.69 333.715 310.822 334.205C314.955 334.694 317.818 332.749 318.509 326.84L323.722 282.289C324.412 276.379 322.076 273.832 317.944 273.356C313.812 272.879 310.936 274.811 310.257 280.708L305.032 325.272Z" fill="#8F489A"/>
<path d="M223.379 217.312C223.281 218.176 222.929 218.991 222.367 219.654C221.805 220.318 221.058 220.8 220.222 221.039C219.385 221.279 218.496 221.265 217.668 220.999C216.839 220.733 216.108 220.228 215.567 219.547C215.026 218.866 214.7 218.04 214.63 217.174C214.559 216.307 214.748 215.439 215.171 214.68C215.595 213.921 216.235 213.304 217.009 212.908C217.784 212.513 218.659 212.355 219.523 212.457C220.678 212.592 221.733 213.179 222.455 214.089C223.178 214.999 223.51 216.158 223.379 217.312Z" fill="white"/>
<path d="M244.405 219.771C244.302 220.63 243.947 221.44 243.384 222.098C242.82 222.756 242.075 223.232 241.241 223.467C240.406 223.701 239.521 223.684 238.697 223.416C237.873 223.149 237.147 222.643 236.611 221.964C236.074 221.284 235.751 220.461 235.683 219.598C235.614 218.735 235.803 217.871 236.226 217.116C236.649 216.36 237.286 215.747 238.058 215.353C238.83 214.959 239.701 214.803 240.562 214.903C241.134 214.97 241.688 215.149 242.191 215.43C242.694 215.711 243.137 216.088 243.494 216.541C243.851 216.993 244.115 217.511 244.272 218.065C244.428 218.62 244.473 219.199 244.405 219.771Z" fill="white"/>
<path d="M266.272 222.305C266.172 223.166 265.818 223.977 265.256 224.637C264.694 225.296 263.949 225.775 263.115 226.011C262.281 226.248 261.395 226.232 260.57 225.965C259.745 225.699 259.017 225.194 258.48 224.515C257.942 223.835 257.618 223.012 257.549 222.148C257.479 221.285 257.668 220.42 258.091 219.664C258.514 218.908 259.151 218.294 259.924 217.9C260.696 217.506 261.568 217.349 262.429 217.45C263.583 217.585 264.636 218.173 265.357 219.083C266.077 219.993 266.407 221.152 266.272 222.305Z" fill="white"/>
<path d="M179.684 448.013C179.973 427.723 180.208 405.971 179.995 400.208C179.828 391.855 180.592 383.51 182.272 375.326L207.911 372.633L207.716 374.014C207.535 375.299 207.276 377.14 206.963 379.365C206.337 383.813 205.497 389.793 204.642 395.919C202.934 408.163 201.161 421.011 200.915 423.356C200.796 424.489 199.891 429.023 198.587 435.238C197.286 441.434 195.599 449.258 193.926 456.938C192.253 464.617 190.596 472.15 189.357 477.764C188.737 480.571 188.222 482.898 187.862 484.523C187.682 485.335 187.54 485.973 187.444 486.407L187.383 486.68H179.062L179.068 486.338C179.078 485.783 179.092 484.966 179.111 483.923C179.147 481.837 179.199 478.843 179.26 475.215C179.382 467.96 179.539 458.166 179.684 448.013Z" fill="#7B2C86" stroke="black"/>
<path d="M188.573 371.942L216.219 372.571L216.228 372.657L216.377 374.146C216.506 375.432 216.691 377.274 216.915 379.499C217.363 383.948 217.967 389.93 218.591 396.058C219.839 408.304 221.168 421.156 221.49 423.501C221.646 424.637 221.871 429.172 222.121 435.386C222.37 441.582 222.642 449.406 222.894 457.085C223.146 464.765 223.378 472.298 223.547 477.912C223.631 480.719 223.7 483.046 223.748 484.671C223.772 485.483 223.79 486.12 223.803 486.554L223.807 486.705H215.487L215.377 486.228C215.246 485.663 215.054 484.834 214.808 483.774C214.316 481.654 213.609 478.613 212.749 474.928C211.03 467.559 208.7 457.612 206.257 447.307C201.374 426.711 196.031 404.642 194.215 398.88C192.416 393.171 190.985 386.295 190.004 380.836C189.513 378.109 189.136 375.74 188.881 374.053C188.753 373.209 188.656 372.536 188.591 372.075C188.585 372.028 188.579 371.984 188.573 371.942Z" fill="#8F489A" stroke="black"/>
<path d="M216.344 493.116V493.616H233.428C233.645 493.617 233.856 493.547 234.03 493.418M216.344 493.116H233.428H233.43C233.539 493.116 233.645 493.082 233.732 493.017L234.03 493.418M216.344 493.116V487.68H223.446M216.344 493.116H215.844V487.68H223.446M234.03 493.418L233.732 493.017C233.82 492.952 233.884 492.861 233.915 492.757L234.394 492.9M234.03 493.418C234.204 493.289 234.332 493.108 234.394 492.9M234.394 492.9L233.915 492.757C233.946 492.653 233.943 492.541 233.905 492.439C233.868 492.337 233.799 492.25 233.707 492.191L233.699 492.185L233.699 492.185C231.209 490.494 227.136 488.2 223.446 487.68M234.394 492.9C234.456 492.693 234.449 492.471 234.375 492.267C234.3 492.064 234.162 491.89 233.98 491.772C231.468 490.065 227.298 487.707 223.48 487.18L223.446 487.68" fill="#2F2F39" stroke="black"/>
<path d="M196.607 493.116H179.53V487.682L186.644 487.717C190.338 488.236 194.341 490.521 196.902 492.217C196.981 492.279 197.04 492.364 197.07 492.459C197.102 492.559 197.102 492.666 197.07 492.766C197.039 492.865 196.976 492.953 196.893 493.016L197.192 493.416L196.893 493.016C196.81 493.077 196.71 493.112 196.607 493.116Z" fill="#2F2F39" stroke="black"/>
<path d="M210.719 296.416C210.719 296.416 216.773 287.244 209.827 286.379C204.502 285.689 202.291 287.269 202.291 287.269C202.291 287.269 196.15 286.604 192.796 289.503C190.498 291.497 182.057 306.942 195.71 312.525C209.363 318.108 206.449 303.742 206.449 303.742L210.719 296.416Z" fill="#8F489A"/>
<path d="M209.795 286.601L209.805 286.603L209.814 286.603C210.309 286.63 210.792 286.76 211.233 286.986C211.466 287.106 211.684 287.251 211.884 287.419C210.482 287.257 208.488 287.144 206.55 287.532C204.312 287.981 202.114 289.107 201.02 291.624C201.016 291.623 201.011 291.621 201.006 291.62C200.853 291.572 200.633 291.508 200.363 291.447C199.824 291.323 199.078 291.206 198.261 291.232C196.62 291.284 194.67 291.92 193.55 294.25C192.993 295.409 192.679 297.26 192.714 299.309C192.748 301.364 193.133 303.649 193.999 305.683C194.866 307.718 196.222 309.516 198.207 310.569C200.087 311.566 202.502 311.877 205.538 311.123C204.982 312.161 204.115 312.989 202.776 313.351C201.222 313.772 198.99 313.576 195.805 312.268L195.805 312.268C192.441 310.893 190.459 308.92 189.397 306.719C188.332 304.513 188.178 302.05 188.519 299.678C188.86 297.307 189.693 295.041 190.586 293.242C191.483 291.435 192.423 290.132 192.96 289.666C194.578 288.268 196.888 287.717 198.826 287.523C199.791 287.426 200.652 287.419 201.273 287.435C201.583 287.444 201.832 287.458 202.003 287.471C202.089 287.477 202.155 287.482 202.199 287.486L202.249 287.491L202.261 287.492L202.264 287.493L202.264 287.493L202.265 287.493L202.265 287.493L202.359 287.503L202.436 287.448L202.436 287.448L202.436 287.448L202.437 287.448L202.437 287.448L202.439 287.446L202.454 287.436C202.469 287.427 202.492 287.412 202.524 287.393C202.588 287.355 202.689 287.299 202.827 287.234C203.103 287.103 203.531 286.933 204.124 286.782C205.31 286.482 207.162 286.26 209.795 286.601Z" fill="#7B2C86" stroke="black" stroke-width="0.5"/>
<path d="M201.862 301.235L201.862 301.235L201.862 301.236L202.039 301.413L202.289 301.377C205.388 300.92 208.263 299.517 210.524 297.369C211.423 300.033 211.93 302.816 212.028 305.629L212.028 305.632C212.126 308.092 210.691 309.968 209.146 311.263C208.379 311.907 207.603 312.391 207.017 312.715C206.725 312.876 206.482 312.997 206.313 313.076C206.229 313.116 206.163 313.146 206.119 313.165C206.097 313.174 206.081 313.182 206.071 313.186L206.059 313.191L206.057 313.192L206.057 313.192L206.057 313.192L206.057 313.192L205.748 313.319V313.654V316.704H196.235V313C198.426 312.898 199.711 311.423 200.426 310.02C200.811 309.263 201.046 308.505 201.184 307.939C201.253 307.656 201.299 307.418 201.327 307.25C201.342 307.165 201.352 307.098 201.358 307.051C201.362 307.028 201.364 307.009 201.366 306.996L201.368 306.981L201.368 306.976L201.369 306.975L201.369 306.974C201.369 306.974 201.369 306.974 200.872 306.917L201.369 306.974L201.426 306.47L200.922 306.419C200.12 306.338 199.437 305.546 199.121 304.359C198.809 303.188 198.941 301.913 199.489 301.182C199.765 300.812 200.033 300.665 200.259 300.612C200.493 300.556 200.739 300.589 200.984 300.679C201.231 300.769 201.453 300.908 201.617 301.031C201.699 301.091 201.762 301.145 201.805 301.183C201.826 301.201 201.842 301.216 201.851 301.225L201.861 301.234L201.862 301.235Z" fill="white" stroke="black"/>
<path opacity="0.16" d="M203.824 315.122C204.866 315.561 204.69 316.213 204.741 317.204H206.248V313.654C206.248 313.654 203.736 314.469 199.968 312.399C201.117 313.486 202.415 314.402 203.824 315.122Z" fill="black"/>
<path d="M205.041 292.248C205.281 292.33 205.482 292.403 205.629 292.457L203.82 295.812C202.756 295.876 201.692 295.696 200.709 295.286C200.703 295.279 200.698 295.27 200.695 295.261C200.69 295.244 200.689 295.227 200.694 295.21C200.698 295.193 200.708 295.178 200.721 295.166C200.734 295.155 200.75 295.147 200.768 295.145L200.768 295.145L200.773 295.144L202.029 294.944L202.679 294.84L202.124 294.486C201.398 294.023 200.799 293.58 200.432 293.134C200.072 292.697 199.962 292.296 200.125 291.877C200.226 291.621 200.538 291.457 201.125 291.432C201.692 291.408 202.406 291.52 203.121 291.687C203.832 291.854 204.525 292.072 205.041 292.248Z" fill="white" stroke="black" stroke-width="0.5"/>
<path d="M244.623 306.365L244.623 306.365L244.631 306.371C244.795 306.487 244.932 306.636 245.033 306.808C245.134 306.981 245.197 307.173 245.218 307.372C245.239 307.57 245.218 307.771 245.155 307.961L245.615 308.113L245.155 307.961C245.092 308.151 244.989 308.325 244.854 308.472L244.845 308.481L244.837 308.491C236.756 318.192 227.657 327 217.697 334.764L217.501 334.916L217.504 335.163L217.989 380.451C212.882 381.512 205.527 381.673 198.648 381.493C191.727 381.312 185.335 380.786 182.294 380.504C182.293 380.504 182.292 380.504 182.292 380.504L180.849 380.359L180.787 380.268L178.69 377.195L178.69 377.194L159.91 349.616C159.991 349.491 160.097 349.325 160.228 349.123C160.549 348.627 161.014 347.909 161.593 347.024C162.752 345.255 164.365 342.816 166.185 340.139C169.83 334.779 174.286 328.492 177.574 324.709L177.574 324.709L177.58 324.701C179.572 322.315 182.09 320.423 184.937 319.174C187.785 317.925 190.884 317.353 193.99 317.503L194.001 317.504L194.011 317.504L207.056 317.579C207.057 317.579 207.058 317.579 207.059 317.579C208.143 317.596 209.218 317.376 210.207 316.933L210.211 316.932C212.34 315.959 216.556 314.032 220.366 312.238C222.271 311.342 224.077 310.477 225.471 309.78C226.168 309.432 226.765 309.125 227.222 308.875C227.657 308.638 228.015 308.426 228.191 308.273C228.339 308.146 228.44 307.963 228.444 307.744C228.447 307.548 228.37 307.383 228.296 307.265C228.15 307.032 227.898 306.806 227.618 306.593C227.04 306.156 226.142 305.63 225.049 305.057C222.854 303.906 219.776 302.511 216.659 301.166C213.538 299.82 210.365 298.519 207.973 297.555C206.777 297.073 205.776 296.675 205.074 296.397C204.85 296.309 204.657 296.233 204.497 296.17L206.381 292.731C206.589 292.777 206.882 292.843 207.251 292.927C208.046 293.109 209.193 293.377 210.603 293.723C213.422 294.414 217.289 295.417 221.479 296.658C229.887 299.15 239.504 302.579 244.623 306.365ZM180.836 368.488L181.79 368.316L182.066 364.477L182.066 364.477L183.824 340.477L183.932 339.011L182.953 340.107L173.181 351.047L172.963 351.291L173.099 351.588L178.99 364.448L178.99 364.448L180.836 368.488Z" fill="#263238" stroke="black"/>
<path d="M179.063 377.731L180.073 366.656L181.119 368.881L180.318 379.519L179.063 377.731Z" fill="#263238" stroke="black"/>
<g style="mix-blend-mode:multiply">
<path d="M213.595 333.427C211.837 334.681 212.339 345.973 211.849 353.061C211.121 364.892 210.418 375.13 210.945 381.742C213.388 381.608 215.818 381.302 218.217 380.826L218.494 380.763L218.004 335.07C227.992 327.284 237.117 318.451 245.221 308.723C245.397 308.525 245.528 308.292 245.609 308.04C245.689 307.787 245.716 307.521 245.687 307.258C245.659 306.995 245.576 306.74 245.444 306.511C245.312 306.282 245.133 306.082 244.92 305.925C235.324 316.011 224.84 325.215 213.595 333.427Z" fill="#F98D2B" fill-opacity="0.3"/>
</g>
<path opacity="0.12" d="M221.986 423.42C221.521 420.045 218.971 394.802 217.577 381.002L210.945 381.742C210.945 381.742 220.617 461.197 221.257 487.192H224.322C224.322 487.192 222.626 428.087 221.986 423.42Z" fill="black"/>
<path d="M127.547 464.823C127.547 464.823 124.695 462.175 126.605 452.113C128.514 442.051 133.362 432.378 130.975 421.45C128.589 410.523 109.975 382.996 109.912 381.165C109.85 379.333 104.16 413.195 113.793 426.569C123.427 439.943 124.595 444.548 124.168 451.561C123.741 458.575 124.268 464.233 125.323 465.864L127.547 464.823Z" fill="#9FCD00"/>
<path d="M125.776 444.586C124.658 449.077 123.98 460.331 125.776 463.028C125.939 463.279 126.178 463.141 126.479 462.665C125.927 460.808 125.575 457.546 126.605 452.113C128.514 442.076 133.362 432.378 130.976 421.451C128.589 410.523 109.975 382.997 109.913 381.165C109.913 381.165 112.726 404.099 122.171 419.895C128.941 431.199 126.856 440.094 125.776 444.586Z" fill="#9FCD00"/>
<path d="M130.938 464.133C130.938 464.133 125.462 450.482 134.706 438.664C143.95 426.845 158.809 411.665 159.11 405.655C159.11 405.655 162.878 434.197 150.846 442.277C138.813 450.357 130.348 451.662 132.433 464.082L130.938 464.133Z" fill="#9FCD00"/>
<path d="M143.975 436.606C130.511 446.392 129.406 457.671 131.491 462.89C131.561 463.084 131.678 463.258 131.831 463.395C131.985 463.533 132.17 463.631 132.37 463.681C130.561 451.687 138.964 450.319 150.883 442.352C162.803 434.386 159.148 405.73 159.148 405.73C159.148 405.73 157.427 426.745 143.975 436.606Z" fill="#9FCD00"/>
<path d="M121.933 464.434C123.005 459.491 123.285 454.409 122.762 449.378C121.832 441.625 113.668 437.208 106.044 428.966C102.113 424.725 100.957 402.305 103.382 400.222C103.382 400.222 89.9298 416.532 92.0022 428.451C94.0746 440.37 116.042 448.136 118.064 453.895C119.275 457.304 119.903 460.892 119.923 464.509L121.933 464.434Z" fill="#9FCD00"/>
<path d="M98.8346 406.633C94.3883 418.665 98.9476 433.244 113.731 442.302C124.608 448.964 121.141 462.828 121.141 462.828L122.925 457.358C123.111 454.707 123.056 452.044 122.761 449.403C121.832 441.625 113.668 437.208 106.044 428.966C102.276 424.876 101.02 403.873 103.143 400.523C101.604 402.486 100.166 404.525 98.8346 406.633Z" fill="#9FCD00"/>
<path d="M103.143 400.524L103.382 400.222C103.29 400.313 103.21 400.414 103.143 400.524Z" fill="#49B4D6"/>
<path d="M133.751 463.53C133.751 463.53 136.904 451.837 144.716 450.269C152.529 448.701 161.484 437.171 161.961 434.912C162.024 434.912 160.642 456.68 133.751 463.53Z" fill="#9FCD00"/>
<path d="M144.264 454.171C139.491 456.555 137.494 459.766 136.728 462.69C160.667 454.999 161.848 434.95 161.848 434.95C161.551 435.772 161.127 436.543 160.592 437.234C158.394 441.311 152.717 449.918 144.264 454.171Z" fill="#9FCD00"/>
<path d="M150.645 459.189H109.825L114.673 489.676C114.85 490.797 115.421 491.817 116.285 492.553C117.149 493.29 118.247 493.693 119.383 493.691H141.087C142.222 493.693 143.321 493.29 144.184 492.553C145.048 491.817 145.62 490.797 145.797 489.676L150.645 459.189Z" fill="#8F489A"/>
<path d="M432.139 404.927H247.683V442.39H432.139V404.927Z" fill="#8F489A"/>
<path d="M263.722 404.927H280.565L276.044 414.023H259.201L263.722 404.927Z" fill="#F77E2D"/>
<path d="M301.654 404.927H318.484L313.975 414.023H297.145L301.654 404.927Z" fill="#F77E2D"/>
<path d="M339.585 404.927H356.415L351.906 414.023H335.076L339.585 404.927Z" fill="#F77E2D"/>
<path d="M377.516 404.927H394.346L389.825 414.023H373.007L377.516 404.927Z" fill="#F77E2D"/>
<path d="M432.139 404.927V405.178L427.756 414.023H410.938L415.447 404.927H432.139Z" fill="#F77E2D"/>
<path d="M283.642 442.39H270.643V493.616H283.642V442.39Z" fill="#7B2C86"/>
<path d="M410.197 442.39H397.197V493.616H410.197V442.39Z" fill="#7B2C86"/>
<path d="M283.642 399.068H270.643V404.89H283.642V399.068Z" fill="#7B2C86"/>
<path d="M410.197 399.068H397.197V404.89H410.197V399.068Z" fill="#7B2C86"/>
<path d="M280.565 404.927L261.951 442.39H247.683V437.221L263.722 404.927H280.565Z" fill="#FDF1FF"/>
<path d="M301.654 404.927L283.052 442.39H299.883L318.484 404.927H301.654Z" fill="#FDF1FF"/>
<path d="M356.415 404.927L337.814 442.39H320.983L339.585 404.927H356.415Z" fill="#FDF1FF"/>
<path d="M394.346 404.927L375.745 442.39H358.915L377.516 404.927H394.346Z" fill="#FDF1FF"/>
<path d="M415.447 404.927L396.846 442.39H413.676L432.139 405.178L415.447 404.927Z" fill="#FDF1FF"/>
<path d="M278.651 402.392C284.971 401.365 289.26 395.415 288.232 389.102C287.204 382.79 281.248 378.505 274.928 379.532C268.609 380.559 264.319 386.509 265.347 392.821C266.375 399.134 272.332 403.418 278.651 402.392Z" fill="#8F489A"/>
<path d="M282.06 390.938C282.057 389.902 281.747 388.889 281.169 388.028C280.59 387.167 279.77 386.497 278.81 386.102C277.851 385.707 276.795 385.605 275.778 385.809C274.76 386.013 273.826 386.513 273.093 387.247C272.36 387.981 271.861 388.915 271.66 389.932C271.458 390.949 271.563 392.003 271.96 392.961C272.358 393.918 273.031 394.736 273.894 395.312C274.757 395.888 275.772 396.195 276.81 396.195C277.5 396.195 278.184 396.059 278.822 395.795C279.459 395.53 280.039 395.143 280.526 394.655C281.014 394.166 281.401 393.587 281.664 392.949C281.927 392.311 282.061 391.628 282.06 390.938Z" fill="#FDF1FF"/>
<path d="M405.457 402.403C411.776 401.376 416.066 395.426 415.038 389.113C414.01 382.801 408.053 378.516 401.734 379.543C395.414 380.57 391.125 386.52 392.153 392.832C393.181 399.145 399.137 403.43 405.457 402.403Z" fill="#8F489A"/>
<path d="M408.866 390.938C408.863 389.902 408.553 388.889 407.975 388.028C407.397 387.167 406.576 386.497 405.616 386.102C404.657 385.707 403.601 385.605 402.584 385.809C401.566 386.013 400.632 386.513 399.899 387.247C399.166 387.981 398.667 388.915 398.466 389.932C398.264 390.949 398.369 392.003 398.767 392.961C399.164 393.918 399.837 394.736 400.7 395.312C401.563 395.888 402.578 396.195 403.616 396.195C404.306 396.195 404.99 396.059 405.628 395.795C406.266 395.53 406.845 395.143 407.333 394.655C407.82 394.166 408.207 393.587 408.47 392.949C408.733 392.311 408.868 391.628 408.866 390.938Z" fill="#FDF1FF"/>
<path d="M502.036 489.639H443.28L452.273 467.884L455.878 459.101L456.883 456.705L458.503 452.778L458.83 451.988L462.447 443.206L463.113 441.612L469.518 426.08C469.773 425.457 470.207 424.923 470.767 424.548C471.326 424.173 471.984 423.972 472.658 423.972C473.332 423.972 473.991 424.173 474.55 424.548C475.109 424.923 475.544 425.457 475.798 426.08L482.204 441.612L482.869 443.206L486.474 451.988L486.813 452.778L488.434 456.705L489.426 459.101L493.043 467.884L502.036 489.639Z" fill="#FDF1FF"/>
<path d="M505.866 484.068H438.583V493.566H505.866V484.068Z" fill="#8F489A"/>
<path d="M486.474 451.975H458.829L462.446 443.193H482.869L486.474 451.975Z" fill="#8F489A"/>
<path d="M493.043 467.871V467.884H452.273V467.871L455.878 459.089H489.425L493.043 467.871Z" fill="#8F489A"/>
<path opacity="0.36" d="M127.559 276.279C129.689 276.301 131.754 275.55 133.371 274.165C134.988 272.781 136.047 270.857 136.351 268.751C136.463 267.962 136.517 267.165 136.514 266.367C136.514 261.709 134.662 257.241 131.364 253.947C128.067 250.653 123.594 248.803 118.93 248.803C118.541 248.803 118.139 248.803 117.75 248.803C117.32 244.04 115.071 239.625 111.469 236.475C107.867 233.324 103.19 231.68 98.4063 231.883C93.6231 232.087 89.102 234.122 85.7812 237.567C82.4604 241.012 80.5951 245.601 80.5722 250.384C80.5722 250.835 80.5722 251.287 80.5722 251.739C77.8383 250.219 74.7653 249.412 71.6368 249.392C68.5083 249.372 65.4251 250.139 62.6718 251.623C59.9184 253.107 57.5836 255.26 55.8828 257.883C54.182 260.506 53.17 263.514 52.9402 266.631C52.9402 266.706 52.9402 266.782 52.9402 266.857C52.8788 268.062 53.0638 269.267 53.4839 270.398C53.904 271.529 54.5504 272.563 55.3837 273.436C56.2169 274.31 57.2196 275.005 58.3306 275.478C59.4415 275.952 60.6374 276.194 61.8453 276.191L127.559 276.279Z" fill="url(#paint1_linear)"/>
<path opacity="0.36" d="M545.97 290.029C559.786 290.029 560.603 269.19 546.762 268.513H545.619C543.213 268.509 540.822 268.886 538.535 269.629C537.604 264.012 534.685 258.915 530.309 255.266C525.933 251.617 520.39 249.659 514.691 249.749C508.991 249.839 503.513 251.97 499.254 255.754C494.995 259.539 492.238 264.725 491.485 270.37C486.821 268.157 481.528 267.647 476.526 268.927C464.406 272.038 466.955 290.055 479.465 290.055L545.97 290.029Z" fill="url(#paint2_linear)"/>
<path opacity="0.36" d="M379.488 187.339C393.304 187.339 394.107 166.513 380.266 165.835H379.123C376.719 165.834 374.329 166.206 372.04 166.939C371.117 161.316 368.201 156.211 363.824 152.557C359.446 148.903 353.9 146.942 348.196 147.034C342.492 147.125 337.011 149.262 332.753 153.054C328.495 156.847 325.744 162.042 325.002 167.692C322.052 166.274 318.819 165.541 315.545 165.547C313.693 165.545 311.849 165.777 310.056 166.237C297.936 169.361 300.485 187.364 312.995 187.364L379.488 187.339Z" fill="url(#paint3_linear)"/>
<defs>
<linearGradient id="paint0_linear" x1="42.7554" y1="227.886" x2="474.35" y2="616.822" gradientUnits="userSpaceOnUse">
<stop stop-color="#8F489A"/>
<stop offset="0.474707" stop-color="#AA24BE"/>
<stop offset="1" stop-color="#8F489A"/>
</linearGradient>
<linearGradient id="paint1_linear" x1="52.9287" y1="231.867" x2="124.193" y2="291.103" gradientUnits="userSpaceOnUse">
<stop stop-color="#8F489A"/>
<stop offset="0.474707" stop-color="#AA24BE"/>
<stop offset="1" stop-color="#8F489A"/>
</linearGradient>
<linearGradient id="paint2_linear" x1="468.646" y1="249.746" x2="534.391" y2="313.213" gradientUnits="userSpaceOnUse">
<stop stop-color="#8F489A"/>
<stop offset="0.474707" stop-color="#AA24BE"/>
<stop offset="1" stop-color="#8F489A"/>
</linearGradient>
<linearGradient id="paint3_linear" x1="302.175" y1="147.031" x2="367.96" y2="210.482" gradientUnits="userSpaceOnUse">
<stop stop-color="#8F489A"/>
<stop offset="0.474707" stop-color="#AA24BE"/>
<stop offset="1" stop-color="#8F489A"/>
</linearGradient>
</defs>
</svg>
