<svg width="276" height="220" viewBox="0 0 276 220" fill="none" xmlns="http://www.w3.org/2000/svg">
<path opacity="0.36" d="M250.089 216.392C251.937 216.392 253.71 215.667 255.025 214.375C256.34 213.082 257.091 211.326 257.116 209.486C257.409 190.44 258.949 162.343 222.936 154.569C193.791 148.284 211.068 96.6878 132.579 100.025C76.2367 102.417 91.1793 149.719 47.3947 153.661C18.2435 156.284 17.9896 193.007 19.1102 209.832C19.2278 211.606 20.0181 213.269 21.3209 214.484C22.6237 215.699 24.3415 216.375 26.1261 216.375L250.089 216.392Z" fill="url(#paint0_linear)"/>
<path d="M188.105 97.8699L95.9542 87.1262C95.0175 87.0166 94.0683 87.092 93.1609 87.348C92.2535 87.604 91.4057 88.0357 90.6659 88.6184C89.9262 89.2011 89.3089 89.9232 88.8496 90.7437C88.3902 91.5641 88.0977 92.4667 87.9888 93.3998L81.1109 152.1C81.0016 153.032 81.0779 153.977 81.3353 154.88C81.5927 155.784 82.0262 156.627 82.6111 157.364C83.196 158.1 83.9207 158.714 84.744 159.172C85.5673 159.629 86.4729 159.92 87.4092 160.028L179.593 170.745C180.529 170.853 181.478 170.778 182.385 170.521C183.292 170.265 184.139 169.833 184.878 169.25C185.617 168.668 186.234 167.946 186.693 167.126C187.152 166.306 187.444 165.404 187.553 164.471L194.431 105.771C194.644 103.888 194.097 101.998 192.91 100.516C191.724 99.0343 189.996 98.0826 188.105 97.8699Z" fill="#FDF1FF"/>
<path d="M193.752 111.583L194.431 105.771C194.643 103.888 194.096 101.998 192.91 100.516C191.724 99.0343 189.995 98.0826 188.105 97.8699L95.9539 87.1262C95.0172 87.0166 94.0681 87.092 93.1607 87.348C92.2533 87.604 91.4054 88.0357 90.6657 88.6184C89.9259 89.201 89.3087 89.9232 88.8493 90.7437C88.3899 91.5641 88.0974 92.4667 87.9885 93.3998L87.3096 99.2115L193.752 111.583Z" fill="#8F489A"/>
<path d="M102.219 134.753L113.9 114.249C114.266 113.607 114.814 113.087 115.476 112.753C116.138 112.42 116.884 112.288 117.62 112.375C118.614 112.49 119.521 112.994 120.142 113.776C120.763 114.557 121.047 115.552 120.932 116.542L118.498 137.282H118.603C118.947 137.322 119.279 137.43 119.581 137.599C119.883 137.768 120.148 137.996 120.36 138.268C120.573 138.54 120.729 138.852 120.82 139.185C120.91 139.518 120.934 139.865 120.888 140.207C120.806 140.893 120.455 141.519 119.911 141.948C119.367 142.377 118.674 142.573 117.985 142.494H117.885L117.438 146.272C117.396 146.639 117.282 146.994 117.102 147.317C116.922 147.64 116.679 147.925 116.389 148.154C116.098 148.384 115.764 148.554 115.407 148.654C115.05 148.755 114.677 148.784 114.308 148.74C113.94 148.698 113.584 148.584 113.26 148.404C112.936 148.225 112.65 147.983 112.42 147.694C112.19 147.404 112.019 147.072 111.918 146.717C111.817 146.361 111.787 145.99 111.83 145.623L112.271 141.846L103.864 140.867C103.523 140.827 103.193 140.721 102.892 140.554C102.592 140.387 102.328 140.163 102.115 139.895C101.901 139.626 101.743 139.318 101.649 138.989C101.556 138.659 101.528 138.315 101.568 137.975L101.789 136.072C101.836 135.607 101.983 135.157 102.219 134.753ZM112.928 136.287L114.435 123.426C114.438 123.416 114.44 123.406 114.439 123.396C114.438 123.386 114.436 123.376 114.431 123.366C114.426 123.357 114.42 123.349 114.412 123.342C114.404 123.336 114.395 123.33 114.386 123.327C114.376 123.324 114.365 123.323 114.355 123.323C114.345 123.324 114.335 123.327 114.326 123.331C114.316 123.336 114.308 123.342 114.301 123.35C114.295 123.358 114.289 123.367 114.286 123.377L107.381 135.506C107.353 135.555 107.338 135.611 107.337 135.667C107.336 135.724 107.349 135.78 107.374 135.83C107.4 135.88 107.438 135.924 107.484 135.957C107.53 135.989 107.584 136.01 107.64 136.017L112.547 136.567C112.635 136.577 112.722 136.554 112.793 136.501C112.864 136.449 112.912 136.373 112.928 136.287Z" fill="#8F489A"/>
<path d="M153.77 140.757L165.456 120.254C165.822 119.612 166.37 119.092 167.03 118.759C167.691 118.425 168.436 118.293 169.171 118.379C169.664 118.435 170.14 118.588 170.573 118.828C171.006 119.069 171.387 119.391 171.695 119.778C172.002 120.166 172.23 120.609 172.366 121.084C172.501 121.559 172.541 122.056 172.483 122.546L170.054 143.286H170.159C170.5 143.325 170.83 143.431 171.13 143.597C171.43 143.763 171.694 143.987 171.907 144.255C172.12 144.523 172.277 144.831 172.371 145.16C172.464 145.489 172.491 145.833 172.45 146.173C172.411 146.513 172.305 146.841 172.138 147.141C171.971 147.44 171.747 147.703 171.478 147.915C171.208 148.128 170.9 148.285 170.569 148.379C170.239 148.472 169.893 148.5 169.552 148.46H169.447L169.006 152.237C168.918 152.977 168.54 153.653 167.953 154.115C167.366 154.577 166.619 154.787 165.876 154.701C165.507 154.659 165.15 154.545 164.826 154.366C164.502 154.186 164.216 153.945 163.986 153.655C163.755 153.365 163.585 153.033 163.484 152.678C163.383 152.322 163.353 151.95 163.397 151.583L163.839 147.806L155.426 146.805C155.085 146.765 154.755 146.659 154.454 146.492C154.154 146.326 153.89 146.102 153.677 145.833C153.463 145.564 153.305 145.257 153.212 144.927C153.118 144.598 153.09 144.253 153.13 143.913L153.356 142.01C153.41 141.569 153.55 141.143 153.77 140.757ZM164.496 142.28L166.003 129.419C166.005 129.4 166 129.381 165.99 129.365C165.98 129.349 165.964 129.337 165.946 129.332C165.928 129.326 165.908 129.326 165.89 129.333C165.872 129.34 165.857 129.353 165.848 129.37L158.948 141.499C158.921 141.549 158.906 141.604 158.905 141.66C158.904 141.717 158.916 141.773 158.942 141.823C158.968 141.874 159.005 141.917 159.051 141.95C159.098 141.982 159.151 142.003 159.208 142.01L164.115 142.56C164.202 142.57 164.29 142.547 164.361 142.495C164.431 142.443 164.48 142.366 164.496 142.28Z" fill="#8F489A"/>
<path d="M130.598 122.689C131.277 116.9 134.727 113.942 140.335 114.596C145.943 115.25 148.615 118.912 147.947 124.707L145.739 143.539C145.06 149.334 141.605 152.287 135.996 151.638C130.388 150.989 127.716 147.316 128.39 141.521L130.598 122.689ZM134.059 142.549C133.755 145.139 134.787 146.25 136.603 146.464C138.42 146.679 139.678 145.826 139.982 143.237L142.272 123.712C142.576 121.122 141.549 120.006 139.733 119.797C137.917 119.588 136.653 120.435 136.355 123.019L134.059 142.549Z" fill="#8F489A"/>
<path d="M98.173 95.2363C98.13 95.6148 97.9751 95.9721 97.7281 96.2629C97.481 96.5537 97.1529 96.7649 96.7852 96.8698C96.4176 96.9747 96.0269 96.9685 95.6628 96.8521C95.2986 96.7356 94.9774 96.5142 94.7397 96.2157C94.502 95.9173 94.3586 95.5553 94.3276 95.1756C94.2967 94.7959 94.3795 94.4156 94.5657 94.0829C94.7519 93.7501 95.033 93.4799 95.3735 93.3064C95.714 93.133 96.0985 93.0641 96.4784 93.1084C96.986 93.1678 97.4493 93.425 97.7669 93.8238C98.0845 94.2226 98.2305 94.7305 98.173 95.2363Z" fill="white"/>
<path d="M107.414 96.3139C107.368 96.6906 107.212 97.0455 106.965 97.3338C106.717 97.622 106.389 97.8308 106.023 97.9336C105.656 98.0364 105.267 98.0287 104.905 97.9115C104.543 97.7942 104.224 97.5727 103.988 97.2748C103.752 96.977 103.61 96.6162 103.58 96.238C103.55 95.8599 103.633 95.4813 103.819 95.1502C104.005 94.8191 104.285 94.5503 104.624 94.3777C104.963 94.2051 105.346 94.1365 105.724 94.1806C105.976 94.2099 106.22 94.2884 106.441 94.4115C106.662 94.5347 106.856 94.7001 107.013 94.8982C107.17 95.0964 107.286 95.3234 107.355 95.5664C107.424 95.8093 107.444 96.0633 107.414 96.3139Z" fill="white"/>
<path d="M117.024 97.4246C116.98 97.8016 116.824 98.1572 116.577 98.4463C116.33 98.7353 116.003 98.945 115.636 99.0486C115.269 99.1522 114.88 99.1453 114.518 99.0285C114.155 98.9118 113.835 98.6905 113.599 98.3928C113.363 98.095 113.22 97.7341 113.19 97.3557C113.159 96.9774 113.242 96.5985 113.428 96.2671C113.614 95.9357 113.894 95.6666 114.233 95.4938C114.573 95.3211 114.956 95.2525 115.334 95.2968C115.842 95.356 116.305 95.6134 116.621 96.0124C116.938 96.4114 117.083 96.9194 117.024 97.4246Z" fill="white"/>
<path d="M79.2495 196.344C79.3763 187.46 79.4802 177.921 79.386 175.382C79.3147 171.811 79.6347 168.244 80.3401 164.743L91.0471 163.622L91.0119 163.871C90.9322 164.434 90.8181 165.241 90.6806 166.216C90.4055 168.166 90.0365 170.786 89.6608 173.471C88.9104 178.833 88.1301 184.471 88.0213 185.505C87.971 185.983 87.5781 187.95 87.0027 190.684C86.4315 193.398 85.6899 196.826 84.9548 200.191C84.2197 203.556 83.4913 206.858 82.9467 209.318C82.6744 210.548 82.4481 211.567 82.2898 212.28L82.1284 213.005H78.9812L78.9976 212.083C79.0137 211.168 79.0364 209.856 79.0632 208.266C79.1167 205.087 79.186 200.794 79.2495 196.344Z" fill="#7B2C86" stroke="black"/>
<path d="M83.2004 163.291L94.7724 163.553L94.817 163.997C94.8737 164.56 94.955 165.367 95.0535 166.342C95.2504 168.293 95.5159 170.914 95.7902 173.6C96.338 178.962 96.923 184.602 97.0653 185.636C97.1315 186.117 97.2301 188.085 97.3403 190.818C97.4496 193.532 97.5691 196.96 97.6799 200.326C97.7906 203.691 97.8925 206.992 97.9668 209.452C98.0039 210.682 98.0341 211.702 98.055 212.414L98.0726 213.016H94.9274L94.6791 211.949C94.4629 211.02 94.1522 209.687 93.7743 208.072C93.0187 204.842 91.9946 200.483 90.9208 195.966C88.7765 186.947 86.4249 177.261 85.6229 174.723C84.8377 172.238 84.2115 169.239 83.7808 166.85C83.5658 165.658 83.4002 164.623 83.2885 163.885C83.2539 163.657 83.2245 163.458 83.2004 163.291Z" fill="#8F489A" stroke="black"/>
<path d="M102.393 215.826H95.3608V214.005H98.182C99.6593 214.218 101.305 215.108 102.393 215.826Z" fill="#2F2F39" stroke="black"/>
<mask id="path-14-inside-1" fill="white">
<path d="M78.6821 213.505V216.326H86.4102C86.5019 216.323 86.5907 216.293 86.6641 216.238C86.7376 216.183 86.792 216.107 86.82 216.02C86.8479 215.933 86.8479 215.839 86.8199 215.752C86.792 215.665 86.7375 215.589 86.6641 215.534C85.5325 214.786 83.7274 213.752 82.0438 213.521L78.6821 213.505Z"/>
</mask>
<path d="M78.6821 213.505V216.326H86.4102C86.5019 216.323 86.5907 216.293 86.6641 216.238C86.7376 216.183 86.792 216.107 86.82 216.02C86.8479 215.933 86.8479 215.839 86.8199 215.752C86.792 215.665 86.7375 215.589 86.6641 215.534C85.5325 214.786 83.7274 213.752 82.0438 213.521L78.6821 213.505Z" fill="#2F2F39"/>
<path d="M78.6821 213.505L78.687 212.505L77.6821 212.5V213.505H78.6821ZM78.6821 216.326H77.6821V217.326H78.6821V216.326ZM86.4102 216.326V217.326H86.4224L86.4347 217.325L86.4102 216.326ZM86.6641 215.534L87.2622 214.732L87.2392 214.715L87.2154 214.7L86.6641 215.534ZM82.0438 213.521L82.1797 212.531L82.1145 212.522L82.0487 212.522L82.0438 213.521ZM77.6821 213.505V216.326H79.6821V213.505H77.6821ZM78.6821 217.326H86.4102V215.326H78.6821V217.326ZM86.4347 217.325C86.7333 217.318 87.0226 217.218 87.2623 217.039L86.0659 215.437C86.1588 215.367 86.2705 215.329 86.3857 215.326L86.4347 217.325ZM87.2623 217.039C87.5021 216.86 87.6806 216.611 87.7722 216.325L85.8677 215.714C85.9035 215.603 85.973 215.506 86.0659 215.437L87.2623 217.039ZM87.7722 216.325C87.8638 216.039 87.8638 215.732 87.7721 215.447L85.8677 216.058C85.8319 215.946 85.832 215.826 85.8677 215.714L87.7722 216.325ZM87.7721 215.447C87.6805 215.161 87.502 214.911 87.2622 214.732L86.066 216.335C85.9731 216.266 85.9035 216.169 85.8677 216.058L87.7721 215.447ZM87.2154 214.7C86.0699 213.943 84.1032 212.795 82.1797 212.531L81.9079 214.512C83.3516 214.71 84.995 215.63 86.1128 216.368L87.2154 214.7ZM82.0487 212.522L78.687 212.505L78.6772 214.505L82.0389 214.521L82.0487 212.522Z" fill="black" mask="url(#path-14-inside-1)"/>
<path d="M92.6088 129.903C92.6088 129.903 95.2694 125.884 92.2169 125.505C89.8764 125.202 88.9049 125.895 88.9049 125.895C88.9049 125.895 86.2056 125.603 84.7317 126.874C83.7216 127.748 80.0121 134.516 86.0124 136.963C92.0126 139.41 90.732 133.114 90.732 133.114L92.6088 129.903Z" fill="#8F489A"/>
<path d="M92.1941 125.743L92.1848 125.741C91.0436 125.594 90.2474 125.691 89.7445 125.818C89.4927 125.881 89.3133 125.953 89.1999 126.006C89.1432 126.033 89.1028 126.056 89.0781 126.07C89.0658 126.077 89.0573 126.083 89.0527 126.086L89.0487 126.088L89.0486 126.088L89.0485 126.089L88.9726 126.143L88.8782 126.132L88.8781 126.132L88.9049 125.884M92.1941 125.743L92.2169 125.494C89.8764 125.191 88.9049 125.884 88.9049 125.884M92.1941 125.743L92.2035 125.743C92.2564 125.746 92.309 125.752 92.361 125.761M92.1941 125.743L92.361 125.761M88.9049 125.884C89.05 126.087 89.0499 126.088 89.0498 126.088L89.05 126.087L88.9049 125.884ZM92.361 125.761C91.8648 125.742 91.3027 125.762 90.7492 125.872C89.7726 126.068 88.7904 126.554 88.2695 127.634C88.2167 127.62 88.156 127.604 88.0884 127.589C87.8436 127.533 87.5037 127.479 87.1292 127.491C86.3732 127.515 85.4587 127.811 84.9371 128.893C84.6788 129.429 84.5401 130.265 84.5553 131.174C84.5707 132.089 84.7423 133.109 85.1318 134.02C85.5214 134.932 86.1359 135.75 87.0443 136.23C87.8352 136.648 88.8233 136.797 90.0306 136.56C89.8073 136.852 89.5012 137.076 89.0813 137.19C88.4406 137.362 87.4939 137.288 86.1071 136.721L86.1068 136.721C84.6557 136.129 83.8136 135.287 83.3639 134.357C82.9118 133.423 82.8435 132.374 82.9906 131.353C83.1377 130.332 83.4983 129.354 83.8857 128.575C84.2776 127.788 84.6809 127.237 84.8951 127.052C85.5731 126.468 86.5532 126.23 87.3959 126.146C87.8124 126.104 88.185 126.101 88.4533 126.108C88.5873 126.112 88.6947 126.118 88.7682 126.123C88.8048 126.126 88.833 126.128 88.8516 126.13L88.8723 126.132L88.8771 126.132L88.878 126.132L92.361 125.761Z" fill="#7B2C86" stroke="black" stroke-width="0.5"/>
<path d="M88.5058 132.203C88.5126 132.209 88.5171 132.213 88.5192 132.215C88.5194 132.215 88.5196 132.215 88.5198 132.216L88.6954 132.392L88.9444 132.355C90.2176 132.168 91.4082 131.633 92.3874 130.817C92.6931 131.834 92.867 132.887 92.904 133.951L92.904 133.951L92.9041 133.953C92.942 134.905 92.3878 135.651 91.7381 136.195C91.4184 136.462 91.0933 136.664 90.8469 136.8C90.7243 136.868 90.6228 136.918 90.5533 136.95C90.5186 136.967 90.492 136.979 90.475 136.986L90.4567 136.994L90.4539 136.995L90.4536 136.995L90.4533 136.995L90.4533 136.995L90.4531 136.996L90.1437 137.122V137.458V138.514H86.5234V137.425C87.4623 137.277 88.0243 136.6 88.3345 135.993C88.5168 135.636 88.6263 135.282 88.6903 135.02C88.7226 134.889 88.744 134.778 88.7576 134.698C88.7644 134.659 88.7692 134.627 88.7725 134.603L88.7762 134.576L88.7773 134.567L88.7776 134.564L88.7777 134.563L88.7778 134.563C88.7778 134.562 88.7778 134.562 88.2811 134.505L88.7778 134.562L88.8357 134.059L88.3312 134.008C88.1552 133.99 87.9107 133.792 87.7823 133.312C87.6583 132.847 87.7267 132.388 87.897 132.161C87.9853 132.043 88.0497 132.022 88.0758 132.015C88.1103 132.007 88.1612 132.009 88.2349 132.035C88.3093 132.063 88.3827 132.107 88.4419 132.151C88.4702 132.172 88.4921 132.191 88.5058 132.203Z" fill="white" stroke="black"/>
<path opacity="0.16" d="M89.5784 138.101C90.0366 138.294 89.9593 138.579 89.9814 139.014H90.6438V137.458C90.6438 137.458 89.5398 137.815 87.8838 136.908C88.3888 137.384 88.9594 137.786 89.5784 138.101Z" fill="black"/>
<path d="M90.0689 128.21C90.1051 128.222 90.1393 128.234 90.1712 128.245L89.4915 129.502C89.2192 129.511 88.9475 129.482 88.6841 129.417L88.8122 129.397L89.464 129.293L88.9069 128.939C88.5887 128.737 88.3423 128.552 88.1962 128.376C88.0574 128.208 88.0374 128.085 88.0837 127.966C88.0947 127.938 88.1486 127.87 88.3988 127.859C88.6286 127.85 88.9279 127.895 89.2382 127.968C89.5444 128.04 89.8443 128.133 90.0689 128.21Z" fill="white" stroke="black" stroke-width="0.5"/>
<path d="M107.343 134.49L107.343 134.49L107.352 134.496C107.391 134.524 107.424 134.559 107.448 134.6C107.472 134.642 107.487 134.687 107.492 134.734C107.497 134.782 107.492 134.829 107.477 134.874C107.462 134.919 107.438 134.961 107.405 134.996L107.397 135.005L107.389 135.015C103.85 139.251 99.8654 143.097 95.5037 146.487L95.3079 146.639L95.3106 146.887L95.5215 166.501C93.3222 166.919 90.2315 166.984 87.3111 166.907C84.2787 166.828 81.4766 166.598 80.143 166.475C80.1424 166.475 80.1418 166.475 80.1412 166.475L79.6388 166.424L78.7637 165.146L78.7635 165.145L70.6157 153.214C70.6278 153.195 70.6405 153.175 70.6537 153.155C70.7943 152.938 70.9985 152.624 71.2527 152.237C71.7612 151.462 72.4694 150.395 73.2681 149.223C74.8704 146.874 76.8204 144.131 78.253 142.487L78.2531 142.487L78.2596 142.48C79.1068 141.467 80.1784 140.664 81.3903 140.134C82.6022 139.604 83.9211 139.362 85.2433 139.425L85.2539 139.426L85.2645 139.426L90.9946 139.459C90.9955 139.459 90.9964 139.459 90.9973 139.459C91.5139 139.467 92.0261 139.362 92.4979 139.152L92.4979 139.152L92.5016 139.15C93.4371 138.724 95.2915 137.879 96.9677 137.092C97.8054 136.699 98.6015 136.318 99.2171 136.012C99.5245 135.859 99.7905 135.722 99.9957 135.61C100.178 135.511 100.364 135.404 100.469 135.314C100.589 135.212 100.676 135.058 100.679 134.872C100.681 134.71 100.618 134.583 100.571 134.508C100.478 134.361 100.333 134.236 100.205 134.139C99.9312 133.933 99.5188 133.694 99.0365 133.441C98.0617 132.932 96.7013 132.317 95.3299 131.727C93.9555 131.136 92.5589 130.565 91.5066 130.142C91.0045 129.94 90.5804 129.772 90.274 129.651L90.8465 128.608C90.8998 128.62 90.9587 128.634 91.0228 128.648C91.3707 128.728 91.8735 128.845 92.4914 128.996C93.7275 129.298 95.4225 129.736 97.2587 130.279C100.959 131.372 105.139 132.864 107.343 134.49ZM79.2211 161.606L80.1743 161.433L80.2957 159.752L80.2958 159.751L81.0685 149.233L81.176 147.771L80.1974 148.863L75.9029 153.658L75.684 153.902L75.8209 154.2L78.4096 159.835L78.4098 159.836L79.2211 161.606Z" fill="#263238" stroke="black"/>
<path d="M78.9854 165.462L79.2547 162.515L79.0276 165.522L78.9854 165.462Z" fill="#263238" stroke="black"/>
<g style="mix-blend-mode:multiply">
<path d="M93.8729 146.123C93.1001 146.673 93.3209 151.622 93.1057 154.728C92.7855 159.913 92.4764 164.4 92.7082 167.297C93.7818 167.239 94.8498 167.105 95.9043 166.896L96.0258 166.868L95.8105 146.844C100.2 143.431 104.21 139.56 107.772 135.297C107.849 135.21 107.907 135.108 107.943 134.997C107.978 134.887 107.99 134.77 107.977 134.655C107.965 134.54 107.928 134.428 107.87 134.328C107.812 134.227 107.734 134.14 107.64 134.071C103.422 138.491 98.8149 142.524 93.8729 146.123Z" fill="#F98D2B" fill-opacity="0.3"/>
</g>
<path opacity="0.12" d="M97.5606 185.563C97.3563 184.084 96.2358 173.021 95.6231 166.973L92.7085 167.297C92.7085 167.297 96.9589 202.118 97.2404 213.51H98.5873C98.5873 213.51 97.8421 187.608 97.5606 185.563Z" fill="black"/>
<path d="M56.0557 203.707C56.0557 203.707 54.8027 202.547 55.6417 198.137C56.4808 193.728 58.6115 189.488 57.5627 184.699C56.5139 179.91 48.3332 167.847 48.3056 167.044C48.278 166.242 45.7775 181.081 50.0113 186.943C54.2452 192.804 54.7585 194.822 54.5708 197.895C54.3832 200.969 54.615 203.449 55.0787 204.163L56.0557 203.707Z" fill="#9FCD00"/>
<path d="M55.2774 194.838C54.7861 196.807 54.4881 201.739 55.2774 202.921C55.3492 203.031 55.4541 202.97 55.5865 202.761C55.3437 201.948 55.1891 200.518 55.6417 198.137C56.4808 193.739 58.6115 189.488 57.5627 184.699C56.5139 179.91 48.3333 167.847 48.3057 167.044C48.3057 167.044 49.5421 177.095 53.6932 184.018C56.6684 188.972 55.7521 192.87 55.2774 194.838Z" fill="#9FCD00"/>
<path d="M57.5461 203.405C57.5461 203.405 55.1394 197.422 59.2021 192.243C63.2649 187.064 69.795 180.411 69.9275 177.777C69.9275 177.777 71.5835 190.286 66.2953 193.827C61.0072 197.367 57.2867 197.939 58.203 203.383L57.5461 203.405Z" fill="#9FCD00"/>
<path d="M63.2759 191.341C57.3585 195.63 56.8727 200.573 57.7891 202.86C57.8199 202.945 57.8714 203.021 57.9388 203.082C58.0061 203.142 58.0874 203.185 58.1755 203.207C57.3806 197.95 61.0734 197.351 66.3119 193.86C71.5504 190.368 69.9441 177.81 69.9441 177.81C69.9441 177.81 69.1878 187.02 63.2759 191.341Z" fill="#9FCD00"/>
<path d="M53.5879 203.537C54.0594 201.37 54.1824 199.143 53.9522 196.939C53.5438 193.541 49.9558 191.605 46.6051 187.993C44.8774 186.134 44.3695 176.309 45.4349 175.396C45.4349 175.396 39.523 182.544 40.4338 187.767C41.3446 192.991 50.999 196.394 51.8878 198.918C52.4197 200.412 52.6959 201.984 52.7047 203.57L53.5879 203.537Z" fill="#9FCD00"/>
<path d="M43.4369 178.206C41.4828 183.479 43.4866 189.868 49.9836 193.838C54.764 196.757 53.2404 202.833 53.2404 202.833L54.0243 200.436C54.1061 199.274 54.0821 198.107 53.9525 196.95C53.544 193.541 49.956 191.605 46.6054 187.993C44.9494 186.2 44.3974 176.996 45.3303 175.528C44.6541 176.388 44.0222 177.282 43.4369 178.206Z" fill="#9FCD00"/>
<path d="M45.3301 175.528L45.4352 175.396C45.3949 175.436 45.3596 175.48 45.3301 175.528Z" fill="#49B4D6"/>
<path d="M58.7822 203.141C58.7822 203.141 60.1677 198.016 63.6012 197.329C67.0346 196.642 70.9704 191.589 71.1801 190.599C71.2077 190.599 70.6005 200.139 58.7822 203.141Z" fill="#9FCD00"/>
<path d="M63.4028 199.039C61.3052 200.084 60.4275 201.491 60.0908 202.772C70.6119 199.402 71.1308 190.615 71.1308 190.615C71.0004 190.976 70.8141 191.313 70.5788 191.616C69.6128 193.403 67.1178 197.175 63.4028 199.039Z" fill="#9FCD00"/>
<path d="M66.2071 201.238H48.2671L50.3978 214.599C50.4755 215.09 50.7268 215.537 51.1064 215.86C51.486 216.183 51.9688 216.359 52.4678 216.359H62.0064C62.5054 216.359 62.9882 216.183 63.3678 215.86C63.7474 215.537 63.9987 215.09 64.0764 214.599L66.2071 201.238Z" fill="#8F489A"/>
<path d="M189.921 177.458H108.854V193.876H189.921V177.458Z" fill="#8F489A"/>
<path d="M115.903 177.458H123.305L121.318 181.444H113.916L115.903 177.458Z" fill="#F77E2D"/>
<path d="M132.574 177.458H139.971L137.989 181.444H130.592L132.574 177.458Z" fill="#F77E2D"/>
<path d="M149.244 177.458H156.641L154.659 181.444H147.262L149.244 177.458Z" fill="#F77E2D"/>
<path d="M165.915 177.458H173.312L171.324 181.444H163.933L165.915 177.458Z" fill="#F77E2D"/>
<path d="M189.921 177.458V177.568L187.995 181.444H180.604L182.585 177.458H189.921Z" fill="#F77E2D"/>
<path d="M124.658 193.876H118.945V216.326H124.658V193.876Z" fill="#7B2C86"/>
<path d="M180.278 193.876H174.564V216.326H180.278V193.876Z" fill="#7B2C86"/>
<path d="M124.658 174.89H118.945V177.442H124.658V174.89Z" fill="#7B2C86"/>
<path d="M180.278 174.89H174.564V177.442H180.278V174.89Z" fill="#7B2C86"/>
<path d="M123.306 177.458L115.125 193.876H108.854V191.611L115.904 177.458H123.306Z" fill="#FDF1FF"/>
<path d="M132.574 177.458L124.398 193.876H131.795L139.97 177.458H132.574Z" fill="#FDF1FF"/>
<path d="M156.641 177.458L148.466 193.876H141.069L149.244 177.458H156.641Z" fill="#FDF1FF"/>
<path d="M173.311 177.458L165.136 193.876H157.739L165.914 177.458H173.311Z" fill="#FDF1FF"/>
<path d="M182.585 177.458L174.41 193.876H181.806L189.921 177.568L182.585 177.458Z" fill="#FDF1FF"/>
<path d="M122.464 176.347C125.242 175.897 127.127 173.289 126.675 170.523C126.223 167.756 123.606 165.879 120.828 166.329C118.051 166.779 116.166 169.386 116.617 172.153C117.069 174.919 119.687 176.797 122.464 176.347Z" fill="#8F489A"/>
<path d="M123.963 171.327C123.962 170.873 123.826 170.429 123.571 170.052C123.317 169.675 122.956 169.381 122.535 169.208C122.113 169.035 121.649 168.99 121.202 169.08C120.755 169.169 120.344 169.388 120.022 169.71C119.7 170.031 119.481 170.441 119.392 170.887C119.303 171.332 119.35 171.794 119.524 172.214C119.699 172.633 119.995 172.992 120.374 173.244C120.753 173.497 121.199 173.631 121.656 173.631C121.959 173.631 122.259 173.572 122.54 173.456C122.82 173.34 123.075 173.17 123.289 172.956C123.503 172.742 123.673 172.488 123.789 172.209C123.904 171.929 123.964 171.63 123.963 171.327Z" fill="#FDF1FF"/>
<path d="M178.194 176.352C180.972 175.902 182.857 173.294 182.405 170.528C181.953 167.761 179.335 165.884 176.558 166.334C173.781 166.784 171.896 169.391 172.347 172.158C172.799 174.924 175.417 176.802 178.194 176.352Z" fill="#8F489A"/>
<path d="M179.692 171.327C179.691 170.873 179.555 170.429 179.301 170.052C179.047 169.675 178.686 169.381 178.264 169.208C177.842 169.035 177.379 168.99 176.931 169.08C176.484 169.169 176.074 169.388 175.752 169.71C175.429 170.031 175.21 170.441 175.122 170.887C175.033 171.332 175.079 171.794 175.254 172.214C175.429 172.633 175.724 172.992 176.104 173.244C176.483 173.497 176.929 173.631 177.385 173.631C177.688 173.631 177.989 173.572 178.269 173.456C178.55 173.34 178.804 173.17 179.018 172.956C179.233 172.742 179.403 172.488 179.518 172.209C179.634 171.929 179.693 171.63 179.692 171.327Z" fill="#FDF1FF"/>
<path d="M220.64 214.583H194.817L198.77 205.049L200.354 201.2L200.796 200.15L201.508 198.429L201.651 198.082L203.241 194.233L203.533 193.535L206.349 186.728C206.461 186.455 206.652 186.221 206.897 186.057C207.143 185.892 207.433 185.804 207.729 185.804C208.025 185.804 208.314 185.892 208.56 186.057C208.806 186.221 208.997 186.455 209.109 186.728L211.924 193.535L212.216 194.233L213.801 198.082L213.95 198.429L214.662 200.15L215.098 201.2L216.688 205.049L220.64 214.583Z" fill="#FDF1FF"/>
<path d="M222.324 212.141H192.753V216.304H222.324V212.141Z" fill="#8F489A"/>
<path d="M213.801 198.077H201.651L203.241 194.228H212.217L213.801 198.077Z" fill="#8F489A"/>
<path d="M216.687 205.043V205.049H198.77V205.043L200.354 201.194H215.098L216.687 205.043Z" fill="#8F489A"/>
<path opacity="0.36" d="M56.0611 121.078C56.9971 121.088 57.9047 120.759 58.6154 120.152C59.326 119.545 59.7914 118.702 59.9251 117.779C59.9741 117.433 59.9981 117.084 59.9969 116.735C59.9969 114.693 59.1827 112.735 57.7334 111.292C56.2841 109.848 54.3184 109.037 52.2689 109.037C52.0977 109.037 51.9211 109.037 51.75 109.037C51.5612 106.95 50.5727 105.015 48.9897 103.634C47.4068 102.254 45.3509 101.533 43.2487 101.622C41.1465 101.711 39.1595 102.603 37.7001 104.113C36.2406 105.623 35.4208 107.634 35.4108 109.73C35.4108 109.928 35.4108 110.126 35.4108 110.324C34.2092 109.658 32.8587 109.304 31.4838 109.295C30.1088 109.286 28.7538 109.623 27.5437 110.273C26.3336 110.923 25.3075 111.867 24.56 113.016C23.8125 114.166 23.3678 115.484 23.2668 116.85C23.2668 116.883 23.2668 116.916 23.2668 116.949C23.2398 117.477 23.3211 118.005 23.5057 118.501C23.6903 118.997 23.9744 119.45 24.3406 119.833C24.7069 120.215 25.1475 120.52 25.6358 120.727C26.124 120.935 26.6496 121.041 27.1805 121.04L56.0611 121.078Z" fill="url(#paint1_linear)"/>
<path opacity="0.36" d="M239.949 127.104C246.021 127.104 246.38 117.972 240.297 117.675H239.794C238.737 117.673 237.686 117.838 236.681 118.164C236.272 115.702 234.989 113.468 233.066 111.869C231.143 110.27 228.707 109.412 226.202 109.452C223.697 109.491 221.289 110.425 219.417 112.083C217.546 113.742 216.334 116.015 216.003 118.489C213.953 117.519 211.627 117.295 209.429 117.856C204.102 119.22 205.223 127.115 210.72 127.115L239.949 127.104Z" fill="url(#paint2_linear)"/>
<path opacity="0.36" d="M166.781 82.1008C172.853 82.1008 173.207 72.9736 167.123 72.6767H166.621C165.564 72.676 164.514 72.8393 163.508 73.1605C163.102 70.6961 161.821 68.459 159.897 66.8576C157.973 65.2561 155.536 64.397 153.029 64.437C150.522 64.477 148.113 65.4135 146.242 67.0755C144.371 68.7375 143.162 71.0143 142.835 73.4904C141.539 72.8691 140.118 72.5477 138.679 72.5502C137.865 72.5494 137.055 72.651 136.267 72.8526C130.94 74.2217 132.06 82.1118 137.558 82.1118L166.781 82.1008Z" fill="url(#paint3_linear)"/>
<defs>
<linearGradient id="paint0_linear" x1="18.7905" y1="99.8702" x2="207.99" y2="270.853" gradientUnits="userSpaceOnUse">
<stop stop-color="#8F489A"/>
<stop offset="0.474707" stop-color="#AA24BE"/>
<stop offset="1" stop-color="#8F489A"/>
</linearGradient>
<linearGradient id="paint1_linear" x1="23.2617" y1="101.615" x2="54.5089" y2="127.662" gradientUnits="userSpaceOnUse">
<stop stop-color="#8F489A"/>
<stop offset="0.474707" stop-color="#AA24BE"/>
<stop offset="1" stop-color="#8F489A"/>
</linearGradient>
<linearGradient id="paint2_linear" x1="205.965" y1="109.45" x2="234.781" y2="137.346" gradientUnits="userSpaceOnUse">
<stop stop-color="#8F489A"/>
<stop offset="0.474707" stop-color="#AA24BE"/>
<stop offset="1" stop-color="#8F489A"/>
</linearGradient>
<linearGradient id="paint3_linear" x1="132.803" y1="64.4357" x2="161.636" y2="92.3245" gradientUnits="userSpaceOnUse">
<stop stop-color="#8F489A"/>
<stop offset="0.474707" stop-color="#AA24BE"/>
<stop offset="1" stop-color="#8F489A"/>
</linearGradient>
</defs>
</svg>
