<svg xmlns="http://www.w3.org/2000/svg" width="80" height="80" fill="none" viewBox="0 0 80 80">
    <path fill="#8F489A" fill-rule="evenodd" d="M78 40c0 20.987-17.013 38-38 38S2 60.987 2 40 19.013 2 40 2s38 17.013 38 38zm2 0c0 22.091-17.909 40-40 40S0 62.091 0 40 17.909 0 40 0s40 17.909 40 40zm-24.815 9.465c-.486 0-.974-.114-1.42-.346V58H29.33c-1.99 0-3.61-1.62-3.61-3.61V25.61c0-1.99 1.62-3.61 3.61-3.61h24.434v19.148l3.41 2.86c.632.531 1.02 1.276 1.092 2.099.072.822-.18 1.623-.712 2.255-.61.728-1.487 1.103-2.37 1.103zm-6.62-9.927c-.356.553-.78 1.058-1.26 1.505l4.247 3.563 1.262-1.503-4.248-3.565zm-12.427-4.273c0 3.192 2.597 5.789 5.788 5.789 3.192 0 5.79-2.597 5.79-5.79 0-3.191-2.598-5.788-5.79-5.788-3.191 0-5.788 2.597-5.788 5.789zm-6.05-11.156h-.757c-.827 0-1.5.673-1.5 1.5v25.5c.457-.21.965-.328 1.5-.328h.757V24.109zm-.757 31.782h22.325V52.89H29.33c-.827 0-1.5.673-1.5 1.5 0 .828.673 1.5 1.5 1.5zm2.866-31.782v26.672h19.459v-3.335l-6.136-5.149c-1.079.554-2.3.866-3.594.866-4.355 0-7.898-3.543-7.898-7.898 0-4.355 3.544-7.898 7.898-7.898 4.355 0 7.898 3.543 7.898 7.898 0 .797-.118 1.566-.339 2.291l2.17 1.822V24.109H32.198zm22.36 23.019c.415.347 1.035.293 1.383-.121.168-.201.248-.456.225-.716-.023-.262-.146-.498-.346-.667l-1.39-1.165-1.26 1.503 1.388 1.166z" clip-rule="evenodd"/>
</svg>
