<svg xmlns="http://www.w3.org/2000/svg" width="80" height="80" fill="none" viewBox="0 0 80 80">
    <path fill="#8F489A" fill-rule="evenodd" d="M40 78c20.987 0 38-17.013 38-38S60.987 2 40 2 2 19.013 2 40s17.013 38 38 38zm0 2c22.091 0 40-17.909 40-40S62.091 0 40 0 0 17.909 0 40s17.909 40 40 40zm14.708-49.008h-.448v-4.35c0-1.815-1.477-3.292-3.293-3.292H27.086c-2.635 0-4.808 2.015-5.059 4.586-.002.012-.005.016-.007.02-.021.046-.021.101-.02 8.696.002 3.43.002 8.221.002 14.915 0 2.803 2.28 5.083 5.084 5.083h27.622c1.815 0 3.292-1.477 3.292-3.292V34.285c0-1.816-1.477-3.293-3.292-3.293zm-27.622-5.38h23.881c.569 0 1.031.462 1.031 1.03v4.35H27.086c-1.512 0-2.75-1.195-2.819-2.69.07-1.495 1.307-2.69 2.819-2.69zm27.622 28.777H27.086c-1.556 0-2.822-1.266-2.822-2.822v-19.17c.808.541 1.779.857 2.822.857h27.622c.568 0 1.03.462 1.03 1.03v4.585h-8.51c-2.897 0-5.255 2.358-5.255 5.256s2.358 5.256 5.256 5.256h8.51v3.977c0 .568-.463 1.03-1.031 1.03zm1.03-7.27h-8.51c-1.65 0-2.994-1.343-2.994-2.994 0-1.651 1.344-2.994 2.995-2.994h8.51v5.988zm-6.453-2.994c0 .905-.734 1.639-1.639 1.639s-1.639-.734-1.639-1.639.734-1.639 1.64-1.639c.904 0 1.638.734 1.638 1.64z" clip-rule="evenodd"/>
</svg>
