<svg xmlns="http://www.w3.org/2000/svg" width="80" height="80" fill="none" viewBox="0 0 80 80">
    <path fill="#8F489A" fill-rule="evenodd" d="M78 40c0 20.987-17.013 38-38 38S2 60.987 2 40 19.013 2 40 2s38 17.013 38 38zm2 0c0 22.091-17.909 40-40 40S0 62.091 0 40 17.909 0 40 0s40 17.909 40 40zm-40.072-.987c-3.544-.01-6.45-2.95-6.442-6.521.009-3.6 2.932-6.495 6.547-6.482 3.552.013 6.46 2.924 6.456 6.463-.003 3.657-2.905 6.55-6.56 6.54zm14.029 14.686l.03.271H25.922c.064-.285.119-.57.173-.85.117-.603.231-1.193.422-1.758 1.605-4.761 4.938-7.754 9.745-8.982 5.048-1.29 9.64-.206 13.563 3.282 2.252 2.004 3.596 4.547 4.07 7.534.026.163.043.326.062.503zm-22.16-23.5c-1.058 3.665.5 8.046 4.62 10.058-1.622.368-3.13.907-4.523 1.72-4.48 2.613-7.247 6.397-7.873 11.622-.17 1.42.715 2.4 2.152 2.4h20.373c2.456.001 4.91.002 7.366-.002 1.218-.002 2.224-.997 2.073-2.12-.137-1.015-.28-2.048-.59-3.019-1.566-4.872-4.882-8.093-9.602-9.934-.483-.189-.982-.336-1.483-.483-.231-.069-.464-.137-.694-.21 4.08-1.957 5.678-6.47 4.511-10.235-1.1-3.55-4.459-6.015-8.208-5.996-3.752.02-7.067 2.546-8.122 6.2z" clip-rule="evenodd"/>
</svg>
