<svg xmlns="http://www.w3.org/2000/svg" width="608" height="550" fill="none" viewBox="0 0 608 550">
    <path fill="#F29CFF" d="M109.554 152.997c17.879-24.938 25.416-55.49 37.201-83.795 11.786-28.306 30.547-56.692 59.731-65.994 29.103-9.302 61.093 2.887 86.187 20.367 25.095 17.481 46.502 40.174 72.719 55.89 28.943 17.321 62.456 25.26 95.247 33.198 32.791 7.939 66.224 16.358 94.686 34.641 28.462 18.202 51.472 48.192 52.675 81.951 0 130.785-67.52 194.184-83.462 212.277-40.003 45.409-97.461 82.708-159.146 101.007-86.285 25.688-234.462-21.716-291.034-74.969-31.349-29.508-57.405-65.913-68.71-107.53-11.224-41.617-6.173-88.687 19.242-123.488 23.491-32.235 61.494-51.32 84.664-83.555z" opacity=".36"/>
    <mask id="prefix__a" width="608" height="550" x="0" y="0" maskUnits="userSpaceOnUse">
        <path fill="#F29CFF" d="M109.554 152.997c17.879-24.938 25.416-55.49 37.201-83.795 11.786-28.306 30.547-56.692 59.731-65.994 29.103-9.302 61.093 2.887 86.187 20.367 25.095 17.481 46.502 40.174 72.719 55.89 28.943 17.321 62.456 25.26 95.247 33.198 32.791 7.939 66.224 16.358 94.686 34.641 28.462 18.202 51.472 48.192 52.675 81.951 0 130.785-67.52 194.184-83.462 212.277-40.003 45.409-97.461 82.708-159.146 101.007-86.285 25.688-234.462-21.716-291.034-74.969-31.349-29.508-57.405-65.913-68.71-107.53-11.224-41.617-6.173-88.687 19.242-123.488 23.491-32.235 61.494-51.32 84.664-83.555z"/>
    </mask>
    <g mask="url(#prefix__a)">
        <path fill="#9FCD00" d="M325.02 423.447c.103.017-1.208-6.433-1.329-6.829-1.483-4.587-7.073-12.589-12.473-12.589-3.899 0-6.539 3.553-6.16 7.277.397 3.794 3.813 7.036 6.884 8.899 3.641 2.207 13.078 3.242 13.078 3.242zM251.042 457.884c.102-.024-3.642-5.437-3.909-5.754-3.169-3.633-11.457-8.789-16.421-6.664-3.585 1.535-4.613 5.84-2.798 9.114 1.858 3.332 6.274 4.968 9.83 5.471 4.215.596 13.298-2.167 13.298-2.167z"/>
        <path fill="#9FCD00" d="M334.557 379.394c-5.089 1.828-7.625 11.243-7.47 16.072.017.414.983 6.915 1.07 6.863 0 0 .086-.034.103-.052-.414 1.483-.828 3.087-1.259 4.829-.759 3.242-1.605 6.915-2.243 10.967-.656 4.053-1.242 8.467-1.432 13.192-.207 4.725-.19 9.709.5 14.83 0 .052.018.121.035.173-.673-1.432-2.674-5.398-2.847-5.674-2.657-4.035-10.144-10.277-15.355-8.846-3.761 1.035-5.365 5.156-4.02 8.639 1.381 3.553 5.521 5.777 9.006 6.76 3.917 1.121 12.646-.207 13.337-.31.707 4.88 1.811 9.829 3.209 14.761.793 2.828 1.69 5.656 2.622 8.467-.621-1.224-1.173-2.311-1.277-2.466-2.657-4.035-10.144-10.278-15.355-8.846-3.761 1.034-5.365 5.156-4.019 8.639 1.38 3.553 5.52 5.777 9.005 6.76 3.52 1 10.99.034 12.957-.259.362 1.087.725 2.156 1.104 3.242 1.795 5.174 3.589 10.312 5.211 15.417.569 1.793 1.069 3.587 1.57 5.38-.552-1.086-1.018-2-1.105-2.121-2.656-4.035-10.144-10.278-15.354-8.846-3.762 1.034-5.366 5.156-4.02 8.639 1.38 3.552 5.521 5.777 9.006 6.76 3.364.948 10.248.121 12.594-.207.466 1.845.914 3.707 1.277 5.518.224 1.242.517 2.432.673 3.69.172 1.242.345 2.484.517 3.691.242 2.362.518 4.794.69 7.104.138 1.604.242 3.139.345 4.691-.552-1.793-1.69-5.294-1.811-5.57-1.329-2.914-4.641-7.105-8.281-9.415-.19-.432-.432-.845-.691-1.242-2.139-3.052-6.469-4.018-9.42-1.466-4.088 3.535-3.07 13.227-1.19 17.676.104.258 1.639 2.966 2.622 4.673-.724-.914-1.432-1.794-2.208-2.725-1.501-1.845-3.054-3.638-4.727-5.57-.828-.896-1.674-1.828-2.536-2.742-.828-.931-1.812-1.81-2.726-2.741-2.157-2.087-4.451-4.105-6.815-6.088 1.605-1.327 7.246-6.087 8.885-9.329 1.622-3.225 2.778-7.777 1.087-11.209-1.656-3.345-5.78-4.949-9.075-2.88-4.589 2.88-5.038 12.606-3.847 17.297.069.293 1.311 3.552 2.018 5.328-1.432-1.173-2.846-2.362-4.33-3.501-4.279-3.31-8.713-6.518-13.112-9.743-1.346-.983-2.691-1.983-4.02-2.983.587-.465 7.419-5.984 9.23-9.605 1.622-3.225 2.778-7.777 1.087-11.209-1.656-3.345-5.779-4.949-9.075-2.88-4.589 2.88-5.038 12.606-3.847 17.296.086.345 1.863 5.053 2.381 6.208-2.95-2.19-5.866-4.397-8.644-6.708-3.847-3.173-7.453-6.484-10.696-9.95.276-.207 7.418-5.949 9.281-9.657 1.622-3.224 2.778-7.777 1.087-11.208-1.656-3.346-5.779-4.95-9.074-2.88-4.59 2.88-5.038 12.605-3.848 17.296.086.31 1.432 3.88 2.105 5.57-.138.086-.121.069-.259.155-3.433-3.759-6.297-7.846-8.781-11.795-1.45-2.276-2.692-4.553-3.865-6.777 1.449-.931 7.988-5.26 10.041-8.415 1.967-3.035 3.623-7.433 2.312-11.02-1.277-3.517-5.21-5.552-8.713-3.862-4.865 2.345-6.4 11.985-5.728 16.761.035.259.691 2.863 1.208 4.76-.517-1.018-1.052-2.052-1.535-3.035-1.777-3.673-3.175-7.157-4.4-10.261-.673-1.759-1.259-3.38-1.777-4.88.932-1.655 4.641-8.346 4.986-12.037.345-3.586-.207-8.26-3.019-10.846-2.76-2.535-7.177-2.535-9.506.586-3.244 4.328-.155 13.589 2.639 17.52.242.345 4.624 5.225 4.676 5.139 0 0 .052-.086.052-.103.483 1.465 1 3.035 1.621 4.725 1.156 3.121 2.485 6.639 4.193 10.381 1.691 3.742 3.64 7.743 6.073 11.795 2.432 4.052 5.193 8.191 8.609 12.088.034.052.086.087.121.121-1.346-.828-5.193-3.035-5.521-3.156-4.434-1.914-14.13-2.983-17.701 1.087-2.571 2.931-1.64 7.26 1.414 9.415 3.123 2.207 7.798 1.776 11.249.69 3.882-1.224 10.438-7.139 10.955-7.605 3.278 3.69 6.936 7.191 10.835 10.554 2.226 1.914 4.537 3.776 6.867 5.621-1.191-.672-2.26-1.276-2.416-1.345-4.434-1.914-14.13-2.983-17.701 1.087-2.571 2.931-1.639 7.26 1.415 9.415 3.122 2.207 7.798 1.776 11.231.69 3.485-1.104 9.179-6.036 10.662-7.346.897.69 1.795 1.397 2.692 2.086 4.347 3.329 8.695 6.622 12.853 9.985 1.466 1.19 2.864 2.414 4.279 3.621-1.053-.603-1.95-1.103-2.105-1.172-4.434-1.914-14.13-2.984-17.684 1.086-2.571 2.932-1.639 7.26 1.415 9.415 3.122 2.208 7.798 1.777 11.231.69 3.33-1.052 8.626-5.552 10.386-7.122 1.398 1.294 2.812 2.57 4.106 3.898.863.914 1.777 1.741 2.588 2.707.828.948 1.656 1.88 2.467 2.794 1.501 1.845 3.071 3.724 4.503 5.552 1.001 1.259 1.933 2.483 2.881 3.725-1.449-1.19-4.33-3.483-4.589-3.639-4.106-2.552-13.526-5.087-17.649-1.603-2.985 2.517-2.709 6.932-.017 9.519 2.743 2.655 7.435 2.931 11.007 2.379 3.916-.62 11.024-5.242 11.904-5.828 1.553 2.035 3.037 4.035 4.417 5.949 4.779 6.605 8.505 12.295 11.059 16.296l.258.414 3.313-1.604c-.173-.259-.345-.517-.518-.793-2.674-4.001-6.556-9.657-11.542-16.21-1.57-2.086-3.278-4.259-5.072-6.501.466-.5 3.054-3.38 5.141-6.363 3.796 1.483 11.715 1.552 12.733 1.552.172 2.552.31 5.052.397 7.398.345 8.139.31 14.951.241 19.693 0 .19 0 .362-.017.552l3.64-1.759c-.034-4.725-.172-11.106-.655-18.659-.156-2.604-.38-5.363-.639-8.208 1.001-.259 9.23-2.363 12.353-4.846 2.812-2.259 5.78-5.897 5.676-9.708-.103-3.742-3.174-6.915-7.039-6.415-5.365.689-9.868 9.346-10.748 14.088-.052.276-.276 3.38-.397 5.346-.103-1.155-.207-2.293-.328-3.483-.241-2.363-.552-4.708-.862-7.243-.19-1.224-.397-2.449-.604-3.69-.173-1.242-.518-2.518-.777-3.794-.655-2.931-1.449-5.88-2.329-8.829 2.071-.207 9.403-1.069 12.543-2.88 3.123-1.793 6.608-4.949 7.091-8.743.466-3.707-2.088-7.311-5.987-7.415-5.4-.138-11.162 7.743-12.767 12.295-.103.276-.88 3.691-1.259 5.553-.535-1.776-1.07-3.535-1.674-5.311-1.742-5.122-3.675-10.243-5.555-15.348-.587-1.569-1.139-3.138-1.708-4.707.742-.069 9.489-.897 13.008-2.932 3.123-1.793 6.608-4.949 7.091-8.743.466-3.707-2.087-7.312-5.986-7.415-5.401-.138-11.163 7.743-12.767 12.295-.121.345-1.225 5.243-1.45 6.501-1.242-3.448-2.467-6.915-3.519-10.364-1.467-4.759-2.64-9.518-3.434-14.209.346-.034 9.472-.862 13.078-2.931 3.123-1.794 6.608-4.95 7.091-8.743.466-3.708-2.088-7.312-5.987-7.415-5.4-.138-11.162 7.742-12.767 12.295-.103.293-.949 4.018-1.311 5.811h-.311c-.793-5.035-.931-10.019-.81-14.675.051-2.707.258-5.277.517-7.794 1.725.017 9.558.017 13.009-1.483 3.312-1.449 7.125-4.208 8.005-7.915.88-3.639-1.277-7.502-5.141-8.019-5.366-.724-11.957 6.467-14.027 10.829-.121.242-1 2.777-1.622 4.622.139-1.121.242-2.294.397-3.38.552-4.053 1.294-7.726 1.984-10.985.414-1.845.811-3.5 1.208-5.052 1.691-.863 8.471-4.415 10.8-7.278 2.26-2.81 4.382-7.001 3.451-10.708-.915-3.518-4.607-5.967-8.282-4.639z"/>
        <path fill="#C6FF00" d="M356.982 487.738c-4.227-.173-12.68-4.501-12.68-4.501-.087-.052 4.554-4.69 4.882-4.966 3.778-3.018 12.853-6.605 17.356-3.622 3.244 2.156 3.485 6.571 1.122 9.45-2.433 2.966-7.074 3.777-10.68 3.639z"/>
        <path fill="#fff" d="M356.982 487.738c-4.227-.173-12.68-4.501-12.68-4.501-.087-.052 4.554-4.69 4.882-4.966 3.778-3.018 12.853-6.605 17.356-3.622 3.244 2.156 3.485 6.571 1.122 9.45-2.433 2.966-7.074 3.777-10.68 3.639z" opacity=".5"/>
    </g>
    <path fill="#263238" stroke="#263238" stroke-linecap="round" stroke-linejoin="round" stroke-miterlimit="10" d="M134.043 156.504s2.415-4.449 2.415-12.158c0-7.708-9.351-12.174-20.306-13.399-10.973-1.224-15.838 3.242-14.216 6.088 1.621 2.845 6.09 6.087 6.09 6.087s-10.973-6.087-18.288-1.224c-7.315 4.88 3.243 2.845 1.225 7.708-2.036 4.88-13.405 2.845-16.252 15.83-2.847 12.985 5.28 25.988-2.036 31.678-7.315 5.691-29.243-2.035-35.747 12.175-6.505 14.209 2.691 20.503-12.75 29.436-15.441 8.933-26.655 17.658-22.187 39.593 4.468 21.918 19.099 29.643 47.928 21.918 28.846-7.708 26.81-25.177 36.161-43.042 9.351-17.865 23.964-14.21 28.433-24.367 4.468-10.156-1.225-22.331-.811-31.678.414-9.346 9.748-11.364 13.405-22.331 3.658-10.916 6.936-22.314 6.936-22.314z"/>
    <path stroke="#fff" stroke-linecap="round" stroke-linejoin="round" stroke-miterlimit="10" stroke-width=".5" d="M5.355 278.008c-.724 1.448-1.121 3.069-1.121 4.915M118.446 148.451s-5.089-5.864 4.693-3.122c12.301 3.449-2.139 17.659-7.712 20.521-11.145 5.725-25.879 3.897-34.54 14.261-7.815 9.381 2.743 19.159-1.95 26.591-4.692 7.433-23.463 3.121-29.726 12.123-6.262 8.984 11.335 28.143-6.642 38.696-13.008 7.64-27.259 10.571-34.143 16.624"/>
    <path stroke="#fff" stroke-linecap="round" stroke-linejoin="round" stroke-miterlimit="10" stroke-width=".5" d="M89.272 183.146c-.949 2.57-1.518 5.398-.931 7.916 1.57 6.639 10.558 19.158 2.346 26.194-8.212 7.036-22.29 6.639-24.637 14.847-2.346 8.209 2.346 30.885-5.469 41.439-7.816 10.553-23.084 9.777-31.296 16.813-8.213 7.036-7.04 10.95-7.04 10.95M93.413 175.421s-.915 1.224-1.984 3.121"/>
    <path fill="#fff" stroke="#263238" stroke-linecap="round" stroke-linejoin="round" stroke-miterlimit="10" d="M139.305 277.387l2.001 15.537s10.369 10.364 17.943 16.745c7.574 6.38 27.121 19.934 27.121 19.934l-9.972 2.794s-32.297-19.142-38.68-20.728c-6.384-1.587-11.163-10.761-13.164-13.554-2.001-2.794 9.558-23.522 14.751-20.728z"/>
    <path fill="#fff" stroke="#263238" stroke-linecap="round" stroke-linejoin="round" stroke-miterlimit="10" d="M107.922 196.614s1.881 12.658-.535 17.762c-2.415 5.121-9.972 5.656-16.424 6.725-6.47 1.069-21.273 6.726-19.65 21.263 1.62 14.537 20.202 46.025 20.202 54.906s-5.659 13.45-11.853 30.678c-6.193 17.227-5.382 49.267-3.502 69.977 1.88 20.728 8.074 40.37 8.074 40.37s-8.483 12.478-15.229 23.238c7 7.001 10 10.001 20.501 18.002 0 0-.424-.337 8.186-9.752 8.626-9.416 16.7-25.832 17.77-33.385 1.069-7.536-.276-53.561-.276-53.561s9.696 23.142 17.235 34.988c7.54 11.847 12.646 22.349 12.646 22.349s-1.863 15.882.018 29.333c1.88 13.451-.455 39.03 1.426 42.53 8.5 3.5 10 4 13.501 5.501 0 0 3.636-32.408 5.534-47.755 1.881-15.348 5.124-28.54 4.037-32.023-1.069-3.501-7.815-40.921-12.922-58.683-5.124-17.761-20.738-50.871-24.24-59.493-3.502-8.605-5.383-16.417-4.848-19.107.535-2.69 11.042-18.848 13.733-23.142 2.692-4.311 3.779-12.105.535-19.107-3.226-7.001 0-16.416-.535-22.072-.535-5.657-8.885-8.071-13.198-10.226-4.313-2.156-5.918-7.002-5.918-11.037 0-4.035 2.416-9.691 2.416-9.691s-13.181-8.588-16.684-8.588z"/>
    <path stroke="#263238" stroke-linecap="round" stroke-linejoin="round" stroke-miterlimit="10" d="M140.564 254.193s-3.053-8.001-3.536-11.053M105.593 284.164s4.883 1.087 14.63-3.794"/>
    <path fill="#263238" stroke="#263238" stroke-linecap="round" stroke-linejoin="round" stroke-miterlimit="10" d="M155.661 380.344c-4.882-16.985-19.375-47.956-23.688-58.182-20.755 7.76-40.06 1.138-49.153-3.139-1.328 2.863-2.726 6.156-4.175 10.174-6.194 17.228-5.383 49.268-3.502 69.978 1.88 20.728 8.074 40.369 8.074 40.369s-7.466 11.229-14.212 21.989c6 6.501 20.002 17.834 21.002 16.734 5-5.5 4.091-4.407 6-7.5 8.626-9.416 17.368-25.566 18.437-33.119 1.07-7.536-.276-53.562-.276-53.562s9.696 23.142 17.236 34.989c7.539 11.847 12.646 22.349 12.646 22.349s-1.863 15.882.017 29.333c1.881 13.451-.437 39.012 1.444 42.513 4.5 2 7.607 3.056 13.501 5.5 0 0 3.619-32.39 5.517-47.737 1.88-15.348 5.124-28.54 4.037-32.023-1.052-3.484-7.781-40.904-12.905-58.666z"/>
    <path fill="#8F489A" stroke="#263238" stroke-linecap="round" stroke-linejoin="round" stroke-miterlimit="10" d="M262.144 362.023v-3.518h2.95v-27.626h-35.023v27.626h2.95v3.518h-2.967v6.415h11.369v-2.156h12.319v2.156h11.352v-6.415h-2.95z"/>
    <path fill="#8F489A" stroke="#263238" stroke-linecap="round" stroke-linejoin="round" stroke-miterlimit="10" d="M277.085 334.949H73.918v-12.33h203.167c1.708 0 3.071 1.38 3.071 3.07v6.173c0 1.707-1.381 3.087-3.071 3.087z"/>
    <path fill="#8F489A" stroke="#263238" stroke-linecap="round" stroke-linejoin="round" stroke-miterlimit="10" d="M219.754 336.794h-12.387c-.949 0-1.708-.759-1.708-1.707v-12.623c0-.949.759-1.707 1.708-1.707h12.387c.949 0 1.708.758 1.708 1.707v12.623c-.017.948-.776 1.707-1.708 1.707zM80.28 333.962c2.862-17.473-8.989-33.957-26.47-36.818-17.481-2.861-33.973 8.984-36.836 26.457-2.862 17.473 8.989 33.957 26.47 36.818 17.481 2.861 33.973-8.984 36.835-26.457z"/>
    <path fill="#fff" stroke="#263238" stroke-linecap="round" stroke-linejoin="round" stroke-miterlimit="10" d="M55.215 328.775c3.796-1.983 6.367-5.621 6.367-9.795 0-6.294-5.797-11.398-12.957-11.398-7.16 0-12.957 5.104-12.957 11.398 0 4.174 2.553 7.812 6.366 9.795-3.795 1.983-6.366 5.622-6.366 9.795 0 6.294 5.797 11.399 12.957 11.399 7.16 0 12.957-5.105 12.957-11.399 0-4.156-2.571-7.794-6.367-9.795zM180.021 335.208s10.024 4.224 13.147 4.224c3.122 0 6.676-3.121 8.471-6.897 1.777-3.794 1.777-5.57.673-4.674-1.122.897-2.226 1.777-2.226 1.777s1.777-3.794-.224-3.346c-2.002.449-3.123 2.673-3.123 2.673s-.224-3.345-2.001-1.776c-1.777 1.552-3.123 3.569-3.123 3.569s-.224-4.224-1.329-3.121c-1.121 1.121-5.348 7.122-5.348 7.122l-4.917.449z"/>
    <path fill="#fff" d="M191.615 330.759s-.673 5.345-4.003 6.242l4.003-6.242z"/>
    <path stroke="#263238" stroke-linecap="round" stroke-linejoin="round" stroke-miterlimit="10" d="M191.615 330.759s-.673 5.345-4.003 6.242"/>
    <path fill="#fff" d="M196.739 328.982s-1.777 8.467-4.451 9.795l4.451-9.795z"/>
    <path stroke="#263238" stroke-linecap="round" stroke-linejoin="round" stroke-miterlimit="10" d="M196.739 328.982s-1.777 8.467-4.451 9.795"/>
    <path fill="#fff" d="M200.086 329.638s-2.001 6.673-3.571 8.915l3.571-8.915z"/>
    <path stroke="#263238" stroke-linecap="round" stroke-linejoin="round" stroke-miterlimit="10" d="M200.086 329.638s-2.001 6.673-3.571 8.915"/>
    <path fill="#fff" stroke="#263238" stroke-linecap="round" stroke-linejoin="round" stroke-miterlimit="10" d="M127.573 225.619c-3.864-2.293-5.365-6.846-5.365-10.691 0-4.036 2.415-9.692 2.415-9.692s-13.198-8.622-16.701-8.622c0 0 1.881 12.658-.535 17.762-.776 1.621-2.053 2.793-3.657 3.656 1.76 5.983 8.937 19.348 12.853 24.159 4.9 6.07 7.281-6.76 10.99-16.572z"/>
    <path fill="#fff" d="M86.84 222.86s-10.249 1.138-15.563 11.381c-5.313 10.244-28.518 56.735-26.551 59.511 11.283 15.865 52.327 27.281 56.502 31.454 4.175 4.173 9.506 9.157 13.681 11.812 4.176 2.656 12.526 1.518 14.044.759 1.518-.759 2.657-4.173 0-4.173s-4.02-1.914-4.399-3.432c-.38-1.517 4.175 1.518 6.452.38 2.278-1.139-5.089-5.294-7.367-7.191-2.277-1.897-4.175-4.553-7.211-4.553-3.037 0-8.73-.069-8.73-.069s-13.975-10.122-22.429-17.658c-11.386-10.157-21.41-15.624-21.41-15.624l25.62-42.128"/>
    <path stroke="#263238" stroke-linecap="round" stroke-linejoin="round" stroke-miterlimit="10" d="M86.84 222.86s-10.249 1.138-15.563 11.381c-5.313 10.244-28.518 56.735-26.551 59.511 11.283 15.865 52.327 27.281 56.502 31.454 4.175 4.173 9.506 9.157 13.681 11.812 4.176 2.656 12.526 1.518 14.044.759 1.518-.759 2.657-4.173 0-4.173s-4.02-1.914-4.399-3.432c-.38-1.517 4.175 1.518 6.452.38 2.278-1.139-5.089-5.294-7.367-7.191-2.277-1.897-4.175-4.553-7.211-4.553-3.037 0-8.73-.069-8.73-.069s-13.975-10.122-22.429-17.658c-11.386-10.157-21.41-15.624-21.41-15.624l25.62-42.128"/>
    <path fill="#fff" stroke="#263238" stroke-linecap="round" stroke-linejoin="round" stroke-miterlimit="10" d="M123.657 323.343c-2.278-1.897-4.176-4.552-7.212-4.552-3.037 0-8.73-.069-8.73-.069s-13.975-10.123-22.428-17.658c-11.387-10.157-21.41-15.624-21.41-15.624l10.247-16.848c-6.728-4.207-13.802-4.897-17.373-4.949-6.832 14.382-13.078 28.591-12.025 30.092 11.283 15.865 52.327 27.28 56.502 31.454 4.175 4.173 9.506 9.156 13.681 11.812 4.176 2.656 12.526 1.517 14.044.759 1.518-.759 2.657-4.173 0-4.173s-4.02-1.915-4.399-3.432c-.38-1.518 4.175 1.517 6.452.379s-5.089-5.294-7.349-7.191zM137.545 178.042c-1.346-2.69-1.346-4.846-.811-8.605.535-3.777-2.691-12.916-2.691-12.916s-.035.017-.052.034c-3.295 5.708-12.819 9.088-17.046 10.381-4.641 1.432 2.14 4.639 1.432 8.916-.707 4.276-9.989 6.777-9.989 6.777s-2.657-5.708-6.418-5.708c-3.778 0-6.435 8.622-4.279 13.192 2.157 4.57 6.746 3.535 6.746 3.535s-.276 8.07 4.848 10.502c5.124 2.414 13.733 5.656 16.959 6.191 3.227.534 6.47-1.069 7.816-5.915s2.157-14.813 2.157-14.813 4.848-3.225 6.193-5.122c1.329-1.879-3.519-3.759-4.865-6.449z"/>
    <path fill="#263238" d="M132.3 178.163c0 1.483-.483 2.673-1.07 2.673-.586 0-1.069-1.19-1.069-2.673s.483-2.673 1.069-2.673c.587 0 1.07 1.19 1.07 2.673z"/>
    <path stroke="#263238" stroke-linecap="round" stroke-linejoin="round" stroke-miterlimit="10" d="M127.659 173.714s2.847-3.208 5.003-2.501M132.662 195.821s-3.933 1.431-7.487-1.776"/>
    <path fill="#263238" d="M342.837 546.04c23.69 0 126.698-17.91 205.203-131.01V99.943c0-13.771-10.21-24.938-22.802-24.938H342.825c-12.592 0-22.802 11.167-22.802 24.938v421.159c.012 13.771 10.222 24.938 22.814 24.938z"/>
    <path fill="#8F489A" stroke="#263238" stroke-miterlimit="10" stroke-width="1.337" d="M331.024 127.009h206.015v303.022s-8.501 13.001-30.002 34.503c-21.502 21.501-35.003 29.502-35.003 29.502h-141.01V127.009z"/>
    <path fill="#263238" d="M472.416 325.596h-77.361c-4.089 0-7.402-3.043-7.402-6.802v-40.46c0-23.33 20.669-42.317 46.099-42.317 25.431 0 46.1 18.987 46.1 42.317v40.46c-.035 3.759-3.347 6.802-7.436 6.802zm-69.96-13.604h62.558v-33.658c0-15.841-14.026-28.713-31.279-28.713s-31.279 12.887-31.279 28.713v33.658z"/>
    <path fill="#fff" d="M487.443 297.994H380.028v86.156h107.415v-86.156z"/>
    <path fill="#263238" stroke="#263238" stroke-linecap="round" stroke-linejoin="round" stroke-miterlimit="10" d="M449.383 357.308l-7.97-16.251c3.381-2.106 5.589-5.661 5.589-9.698 0-6.465-5.71-11.716-12.749-11.716-7.039 0-12.75 5.251-12.75 11.716 0 4.037 2.226 7.592 5.59 9.698l-7.971 16.251h30.261z"/>
    <path fill="#fff" stroke="#263238" stroke-linecap="round" stroke-linejoin="round" stroke-miterlimit="10" stroke-width="1.337" d="M409.316 100.993h49.358c1.859 0 3.36-1.501 3.36-3.362 0-1.86-1.514-3.362-3.36-3.362h-49.358c-1.859 0-3.359 1.501-3.359 3.362 0 1.86 1.5 3.362 3.359 3.362z"/>
</svg>
