<svg xmlns="http://www.w3.org/2000/svg" width="609" height="495" fill="none" viewBox="0 0 609 495">
    <g clip-path="url(#prefix__clip0)">
        <path fill="#F29CFF" d="M518.099 94.906S455.083 12.005 333.811 1.022C212.539-9.96 179.117 69.937 137.106 110.892 95.096 151.847 7.246 181.804.564 280.692c-6.681 98.887 46.785 148.811 121.273 146.813 74.471-1.999 97.399 14.978 160.414 48.932 63.016 33.954 168.058 19.982 217.711-30.964 49.653-50.931 86.888-75.9 97.399-170.791 10.495-94.876-79.262-179.776-79.262-179.776z" opacity=".36"/>
        <path fill="#9FCD00" d="M437.322 324.955c.095-.013-3.141-5.892-3.394-6.224-2.86-4.01-10.743-10.082-16.002-8.407-3.798 1.198-5.266 5.457-3.766 8.959 1.538 3.573 5.867 5.674 9.448 6.549 4.183 1.013 13.699-.872 13.714-.877z"/>
        <path fill="#9FCD00" d="M434.207 279.591c-4.389 3.339-3.966 13.277-2.332 17.937.143.399 3.079 6.422 3.139 6.354 0 0 .061-.069.091-.078.053 1.577.14 3.258.259 5.093.247 3.389.566 7.215 1.182 11.358.617 4.143 1.391 8.63 2.644 13.279 1.243 4.668 2.8 9.5 5.047 14.278.034.055.068.11.082.155-1.086-1.202-4.256-4.424-4.525-4.651-3.827-3.114-13.027-6.898-17.668-3.89-3.347 2.157-3.634 6.667-1.253 9.629 2.439 3.042 7.155 3.92 10.841 3.825 4.152-.127 12.244-4.076 12.884-4.393 2.172 4.539 4.781 9.006 7.66 13.389 1.645 2.504 3.38 4.979 5.159 7.441-.975-1.007-1.863-1.893-1.995-1.999-3.827-3.114-13.022-6.883-17.668-3.89-3.347 2.157-3.634 6.667-1.253 9.629 2.439 3.042 7.155 3.92 10.841 3.825 3.73-.109 10.7-3.343 12.524-4.23.689.932 1.368 1.885 2.057 2.817 3.318 4.474 6.666 8.938 9.801 13.403 1.105 1.574 2.135 3.171 3.175 4.749-.873-.891-1.599-1.631-1.731-1.737-3.827-3.114-13.027-6.898-17.668-3.89-3.347 2.157-3.634 6.667-1.253 9.629 2.439 3.042 7.155 3.92 10.841 3.825 3.567-.107 10.026-3.032 12.199-4.062 1.015 1.651 2.034 3.318 2.949 4.968.591 1.144 1.253 2.2 1.774 3.383.546 1.158 1.103 2.297 1.644 3.441.966 2.225 1.969 4.521 2.856 6.706.629 1.526 1.201 2.972 1.767 4.453-1.09-1.578-3.272-4.636-3.476-4.867-2.197-2.429-6.698-5.494-10.949-6.617-.326-.357-.678-.69-1.05-.983-3.031-2.313-7.525-1.914-9.618 1.457-2.908 4.696 1.073 13.824 4.274 17.562.185.221 2.5 2.398 3.99 3.735-.996-.655-1.942-1.309-2.973-1.97-2.031-1.331-4.092-2.602-6.301-3.976-1.086-.626-2.191-1.264-3.311-1.896-1.095-.657-2.321-1.206-3.501-1.82-2.749-1.367-5.594-2.622-8.505-3.823 1.164-1.78 5.191-8.143 5.781-11.796.58-3.633.316-8.43-2.38-11.243-2.642-2.748-7.14-3.038-9.718-.006-3.574 4.2-1.034 13.815 1.555 18.009.164.26 2.36 3.05 3.594 4.567-1.753-.712-3.492-1.429-5.291-2.077-5.17-1.901-10.477-3.661-15.758-5.445-1.618-.541-3.225-1.102-4.832-1.663.427-.627 5.369-8.101 6.035-12.188.58-3.634.317-8.43-2.379-11.243-2.643-2.748-7.14-3.038-9.719-.007-3.574 4.2-1.034 13.815 1.555 18.009.198.316 3.36 4.346 4.227 5.321-3.545-1.231-7.065-2.487-10.478-3.874-4.724-1.894-9.241-4.018-13.481-6.41.203-.294 5.397-8.061 6.081-12.252.58-3.633.316-8.43-2.38-11.243-2.642-2.748-7.14-3.038-9.718-.006-3.574 4.2-1.034 13.814 1.555 18.009.169.275 2.583 3.341 3.759 4.777-.106.132-.096.113-.202.245-4.504-2.604-8.539-5.702-12.173-8.778-2.108-1.782-4.027-3.592-5.847-5.4 1.118-1.355 6.163-7.563 7.181-11.269.985-3.547 1.232-8.341-1.137-11.421-2.321-3.03-6.771-3.795-9.662-1.076-4.018 3.782-2.543 13.617-.429 18.076.11.245 1.55 2.567 2.628 4.265-.805-.831-1.664-1.677-2.429-2.487-2.866-3.039-5.292-5.987-7.425-8.633-1.2-1.51-2.264-2.9-3.234-4.204.403-1.901 1.951-9.553 1.164-13.248-.774-3.6-2.746-7.973-6.274-9.62-3.454-1.621-7.76-.262-9.076 3.488-1.826 5.209 4.022 13.271 7.95 16.238.343.253 6.119 3.656 6.14 3.567 0 0 .021-.089.031-.109.912 1.273 1.901 2.637 3.022 4.107 2.083 2.694 4.464 5.706 7.269 8.813 2.79 3.112 5.924 6.428 9.527 9.613 3.606 3.199 7.571 6.384 12.083 9.117l.157.082c-1.57-.392-5.982-1.349-6.339-1.384-4.906-.49-14.671 1.441-16.89 6.495-1.597 3.641.644 7.567 4.265 8.725 3.714 1.194 8.138-.678 11.152-2.795 3.391-2.384 7.961-10.151 8.323-10.775 4.317 2.581 8.955 4.881 13.78 6.94 2.758 1.184 5.571 2.284 8.409 3.36-1.358-.294-2.589-.547-2.762-.574-4.906-.49-14.671 1.441-16.89 6.495-1.597 3.642.644 7.568 4.265 8.725 3.714 1.195 8.138-.678 11.152-2.795 3.055-2.147 7.074-8.689 8.119-10.431 1.095.394 2.179.808 3.273 1.202 5.25 1.892 10.495 3.77 15.579 5.764 1.799.698 3.536 1.464 5.27 2.215-1.216-.257-2.239-.477-2.407-.489-4.906-.49-14.671 1.441-16.891 6.495-1.596 3.641.645 7.567 4.266 8.725 3.714 1.194 8.138-.678 11.152-2.795 2.92-2.055 6.682-8.056 7.936-10.127 1.756.826 3.528 1.647 5.2 2.516 1.135.628 2.252 1.146 3.356 1.833 1.095.657 2.19 1.313 3.265 1.96 2.031 1.331 4.132 2.672 6.088 4.027 1.358.918 2.648 1.826 3.937 2.734-1.773-.722-5.287-2.062-5.588-2.131-4.775-1.221-14.719-.795-17.671 3.866-2.127 3.366-.52 7.574 2.893 9.273 3.492 1.741 8.137.571 11.437-1.061 3.624-1.801 9.128-8.482 9.801-9.319 2.137 1.511 4.2 2.996 6.116 4.429 6.677 4.958 12.055 9.34 15.767 12.457.132.106.249.217.381.323l2.72-2.583c-.244-.202-.484-.389-.749-.601-3.827-3.064-9.349-7.385-16.207-12.237-2.161-1.536-4.51-3.144-6.928-4.764.293-.634 1.938-4.226 3.043-7.761 4.15.284 11.884-2.09 12.871-2.402.947 2.429 1.85 4.822 2.661 7.08 2.832 7.83 4.901 14.44 6.272 19.1.062.194.113.359.155.543l3.002-2.837c-1.477-4.577-3.588-10.746-6.371-17.952-.946-2.478-2.023-5.111-3.135-7.8.912-.551 8.261-5.136 10.532-8.515 2.044-3.059 3.827-7.516 2.549-11.203-1.235-3.603-5.217-5.748-8.819-4.086-5.006 2.319-6.733 12.113-6.139 17.019.04.283.768 3.372 1.267 5.318-.463-1.103-.897-2.165-1.399-3.288-.951-2.23-1.971-4.422-3.063-6.789-.567-1.119-1.138-2.253-1.714-3.402-.542-1.143-1.267-2.295-1.912-3.455-1.529-2.656-3.226-5.274-4.984-7.874 1.953-.846 8.821-3.933 11.33-6.664 2.499-2.71 4.907-6.854 4.211-10.676-.692-3.758-4.277-6.471-8.104-5.363-5.305 1.526-8.494 10.961-8.649 15.889 0 .312.279 3.855.48 5.796-1.065-1.553-2.131-3.107-3.261-4.656-3.259-4.443-6.717-8.839-10.126-13.235-1.049-1.344-2.068-2.699-3.102-4.048.698-.286 8.947-3.792 11.749-6.845 2.499-2.711 4.907-6.855 4.226-10.681-.688-3.743-4.278-6.471-8.104-5.363-5.306 1.526-8.494 10.96-8.649 15.889-.016.366.411 5.472.588 6.764-2.272-2.98-4.514-5.969-6.606-9.006-2.882-4.184-5.494-8.453-7.695-12.77.32-.133 8.962-3.747 11.824-6.868 2.499-2.71 4.907-6.855 4.221-10.696-.687-3.743-4.277-6.471-8.103-5.363-5.306 1.526-8.495 10.961-8.65 15.889-.015.317.308 4.207.496 6.054-.164.052-.134.042-.304.079-2.323-4.656-3.97-9.459-5.299-14.035-.769-2.648-1.367-5.22-1.881-7.736 1.679-.513 9.32-2.924 12.207-5.445 2.772-2.418 5.631-6.278 5.363-10.152-.265-3.811-3.542-6.901-7.455-6.225-5.44.944-9.648 9.961-10.343 14.846-.034.257-.119 3.011-.151 4.993-.215-1.148-.468-2.317-.649-3.41-.706-4.115-1.1-7.917-1.426-11.297-.162-1.92-.283-3.657-.37-5.289 1.381-1.355 6.901-6.892 8.277-10.398 1.35-3.433 2.112-8.158.074-11.491-1.931-3.203-6.269-4.446-9.437-2.034z"/>
        <path fill="#9FCD00" d="M364.607 390.727c4.075-1.466 10.97-8.275 10.965-8.29.076-.073-5.868-3.176-6.262-3.33-4.603-1.769-14.528-2.482-18.004 1.819-2.495 3.087-1.377 7.466 1.812 9.548 3.267 2.124 8.033 1.491 11.489.253zM240.861 309.403c.067.068 2.828-6.049 2.941-6.45 1.491-4.694 1.617-14.645-2.88-17.845-3.237-2.319-7.525-.937-9.426 2.365-1.935 3.374-1.017 8.098.432 11.487 1.701 3.954 8.92 10.434 8.933 10.443z"/>
        <path fill="#9FCD00" d="M275.276 279.684c-5.305-1.506-13 4.797-15.746 8.901-.234.353-3.289 6.316-3.198 6.324 0 0 .091.007.116.026-1.229.989-2.522 2.067-3.919 3.264-2.562 2.231-5.43 4.783-8.374 7.762-2.944 2.98-6.068 6.293-9.034 10.085-2.989 3.796-5.919 7.941-8.392 12.607-.024.06-.047.12-.075.158.31-1.59.984-6.06 1.005-6.411.193-4.93-2.302-14.56-7.493-16.466-3.735-1.383-7.514 1.094-8.454 4.776-.969 3.777 1.159 8.077 3.447 10.968 2.594 3.245 10.609 7.347 11.247 7.668-2.327 4.462-4.334 9.23-6.111 14.163-1.016 2.818-1.955 5.692-2.856 8.593.22-1.385.396-2.627.401-2.796.194-4.93-2.31-14.547-7.493-16.466-3.734-1.383-7.514 1.094-8.453 4.776-.969 3.777 1.159 8.076 3.447 10.967 2.326 2.919 9.096 6.553 10.901 7.479-.333 1.111-.687 2.225-1.02 3.336-1.586 5.339-3.147 10.697-4.837 15.884-.596 1.829-1.255 3.611-1.893 5.39.189-1.233.345-2.258.35-2.428.194-4.929-2.301-14.56-7.493-16.466-3.734-1.383-7.514 1.095-8.454 4.777-.969 3.777 1.16 8.076 3.447 10.967 2.227 2.789 8.443 6.2 10.572 7.32-.712 1.802-1.434 3.617-2.204 5.34-.561 1.159-1.008 2.323-1.641 3.449-.599 1.133-1.176 2.261-1.765 3.381-1.201 2.108-2.435 4.288-3.651 6.309-.843 1.419-1.656 2.744-2.501 4.086.608-1.819 1.745-5.399 1.807-5.702.624-3.214.374-8.654-1.279-12.729.09-.475.145-.956.156-1.43.031-3.813-2.986-7.167-6.938-6.818-5.502.492-10.413 9.155-11.482 13.959-.065.281-.418 3.439-.593 5.434-.074-1.19-.118-2.34-.208-3.56-.155-2.424-.375-4.836-.602-7.427-.15-1.245-.304-2.511-.471-3.786-.132-1.27-.427-2.581-.645-3.893-.557-3.019-1.261-6.048-2.047-9.097 2.123-.137 9.629-.736 12.905-2.457 3.254-1.716 6.932-4.806 7.564-8.651.612-3.763-1.855-7.534-5.828-7.777-5.504-.338-11.67 7.465-13.471 12.053-.109.287-1.024 3.718-1.495 5.616-.484-1.83-.954-3.651-1.515-5.479-1.583-5.276-3.36-10.577-5.103-15.872-.538-1.618-1.054-3.241-1.57-4.863.758-.035 9.702-.568 13.372-2.488 3.254-1.717 6.932-4.806 7.564-8.651.612-3.763-1.856-7.534-5.828-7.777-5.504-.338-11.67 7.464-13.471 12.052-.133.348-1.459 5.296-1.719 6.574-1.143-3.574-2.251-7.143-3.19-10.706-1.321-4.915-2.333-9.803-2.965-14.63.357-.014 9.688-.521 13.45-2.49 3.255-1.716 6.933-4.806 7.565-8.651.612-3.763-1.856-7.534-5.828-7.777-5.505-.338-11.671 7.464-13.471 12.053-.119.3-1.123 4.071-1.565 5.874-.17-.005-.148-.009-.317-.015-.621-5.165-.565-10.252-.286-15.005.161-2.756.457-5.377.811-7.918 1.754.081 9.748.391 13.323-1.02 3.428-1.341 7.411-4.02 8.452-7.764 1.031-3.675-1.028-7.693-4.938-8.373-5.436-.945-12.418 6.138-14.716 10.505-.129.235-1.123 2.781-1.834 4.662.182-1.142.343-2.337.532-3.436.711-4.116 1.612-7.825 2.448-11.12.488-1.866.962-3.551 1.422-5.11 1.763-.819 8.812-4.173 11.295-7.02 2.415-2.78 4.729-6.981 3.929-10.792-.777-3.736-4.448-6.365-8.237-5.166-5.262 1.666-8.201 11.182-8.216 16.105.003.426.748 7.088.832 7.051 0 0 .084-.036.105-.04-.471 1.494-.968 3.103-1.471 4.882-.905 3.284-1.885 6.995-2.686 11.104-.815 4.1-1.586 8.596-1.971 13.389-.394 4.805-.563 9.888-.041 15.137l.029.175c-.629-1.491-2.511-5.595-2.697-5.901-2.553-4.218-9.958-10.87-15.333-9.612-3.871.909-5.666 5.058-4.419 8.649 1.274 3.687 5.427 6.102 8.93 7.243 3.942 1.281 12.897.274 13.613.19.526 5.001 1.471 10.091 2.72 15.187.708 2.916 1.517 5.827 2.36 8.743-.581-1.264-1.117-2.4-1.199-2.554-2.553-4.218-9.958-10.87-15.333-9.612-3.871.909-5.666 5.058-4.419 8.649 1.274 3.687 5.427 6.102 8.93 7.242 3.55 1.155 11.195.444 13.216.233.342 1.112.661 2.228 1.003 3.34 1.637 5.335 3.283 10.657 4.74 15.92.521 1.858.952 3.707 1.391 5.544-.524-1.126-.962-2.076-1.053-2.218-2.553-4.218-9.958-10.87-15.333-9.612-3.871.909-5.666 5.058-4.419 8.649 1.274 3.687 5.427 6.102 8.93 7.242 3.395 1.102 10.453.51 12.862.269.394 1.901.801 3.811 1.109 5.67.179 1.284.435 2.489.548 3.785l.393 3.788c.154 2.423.341 4.908.432 7.286.081 1.638.129 3.214.176 4.79-.486-1.852-1.524-5.466-1.649-5.749-1.889-4.552-8.198-12.25-13.698-11.813-3.969.318-6.371 4.129-5.681 7.879.703 3.838 4.427 6.852 7.713 8.511 3.615 1.818 12.263 2.21 13.336 2.246.075 2.617.125 5.158.128 7.55.042 8.317-.235 15.248-.5 20.089-.006.169-.024.329-.03.499l3.699.625c.015-.317.02-.621.032-.96.153-4.901.294-11.911.059-20.308-.068-2.651-.191-5.495-.347-8.401.683-.146 4.543-.986 8.034-2.225 2.264 3.491 8.805 8.252 9.646 8.854-1.374 2.215-2.746 4.374-4.065 6.378-4.564 6.965-8.609 12.586-11.513 16.481-.119.165-.219.305-.341.449l4.07.699c2.775-3.93 6.442-9.32 10.535-15.871 1.415-2.244 2.874-4.686 4.358-7.189.987.399 9.066 3.524 13.132 3.314 3.673-.202 8.308-1.45 10.491-4.686 2.14-3.15 1.466-7.622-2.026-9.506-4.859-2.612-13.73 1.885-17.297 5.304-.202.202-2.236 2.639-3.493 4.205.604-1.032 1.193-2.017 1.79-3.092 1.214-2.099 2.354-4.231 3.592-6.524.555-1.125 1.119-2.263 1.692-3.413.59-1.12 1.076-2.391 1.616-3.603 1.207-2.817 2.283-5.747 3.308-8.713 1.848 1.054 8.44 4.695 12.129 5.063 3.668.372 8.428-.189 11.067-3.04 2.59-2.809 2.609-7.305-.574-9.7-4.405-3.328-13.865-.216-17.9 2.618-.25.187-2.916 2.537-4.348 3.863.603-1.784 1.206-3.569 1.767-5.403 1.597-5.273 3.038-10.678 4.508-16.043.446-1.646.918-3.274 1.376-4.911.649.387 8.404 4.881 12.527 5.289 3.668.372 8.428-.189 11.08-3.031 2.581-2.796 2.609-7.305-.575-9.7-4.405-3.328-13.865-.216-17.9 2.618-.302.207-4.13 3.614-5.057 4.531 1.02-3.606 2.066-7.193 3.239-10.689 1.617-4.817 3.463-9.469 5.595-13.819.299.175 8.376 4.918 12.591 5.335 3.667.372 8.428-.19 11.089-3.044 2.581-2.796 2.608-7.305-.575-9.7-4.405-3.328-13.865-.216-17.9 2.618-.262.178-3.18 2.771-4.544 4.03-.141-.1-.115-.082-.246-.195 2.329-4.653 5.183-8.854 8.045-12.662 1.657-2.206 3.355-4.227 5.059-6.148 1.418 1.035 7.932 5.699 11.681 6.496 3.599.765 8.402.736 11.34-1.805 2.888-2.498 3.393-6.974.504-9.698-4.02-3.785-13.758-1.739-18.082.637-.226.127-2.48 1.712-4.085 2.876.79-.861 1.573-1.765 2.339-2.565 2.867-3.035 5.672-5.632 8.179-7.922 1.439-1.282 2.756-2.42 4.009-3.47 1.913.291 9.654 1.383 13.285.38 3.556-.981 7.793-3.208 9.236-6.838 1.402-3.467-.207-7.683-4.038-8.769z"/>
        <path fill="#9FCD00" d="M144.61 290.717c3.619 2.38 13.202 3.808 13.211 3.795.104.017-.981-6.6-1.094-7.008-1.348-4.742-6.734-13.109-12.261-13.309-3.967-.143-6.798 3.38-6.55 7.181.263 3.888 3.629 7.32 6.694 9.341z"/>
        <path fill="#fff" stroke="#263238" stroke-linecap="round" stroke-linejoin="round" stroke-miterlimit="10" d="M121.928 117.71l40.912 280.432c.534 3.691-94.699 37.874-98.268 38.972l-8.344.442c-5.4.137-9.214-2.12-9.824-6.757L7.276 133.695c-.427-3.233 1.831-6.193 5.065-6.65l102.906-14.338c3.219-.458 6.208 1.784 6.681 5.003z"/>
        <path fill="#263238" stroke="#263238" stroke-linecap="round" stroke-linejoin="round" stroke-miterlimit="10" d="M133.598 116.184l40.912 280.432c.534 3.692-1.693 7.23-5.263 8.313L67.882 436.031c-4.47 1.373-9.107-1.602-9.717-6.239L18.961 132.155c-.427-3.234 1.83-6.193 5.065-6.651l102.906-14.338c3.203-.442 6.193 1.785 6.666 5.018z"/>
        <path stroke="#fff" stroke-linecap="round" stroke-linejoin="round" stroke-miterlimit="10" stroke-width="2" d="M109.099 407.263l22.531-7.52"/>
        <path fill="#8F489A" stroke="#263238" stroke-linecap="round" stroke-linejoin="round" stroke-miterlimit="10" d="M125.681 123.552l-92.136 15.665L68.858 410.1l93.983-29.179-37.16-257.369z"/>
        <path fill="#fff" stroke="#263238" stroke-linecap="round" stroke-linejoin="round" stroke-miterlimit="10" d="M493.54 117.71l-40.912 280.432c-.534 3.691 94.699 37.874 98.268 38.972l8.344.442c5.4.137 9.214-2.12 9.824-6.757l39.128-297.104c.427-3.233-1.831-6.193-5.065-6.65l-102.906-14.338c-3.218-.458-6.208 1.784-6.681 5.003z"/>
        <path fill="#263238" stroke="#263238" stroke-linecap="round" stroke-linejoin="round" stroke-miterlimit="10" d="M481.87 116.184l-40.912 280.432c-.534 3.692 1.693 7.23 5.263 8.313l101.35 31.102c4.469 1.373 9.107-1.602 9.717-6.239l39.219-297.637c.427-3.234-1.831-6.193-5.065-6.651l-102.906-14.338c-3.203-.442-6.193 1.785-6.666 5.018z"/>
        <path stroke="#fff" stroke-linecap="round" stroke-linejoin="round" stroke-miterlimit="10" stroke-width="2" d="M479.567 397.608l21.463 6.97"/>
        <path fill="#8F489A" stroke="#263238" stroke-linecap="round" stroke-linejoin="round" stroke-miterlimit="10" d="M489.787 123.552l92.137 15.665L546.61 410.1l-93.982-29.179 37.159-257.369z"/>
        <path stroke="#263238" stroke-linecap="round" stroke-linejoin="round" stroke-miterlimit="10" d="M74.99 250.978c5.34-6.88 12.357-11.059 20.03-11.059 16.764 0 30.34 19.921 30.34 44.509 0 20.928-9.839 38.484-23.11 43.243M68.11 263.79c1.084-3.035 2.396-5.857 3.906-8.419M95.02 328.922c-16.765 0-30.341-19.921-30.341-44.509 0-5.491.67-10.739 1.922-15.604M529.952 246.402c-5.339-6.88-12.356-11.059-20.029-11.059-16.765 0-30.356 19.921-30.356 44.509 0 20.928 9.839 38.484 23.11 43.243M536.832 259.215c-1.083-3.036-2.395-5.858-3.905-8.42M509.938 324.346c16.765 0 30.341-19.921 30.341-44.509 0-5.491-.671-10.739-1.922-15.604"/>
        <path fill="#263238" stroke="#263238" stroke-linecap="round" stroke-linejoin="round" stroke-miterlimit="10" d="M475.052 131.239s12.6-18.121 32.857-12.279c20.273 5.842 30.707 19.662 29.182 34.092-1.541 14.429-5.217 31.635 4.912 35.311 10.129 3.691 25.185-1.541 33.483 10.128 8.299 11.669 11.67 29.79-.305 45.15s-38.395 19.341-58.348 7.367c-19.968-11.974-34.093-27.334-34.398-49.451-.305-22.117 6.147-32.245 4.606-44.845-1.54-12.584-4.911-13.514-4.911-13.514l-7.078-11.959z"/>
        <path stroke="#fff" stroke-linecap="round" stroke-linejoin="round" stroke-miterlimit="10" stroke-width=".75" d="M504.828 150.397c5.019 10.907-3.844 34.488-4.607 43.884-2.059 25.656 8.207 47.713 36.428 52.319 28.22 4.622 39.508-18.472 36.427-29.759-2.181-7.978-14.37-5.644-15.392 5.125-1.022 10.769 9.229 5.125 9.748 3.081M478.682 145.044s11.395-5.69 21.844.716M547.083 230.706c3.02-.961 4.973-2.044 4.973-2.044"/>
        <path stroke="#fff" stroke-linecap="round" stroke-linejoin="round" stroke-miterlimit="10" stroke-width=".75" d="M475.097 143s16.414-12.828 34.887-8.207c18.473 4.622 19.495 29.76 12.829 45.135-6.666 15.391-9.748 34.366 1.541 46.172 5.064 5.293 11.166 6.36 16.352 5.918"/>
        <path fill="#fff" d="M457.539 198.491s-13.82-2.456-20.578 1.236c-6.757 3.691-45.763 32.855-45.763 32.855l-33.163-25.183v16.275s23.034 27.639 29.792 29.485c6.758 1.846 54.062-24.268 54.062-24.268s-1.846 25.488 1.235 31.025c3.066 5.522 17.817 10.128 29.792 15.36 11.975 5.217 24.575 19.662 31.943 23.033 7.367 3.371 13.21 2.455 18.427-11.974 5.217-14.43-1.236-23.948-3.066-27.944-1.846-3.997-13.821-24.573-24.27-38.698-10.465-14.14-38.411-21.202-38.411-21.202z"/>
        <path fill="#8F489A" d="M504.539 284.032c-4.393-5.37 2.441-12.203 7.81-16.581 5.37-4.393-23.904-.976-25.368-3.416-1.464-2.441 6.346-6.834 10.739-10.739 4.393-3.905-12.89 4.286-22.927-1.464-10.038-5.751-16.094-3.905-16.094-3.905s10.74-14.628 13.18-23.414c2.441-8.786-1.464-10.25-1.464-10.25l-2.868-12.569c-5.766-2.12-9.976-3.203-9.976-3.203s-13.821-2.456-20.579 1.236c-6.757 3.691-45.763 32.855-45.763 32.855l-33.163-25.183v16.275s23.034 27.639 29.792 29.485c6.758 1.846 54.062-24.268 54.062-24.268s-1.846 25.488 1.235 31.025c3.066 5.522 17.817 10.128 29.792 15.36 11.975 5.217 24.575 19.662 31.943 23.033 5.995 2.745 10.983 2.654 15.437-5.247-4.836-2.99-12.997-5.614-15.788-9.03z" opacity=".1"/>
        <path stroke="#263238" stroke-linecap="round" stroke-linejoin="round" stroke-miterlimit="10" d="M457.539 198.491s-13.82-2.456-20.578 1.236c-6.757 3.691-45.763 32.855-45.763 32.855l-33.163-25.183v16.275s23.034 27.639 29.792 29.485c6.758 1.846 54.062-24.268 54.062-24.268s-1.846 25.488 1.235 31.025c3.066 5.522 17.817 10.128 29.792 15.36 11.975 5.217 24.575 19.662 31.943 23.033 7.367 3.371 13.21 2.455 18.427-11.974 5.217-14.43-1.236-23.948-3.066-27.944-1.846-3.997-13.821-24.573-24.27-38.698-10.465-14.14-38.411-21.202-38.411-21.202zM484.814 257.567s12.204-.762 20.594-5.338M481.001 260.618s16.78 2.288 29.746 0"/>
        <path stroke="#263238" stroke-linecap="round" stroke-linejoin="round" stroke-miterlimit="10" d="M426.848 217.909l15.025 10.982-26.466-7.169"/>
        <path fill="#263238" stroke="#263238" stroke-linecap="round" stroke-linejoin="round" stroke-miterlimit="10" d="M452.109 201.527s-2.593 12.462 1.556 20.759c4.149 8.298 10.388 10.388 15.056 4.149 4.668-6.223 5.705-21.278-2.593-25.442-8.299-4.149-12.463-1.556-14.019.534z"/>
        <path fill="#fff" d="M148.547 185.968s-7.551-2.7-21.859 11.059c-14.309 13.758-28.343 27.517-37.236 42.907-8.909 15.375-13.226 38.042-14.309 51.816-1.083 13.758 12.28 29.133 30.585 23.795 10.739-3.127 46.312-51.312 51.987-58.878 5.675-7.55 11.334-17.007 11.334-17.007s29.685 27.791 40.485 32.657c10.8 4.85 27.793 1.617 27.793 1.617l.809-18.35s-15.926-2.7-17.268-3.508c-1.342-.809-24.285-26.709-36.168-41.016-11.868-14.308-19.968-23.201-25.902-25.367-5.934-2.166-10.251.275-10.251.275z"/>
        <path fill="#8F489A" d="M184.715 211.06c-8.619-10.388-15.239-17.908-20.502-22.072-.381.046-.762.092-1.129.153-16.566 3.126-25.962 32.687-25.962 32.687s-.9 14.781-2.243 21.035c-1.342 6.269-14.324-12.981-14.324-8.054s9.397 13.88 10.739 15.665c1.343 1.785-4.027-1.342-6.712-2.242-2.684-.9-10.296 22.376-12.981 26.861-2.685 4.469-33.132 15.665-30.89 18.807 2.242 3.127 19.693-4.027 19.693-4.027s-4.47 5.827-14.781 11.196c-2.654 1.388-4.744 3.31-6.24 5.491 5.233 7.49 14.797 12.356 26.33 8.985 10.739-3.127 46.312-51.312 51.987-58.878 5.674-7.55 11.334-17.008 11.334-17.008s29.685 27.792 40.485 32.658c10.8 4.85 27.793 1.617 27.793 1.617l.809-18.35s-15.926-2.7-17.268-3.508c-1.327-.809-24.27-26.709-36.138-41.016z" opacity=".1"/>
        <path stroke="#263238" stroke-linecap="round" stroke-linejoin="round" stroke-miterlimit="10" d="M148.547 185.968s-7.551-2.7-21.859 11.059c-14.309 13.758-28.343 27.517-37.236 42.907-8.909 15.375-13.226 38.042-14.309 51.816-1.083 13.758 12.28 29.133 30.585 23.795 10.739-3.127 46.312-51.312 51.987-58.878 5.675-7.55 11.334-17.007 11.334-17.007s29.685 27.791 40.485 32.657c10.8 4.85 27.793 1.617 27.793 1.617l.809-18.35s-15.926-2.7-17.268-3.508c-1.342-.809-24.285-26.709-36.168-41.016-11.868-14.308-19.968-23.201-25.902-25.367-5.934-2.166-10.251.275-10.251.275zM88.2 272.82s7.628 3.814 15.255-1.525M80.574 284.26s19.83.763 28.983-11.44"/>
        <path stroke="#263238" stroke-linecap="round" stroke-linejoin="round" stroke-miterlimit="10" d="M188.117 229.348l-19.053 10.312 24.392-2.685"/>
        <path fill="#263238" stroke="#263238" stroke-linecap="round" stroke-linejoin="round" stroke-miterlimit="10" d="M145.496 183.406s-13.988 7.245-14.507 12.95c-.518 5.704-1.418 15.009 2.212 25.366 3.631 10.357 10.221 17.617 13.332 17.099 3.112-.519 11.914-9.32 12.951-29.515 1.022-20.196-5.186-25.9-13.988-25.9z"/>
        <path stroke="#263238" stroke-linecap="round" stroke-linejoin="round" stroke-miterlimit="10" d="M342.979 329.319l5.538-4.378"/>
        <path fill="#fff" d="M152.864 177.594s-5.675 6.742-9.717 10.799c-4.042 4.043-5.934 4.043-5.934 11.867 0 7.825 3.326 28.006 8.192 29.089 4.851 1.082 24.742-28.28 24.742-28.28l-7.017-26.983s-7.566-.259-10.266 3.508z"/>
        <path fill="#8F489A" d="M156.83 199.879c-1.693 11.806-6.941 19.234-13.912 27.166.778 1.266 1.602 2.105 2.487 2.303 4.851 1.083 24.742-28.279 24.742-28.279l-4.713-18.136-3.677-3.188c-.015 0-3.142 7.611-4.927 20.134z" opacity=".1"/>
        <path stroke="#263238" stroke-linecap="round" stroke-linejoin="round" stroke-miterlimit="10" d="M152.864 177.594s-5.675 6.742-9.717 10.799c-4.042 4.043-5.934 4.043-5.934 11.867 0 7.825 3.326 28.006 8.192 29.089 4.851 1.082 24.742-28.28 24.742-28.28l-7.017-26.983s-7.566-.259-10.266 3.508z"/>
        <path fill="#fff" d="M199.161 157.627c1.281 3.234 1.464 6.94 1.464 11.608 0 5.399-1.616 9.991-.808 12.416.808 2.425 4.851 5.674 3.783 8.099-1.083 2.426-7.291 3.783-7.291 4.592 0 .808-4.317 10.799-7.018 15.116-2.7 4.316-9.167 2.425-18.625-1.343-9.443-3.783-10.8-10.799-11.868-15.375-1.083-4.591.808-20.775 1.342-32.383.29-6.162 1.541-10.57 7.567-13.301 7.795-3.538 17.344-2.318 24.361 2.441 3.783 2.547 5.903 5.125 7.093 8.13z"/>
        <path fill="#8F489A" d="M200.641 169.236c0-4.668-.183-8.375-1.465-11.608-1.19-2.99-3.31-5.583-7.093-8.145-5.568-3.783-12.753-5.324-19.373-4.012l1.129 10.555s7.169 1.342 13.424 5.827c6.269 4.469 6.788 9.518 5.4 17.526-1.373 7.993 2.212 10.677-1.373 18.746-3.585 8.054-3.127 10.296-10.739 10.296-7.612 0-15.667-7.169-19.251-12.08-.961-1.327-1.755-2.365-2.41-3.219.366 1.571.793 3.402 1.555 5.263.489.945.992 1.922 1.541 2.944 1.678 2.577 4.302 5.033 8.695 6.787 9.443 3.783 15.926 5.674 18.626 1.343 2.7-4.317 7.017-14.308 7.017-15.117 0-.808 6.208-2.165 7.291-4.591 1.083-2.425-2.974-5.674-3.783-8.099-.824-2.441.809-7.017.809-12.416z" opacity=".1"/>
        <path stroke="#263238" stroke-linecap="round" stroke-linejoin="round" stroke-miterlimit="10" d="M199.161 157.627c1.281 3.234 1.464 6.94 1.464 11.608 0 5.399-1.616 9.991-.808 12.416.808 2.425 4.851 5.674 3.783 8.099-1.083 2.426-7.291 3.783-7.291 4.592 0 .808-4.317 10.799-7.018 15.116-2.7 4.316-9.167 2.425-18.625-1.343-9.443-3.783-10.8-10.799-11.868-15.375-1.083-4.591.808-20.775 1.342-32.383.29-6.162 1.541-10.57 7.567-13.301 7.795-3.538 17.344-2.318 24.361 2.441 3.783 2.547 5.903 5.125 7.093 8.13z"/>
        <path fill="#222220" d="M194.005 179.44c-.107 1.861-.793 3.325-1.525 3.295-.733-.046-1.236-1.587-1.129-3.448.107-1.861.793-3.325 1.525-3.294.732.03 1.236 1.586 1.129 3.447z"/>
        <path stroke="#263238" stroke-linecap="round" stroke-linejoin="round" stroke-miterlimit="10" d="M179.59 191.094s.808 4.85 7.291 5.399M188.483 172.195s3.509-4.042 8.1-1.617"/>
        <path fill="#263238" stroke="#263238" stroke-linecap="round" stroke-linejoin="round" stroke-miterlimit="10" d="M159.073 173.827s4.317 2.166 5.125-1.083c.809-3.234.397-5.11 2.548-5.934 2.166-.808 9.854-1.632 8.786-6.483-1.083-4.85-3.142-5.628.366-7.245 3.509-1.617 9.626 1.785 19.068 6.102 9.443 4.316 18.61.061 21.844-5.614 3.234-5.674 1.358-22.895-11.059-22.895-8.207 0-10.205 3.081-12.097 3.89-1.891.808-16.261-7.413-31.637-4.18-15.377 3.234-18.87 25.077-16.719 31.819 2.166 6.757 3.798 19.707 13.775 11.623z"/>
        <path stroke="#fff" stroke-linecap="round" stroke-linejoin="round" stroke-miterlimit="10" stroke-width=".75" d="M208.558 153.037c-1.083 1.433-2.761 2.501-5.354 2.776-9.748 1.022-19.496-7.185-28.724-10.266-9.229-3.081-24.118 1.022-28.724 10.266 0 0 8.206-7.688 21.035-2.06M209.87 142.481s.762 3.081.32 6.285"/>
        <path fill="#fff" d="M161.239 177.335s-2.426-11.333-5.675-12.95c-3.234-1.617-7.825-1.342-8.359 7.016-.534 8.359 4.042 12.417 6.483 12.95 2.425.534 6.208-1.616 6.208-1.616"/>
        <path stroke="#263238" stroke-linecap="round" stroke-linejoin="round" stroke-miterlimit="10" d="M161.239 177.335s-2.426-11.333-5.675-12.95c-3.234-1.617-7.825-1.342-8.359 7.016-.534 8.359 4.042 12.417 6.483 12.95 2.425.534 6.208-1.616 6.208-1.616"/>
        <path fill="#8F489A" stroke="#263238" stroke-miterlimit="10" stroke-width="2" d="M380.933 188H236.187C216.196 188 200 203.464 200 222.533v68.156c0 16.577 12.245 30.428 28.582 33.765l-7.635 22.578 35.387-21.81h124.599c19.991 0 36.187-15.465 36.187-34.533v-68.156c0-19.084-16.196-34.533-36.187-34.533z"/>
        <path stroke="#263238" stroke-linecap="round" stroke-miterlimit="10" stroke-width="2.064" d="M223.565 233.892h162.731M223.565 250.626h162.731M223.565 267.359h162.731M223.565 284.093h162.731"/>
        <path fill="#fff" stroke="#263238" stroke-linecap="round" stroke-linejoin="round" stroke-miterlimit="10" d="M242.728 321.158s8.633-6.208 13.5-9.716c4.851-3.508 8.908-2.425 11.868-1.342 2.974 1.083 11.334 3.508 12.142 3.508.808 0 .275 1.891-2.166 2.7-2.426.808-6.209.274-8.909 0-2.7-.275-5.125 1.083-5.125 1.083s12.417 2.166 15.651 3.234c3.234 1.083 7.825 2.974 6.483 4.316-1.342 1.343-2.975 2.7-4.042 2.975-1.084.274-2.975-1.083-6.484.534-3.508 1.616-10.8 3.782-14.308 3.782-3.509 0-18.626-4.316-18.626-4.316v-6.758h.016z"/>
        <path fill="#fff" d="M90.794 256.927s32.111 58.283 39.402 70.165c7.292 11.867 14.843 12.95 19.16 12.95s93.372-12.142 93.372-12.142v-6.742s-44.253-2.166-56.945-4.85c-12.676-2.7-31.577-3.783-31.577-3.783s-17.527-51.282-24.544-61.257c-7.017-9.991-17.268-11.867-17.268-11.867"/>
        <path fill="#8F489A" d="M154.222 312.525s-17.543-51.267-24.56-61.257c-.427-.611-.885-1.205-1.342-1.755 1.571 5.629 5.827 20.882 8.359 29.165 3.127 10.296 7.17 15.665 4.47 16.565-2.685.9-21.494-19.692-18.809-11.638 2.685 8.053 25.521 25.076 25.521 26.861 0 1.784-10.297 2.684-5.37 5.369 4.927 2.684 13.882 1.784 13.882 1.784s-12.539 6.27-8.512 7.612c4.027 1.342 15.666-7.169 17.908-7.169 1.922 0 49.211 7.291 68.111 11.028 5.461-.748 8.848-1.205 8.848-1.205v-6.742s-44.253-2.166-56.945-4.851c-12.676-2.684-31.561-3.767-31.561-3.767z" opacity=".1"/>
        <path stroke="#263238" stroke-linecap="round" stroke-linejoin="round" stroke-miterlimit="10" d="M90.794 256.927s32.111 58.283 39.402 70.165c7.292 11.867 14.843 12.95 19.16 12.95s93.372-12.142 93.372-12.142v-6.742s-44.253-2.166-56.945-4.85c-12.676-2.7-31.577-3.783-31.577-3.783s-17.527-51.282-24.544-61.257c-7.017-9.991-17.268-11.867-17.268-11.867"/>
        <path fill="#fff" d="M469.514 234.733l-43.918 50.366-64.495 19.341s-17.192-1.54-21.188-1.845c-3.997-.305-7.063 2.761-9.519 5.216-2.456 2.456-8.604 4.607-7.368 6.453 1.236 1.845 3.371.915 7.368-.305 3.997-1.236 6.758-1.846 6.758-1.846s-13.211 12.279-16.582 15.665c-3.371 3.371-2.761 5.217-.61 5.217 2.151 0 13.82-10.754 13.82-10.754s-3.691 4.302-5.842 7.672c-2.151 3.371-5.217 6.148-3.066 6.758 2.151.61 11.059-7.673 11.059-7.673l4.302-2.761s-7.063 7.978-5.522 8.908c1.541.916 8.298-5.842 8.298-5.842s11.06-3.691 14.126-7.367c3.066-3.691 4.912-6.147 4.912-6.147s34.703-6.452 47.609-8.603c12.905-2.151 27.946-3.996 33.483-8.908 5.522-4.911 49.134-46.37 51.285-51.907"/>
        <path fill="#8F489A" d="M443.063 274.269c-1.601-.32 7.688-15.299 14.294-25.595l-31.76 36.425-64.495 19.341s-7.338-.656-13.546-1.189c.228 1.388.381 2.242.381 2.242l5.858 10.25s67.333-21.949 70.246-21.949c2.929 0 2.929.976 6.346 1.952 3.417.976.488-3.905.488-3.905s8.298-.976 13.668-2.928c5.37-1.953-12.692-1.465-9.763-2.929 2.929-1.464 29.761-16.58 35.619-26.831 5.858-10.25-24.895 15.604-27.336 15.116z" opacity=".1"/>
        <path fill="#fff" stroke="#263238" stroke-linecap="round" stroke-linejoin="round" stroke-miterlimit="10" d="M330.379 307.827c-2.456 2.455-8.603 4.606-7.368 6.452 1.236 1.845 3.371.915 7.368-.305 3.997-1.236 6.758-1.846 6.758-1.846s-13.21 12.279-16.582 15.665c-3.371 3.371-2.761 5.217-.61 5.217 2.151 0 13.821-10.754 13.821-10.754s-3.692 4.302-5.843 7.673c-2.151 3.371-5.217 6.147-3.066 6.757 2.151.61 11.059-7.673 11.059-7.673l4.302-2.76s-7.063 7.977-5.522 8.908c1.541.915 8.298-5.842 8.298-5.842s11.06-3.692 14.126-7.368c3.066-3.691 4.912-6.147 4.912-6.147l-.915-11.364s-17.207-1.54-21.189-1.845c-4.012-.29-7.093 2.776-9.549 5.232z"/>
        <path fill="#fff" d="M423.751 147.209s-3.691 7.673-2.761 15.666c.915 7.977 1.236 11.973-.305 14.124s-3.997 1.236-3.692 5.217c.305 3.996 5.217 5.521 5.217 5.521s6.758 13.21 9.214 15.971c2.456 2.76 5.842 1.54 8.603.305 2.761-1.236 8.299-3.997 8.299-3.997s7.063 18.426 10.449 22.728c3.371 4.301 6.148-1.541 7.063-6.452.915-4.912 1.54-15.971 0-19.662-1.541-3.691-5.843-13.209-5.843-13.209s8.909-1.236 14.431-13.21c5.522-11.973-6.148-27.639-23.034-31.33-16.887-3.645-25.795 4.027-27.641 8.328z"/>
        <path fill="#8F489A" d="M455.755 185.48s-2.929 8.298-4.394 10.25c-1.464 1.952-13.668 6.834-18.534 3.905-4.881-2.929-7.322-11.715-6.834-19.021.489-7.322-2.44-15.604 3.906-19.021 6.345-3.417 18.045-.976 18.045-.976l13.18-5.369-29.273-8.786s-4.225 1.479-9.244 3.722c-.992 2.959-2.181 7.764-1.602 12.69.915 7.978 1.236 11.974-.305 14.125s-3.996 1.236-3.691 5.217c.305 3.996 5.217 5.521 5.217 5.521s6.757 13.21 9.213 15.971c2.456 2.76 5.843 1.54 8.604.305 2.761-1.236 8.298-3.997 8.298-3.997s7.063 18.426 10.449 22.728c1.602 2.028 3.051 1.784 4.256.457-2.257-12.477-7.291-37.721-7.291-37.721z" opacity=".1"/>
        <path fill="#222220" d="M428.205 176.999c.59 0 1.068-1.236 1.068-2.761 0-1.525-.478-2.761-1.068-2.761-.589 0-1.068 1.236-1.068 2.761 0 1.525.479 2.761 1.068 2.761z"/>
        <path stroke="#263238" stroke-linecap="round" stroke-linejoin="round" stroke-miterlimit="10" d="M425.902 167.176s4.302-4.301 6.758 2.151M429.594 192.359s7.978-.305 9.213-7.062"/>
        <path fill="#263238" stroke="#263238" stroke-linecap="round" stroke-linejoin="round" stroke-miterlimit="10" d="M462.116 166.978c-2.502-.473-4.897 1.129-5.705 3.554-.671 1.998-2.014 4.179-4.714 4.011-4.912-.305-4.302-8.602-6.147-12.279-1.846-3.691-7.978-3.691-19.038-4.606-11.059-.915-19.663-.915-18.732-15.055.915-14.125 9.824-23.948 15.971-22.422 6.148 1.525 4.302 7.977 4.302 7.977s19.663-9.518 36.244-4.911c16.582 4.606 20.578 20.271 19.968 35.006-.61 14.735-7.978 23.337-12.905 25.488-4.912 2.151-8.603 5.522-10.754 4.912-2.151-.61-3.066-5.522-1.236-7.063 1.846-1.54 7.368-8.297 5.842-12.278-.549-1.434-1.769-2.09-3.096-2.334z"/>
        <path stroke="#fff" stroke-linecap="round" stroke-linejoin="round" stroke-miterlimit="10" stroke-width=".75" d="M420.197 143s-5.644 11.287 7.185 11.806c12.829.518 28.724-8.207 40.53-4.622 11.792 3.584 12.829 14.368 9.748 21.537M441.751 141.459s32.828-12.828 37.968 6.162"/>
        <path fill="#fff" stroke="#263238" stroke-linecap="round" stroke-linejoin="round" stroke-miterlimit="10" d="M321.12 185.215s-2.7-1.617-4.317.534c-1.617 2.166-3.783 5.674-2.975 7.55.809 1.892 3.509-1.616 5.126-3.508 1.632-1.876 1.891-2.41 2.166-4.576z"/>
        <path fill="#fff" stroke="#263238" stroke-linecap="round" stroke-linejoin="round" stroke-miterlimit="10" d="M325.437 184.407s-2.7-2.425-4.317.808c-1.617 3.234-.809 10.8.534 11.608 1.342.809 2.166.534 3.234-3.508 1.083-4.042 1.632-5.659.549-8.908z"/>
        <path fill="#fff" stroke="#263238" stroke-linecap="round" stroke-linejoin="round" stroke-miterlimit="10" d="M329.754 184.148s-2.7-2.426-4.317.808-.809 10.799.534 11.608c1.342.808 2.166.534 3.233-3.509 1.099-4.057 1.633-5.674.55-8.907z"/>
        <path fill="#fff" stroke="#263238" stroke-linecap="round" stroke-linejoin="round" stroke-miterlimit="10" d="M334.071 183.873s-2.7-2.425-4.317.809c-1.617 3.233-.809 10.799.534 11.607 1.342.809 2.166.534 3.233-3.508 1.099-4.057 1.633-5.674.55-8.908z"/>
    </g>
    <defs>
        <clipPath id="prefix__clip0">
            <path fill="#fff" d="M0 0H609V495H0z"/>
        </clipPath>
    </defs>
</svg>
