<svg width="630" height="515" viewBox="0 0 630 515" fill="none" xmlns="http://www.w3.org/2000/svg">
<path opacity="0.36" d="M476.131 514.522C418.887 521.502 400.531 449.193 301.647 482.061C265.689 494.013 212.751 526.057 169.801 482.061C114.866 425.787 179.405 365.143 88.3966 301.786C29.7718 260.974 1.1439 215.935 0 144.585C0.000174098 75.5886 59.4589 -14.5921 146.546 3.97482C185.367 12.2515 221.972 30.3031 261.365 35.0836C297.54 39.4359 334.074 32.3009 369.392 23.3821C404.709 14.4633 439.813 3.76076 476.131 0.764046C512.45 -2.23267 550.842 3.18995 580.655 24.0956C610.467 45.0013 626.539 91.9258 628.764 157.859C634.77 335.873 618.917 385.183 580.655 455.06C565.338 483.032 533.376 507.542 476.131 514.522Z" fill="#F29CFF"/>
<mask id="mask0" mask-type="alpha" maskUnits="userSpaceOnUse" x="0" y="0" width="630" height="515">
<path d="M476.131 514.522C418.887 521.502 400.531 449.193 301.647 482.061C265.689 494.013 212.751 526.057 169.801 482.061C114.866 425.787 179.405 365.143 88.3966 301.786C29.7718 260.974 1.1439 215.935 0 144.585C0.000174098 75.5886 59.4589 -14.5921 146.546 3.97482C185.367 12.2515 221.972 30.3031 261.365 35.0836C297.54 39.4359 334.074 32.3009 369.392 23.3821C404.709 14.4633 439.813 3.76076 476.131 0.764046C512.45 -2.23267 550.842 3.18995 580.655 24.0956C610.467 45.0013 626.539 91.9258 628.764 157.859C634.77 335.873 618.917 385.183 580.655 455.06C565.338 483.032 533.376 507.542 476.131 514.522Z" fill="#F29CFF"/>
</mask>
<g mask="url(#mask0)">
<path d="M567.202 421.367C563.282 418.625 555.192 421.618 551.789 424.188C551.491 424.407 547.289 428.418 547.368 428.465C547.368 428.465 547.446 428.496 547.462 428.512C546.176 428.966 544.812 429.484 543.323 430.063C540.595 431.16 537.522 432.445 534.26 434.059C530.999 435.657 527.503 437.49 524.006 439.746C520.494 442.002 516.904 444.572 513.549 447.674C513.517 447.706 513.47 447.753 513.439 447.784C514.129 446.562 515.979 443.115 516.089 442.833C517.657 438.853 518.331 430.267 514.631 427.243C511.965 425.065 508.171 426.005 506.336 428.763C504.471 431.583 504.988 435.704 506.054 438.712C507.246 442.096 512.655 447.721 513.094 448.176C509.927 451.168 506.932 454.506 504.079 458.031C502.448 460.052 500.865 462.136 499.297 464.251C499.861 463.186 500.363 462.214 500.426 462.073C501.993 458.094 502.668 449.507 498.967 446.484C496.302 444.306 492.508 445.246 490.673 448.003C488.808 450.824 489.325 454.944 490.375 457.953C491.457 461.008 495.957 465.881 497.18 467.165C496.584 467.98 495.988 468.795 495.408 469.61C492.586 473.542 489.795 477.459 486.942 481.236C485.938 482.567 484.888 483.836 483.853 485.121C484.355 484.165 484.778 483.366 484.825 483.241C486.393 479.261 487.067 470.675 483.367 467.651C480.702 465.473 476.907 466.413 475.073 469.171C473.207 471.991 473.725 476.112 474.791 479.12C475.81 482.035 479.949 486.578 481.376 488.098C480.278 489.367 479.181 490.652 478.052 491.843C477.268 492.642 476.562 493.457 475.731 494.209C474.916 494.976 474.116 495.729 473.333 496.481C471.749 497.859 470.134 499.301 468.551 500.617C467.453 501.541 466.402 502.388 465.352 503.265C466.371 501.949 468.315 499.348 468.441 499.113C469.868 496.653 471.2 492.141 471.012 488.333C471.232 487.973 471.404 487.597 471.545 487.205C472.658 484.087 471.137 480.499 467.798 479.669C463.157 478.525 456.682 484.212 454.424 487.832C454.298 488.051 453.107 490.527 452.386 492.109C452.668 491.122 452.95 490.151 453.232 489.132C453.797 487.111 454.298 485.074 454.847 482.881C455.067 481.815 455.302 480.734 455.537 479.653C455.788 478.588 455.913 477.412 456.117 476.284C456.525 473.652 456.807 470.973 457.027 468.262C458.798 468.748 465.133 470.393 468.3 469.907C471.451 469.422 475.339 467.933 476.939 464.972C478.507 462.073 477.55 458.282 474.383 456.95C469.962 455.117 462.702 459.754 459.927 462.998C459.755 463.201 458.03 465.755 457.105 467.181C457.23 465.552 457.356 463.922 457.419 462.277C457.622 457.498 457.669 452.672 457.748 447.847C457.763 446.374 457.811 444.901 457.842 443.428C458.469 443.601 465.948 445.716 469.491 445.183C472.643 444.697 476.531 443.209 478.13 440.248C479.698 437.349 478.742 433.557 475.575 432.225C471.153 430.392 463.894 435.03 461.119 438.273C460.915 438.524 458.422 442.19 457.842 443.162C457.92 439.919 458.03 436.675 458.265 433.495C458.579 429.107 459.143 424.814 459.99 420.694C460.288 420.772 468.08 423.013 471.718 422.464C474.869 421.978 478.757 420.49 480.357 417.529C481.925 414.63 480.968 410.838 477.801 409.507C473.38 407.673 466.12 412.311 463.345 415.555C463.157 415.774 461.276 418.563 460.398 419.926C460.256 419.863 460.288 419.879 460.147 419.816C461.103 415.414 462.593 411.277 464.176 407.454C465.085 405.245 466.089 403.192 467.092 401.202C468.503 401.767 474.963 404.273 478.287 404.148C481.47 404.023 485.499 402.957 487.428 400.184C489.309 397.473 488.776 393.603 485.766 391.927C481.58 389.608 473.85 393.431 470.73 396.361C470.557 396.518 469.021 398.32 467.908 399.651C468.378 398.758 468.848 397.834 469.319 397.003C471.075 393.838 472.862 391.05 474.477 388.59C475.402 387.195 476.264 385.957 477.095 384.814C478.773 384.641 485.499 383.889 488.337 382.275C491.112 380.693 494.185 377.904 494.624 374.551C495.048 371.276 492.79 368.08 489.341 368.002C484.559 367.876 479.463 374.833 478.036 378.86C477.911 379.204 476.625 384.876 476.719 384.861C476.719 384.861 476.798 384.861 476.813 384.845C475.998 385.942 475.136 387.117 474.226 388.417C472.564 390.846 470.699 393.603 468.864 396.737C467.03 399.871 465.133 403.318 463.455 407.141C461.777 410.964 460.194 415.069 459.112 419.519C459.096 419.566 459.096 419.628 459.08 419.675C458.986 418.281 458.61 414.379 458.547 414.082C457.654 409.914 453.483 402.362 448.717 401.876C445.283 401.532 442.649 404.399 442.649 407.705C442.649 411.073 445.346 414.238 447.901 416.166C450.771 418.328 458.375 420.036 458.986 420.177C457.999 424.423 457.34 428.857 456.901 433.369C456.65 435.954 456.478 438.571 456.352 441.188C456.243 439.981 456.117 438.9 456.086 438.759C455.192 434.591 451.022 427.039 446.255 426.554C442.822 426.209 440.188 429.076 440.188 432.382C440.188 435.751 442.884 438.916 445.44 440.843C448.027 442.801 454.487 444.384 456.196 444.776C456.149 445.778 456.102 446.781 456.07 447.8C455.882 452.625 455.725 457.451 455.427 462.167C455.318 463.828 455.161 465.473 455.004 467.103C454.894 466.037 454.8 465.129 454.769 464.988C453.875 460.82 449.705 453.268 444.938 452.782C441.505 452.437 438.871 455.305 438.871 458.611C438.871 461.979 441.567 465.144 444.123 467.071C446.585 468.936 452.542 470.456 454.565 470.926C454.345 472.602 454.142 474.263 453.859 475.877C453.64 476.974 453.515 478.039 453.232 479.12C452.981 480.201 452.731 481.267 452.48 482.332C451.931 484.353 451.367 486.453 450.771 488.412C450.363 489.775 449.955 491.075 449.548 492.376C449.673 490.715 449.846 487.471 449.83 487.205C449.579 482.943 446.6 474.859 441.959 473.652C438.62 472.79 435.578 475.235 435.076 478.494C434.559 481.831 436.754 485.356 438.98 487.644C441.426 490.166 448.403 492.924 449.266 493.269C448.591 495.431 447.902 497.53 447.227 499.489C444.907 506.305 442.696 511.898 441.113 515.784C441.05 515.925 441.003 516.05 440.956 516.176L443.809 517.742C443.903 517.492 443.997 517.241 444.107 516.959C445.628 512.995 447.729 507.292 449.924 500.351C450.63 498.157 451.335 495.807 452.025 493.378C452.621 493.457 456.023 493.864 459.237 493.833C460.1 497.327 464.098 503.077 464.631 503.813C462.875 505.239 461.15 506.618 459.488 507.871C453.781 512.274 448.858 515.737 445.393 518.103C445.252 518.197 445.126 518.291 444.985 518.385L448.121 520.108C451.508 517.68 456.039 514.311 461.244 510.112C463.032 508.67 464.929 507.088 466.842 505.458C467.531 506.054 473.27 510.911 476.641 511.882C479.698 512.76 483.853 513.042 486.565 511.021C489.215 509.046 489.936 505.208 487.6 502.67C484.355 499.144 475.81 500.319 471.937 502.105C471.702 502.215 469.35 503.625 467.876 504.55C468.66 503.876 469.429 503.234 470.228 502.529C471.812 501.15 473.348 499.724 475.01 498.204C475.794 497.436 476.578 496.669 477.362 495.885C478.162 495.133 478.914 494.224 479.714 493.394C481.501 491.42 483.226 489.336 484.903 487.205C486.111 488.584 490.485 493.441 493.401 494.788C496.302 496.12 500.363 497.029 503.342 495.431C506.258 493.88 507.559 490.182 505.631 487.33C502.965 483.366 494.342 483.225 490.234 484.416C489.983 484.494 487.13 485.67 485.578 486.343C486.581 485.059 487.585 483.774 488.557 482.426C491.363 478.556 494.076 474.561 496.804 470.581C497.635 469.359 498.481 468.153 499.328 466.946C499.751 467.447 504.831 473.323 508.077 474.827C510.977 476.159 515.038 477.068 518.017 475.47C520.933 473.918 522.235 470.221 520.306 467.369C517.641 463.405 509.018 463.264 504.91 464.455C504.596 464.549 500.504 466.241 499.485 466.727C501.335 464.063 503.216 461.431 505.176 458.893C507.873 455.399 510.695 452.124 513.674 449.163C513.878 449.398 519.13 455.555 522.47 457.091C525.371 458.423 529.431 459.331 532.41 457.733C535.327 456.182 536.628 452.484 534.699 449.633C532.034 445.669 523.411 445.528 519.303 446.719C519.036 446.797 515.916 448.082 514.442 448.74C514.364 448.614 514.38 448.63 514.286 448.52C517.515 445.371 521.043 442.739 524.461 440.436C526.437 439.104 528.412 437.929 530.341 436.832C531.203 438.085 535.217 443.742 538.055 445.465C540.783 447.11 544.718 448.458 547.854 447.204C550.927 445.982 552.62 442.457 551.021 439.401C548.81 435.171 540.25 434.09 536.032 434.811C535.797 434.858 533.523 435.5 531.862 436.001C532.74 435.516 533.649 435.014 534.496 434.56C537.694 432.884 540.736 431.552 543.448 430.392C544.985 429.75 546.396 429.186 547.713 428.684C549.202 429.468 555.223 432.554 558.484 432.758C561.667 432.962 565.775 432.335 567.986 429.781C570.149 427.243 570.024 423.342 567.202 421.367Z" fill="#9FCD00"/>
<path d="M530.576 435.923C530.623 436.001 534.605 431.771 534.825 431.473C537.38 428.058 540.312 419.941 537.537 416.04C535.546 413.235 531.626 413.141 529.149 415.319C526.609 417.544 526.013 421.649 526.249 424.83C526.499 428.575 530.576 435.923 530.576 435.923Z" fill="#9FCD00"/>
<path d="M457.058 393.4C459.347 396.361 466.794 400.247 466.794 400.247C466.873 400.294 467.861 394.559 467.892 394.199C468.127 389.937 466.105 381.555 461.636 379.831C458.422 378.593 455.114 380.662 454.236 383.858C453.342 387.117 455.114 390.877 457.058 393.4Z" fill="#9FCD00"/>
<path d="M201.716 220.654C201.81 220.67 200.493 214.089 200.352 213.697C198.831 209.012 193.14 200.849 187.621 200.865C183.639 200.865 180.958 204.484 181.334 208.276C181.726 212.146 185.222 215.452 188.374 217.364C192.058 219.588 201.701 220.654 201.716 220.654Z" fill="#9FCD00"/>
<path d="M219.751 198.371C214.562 200.235 211.975 209.84 212.131 214.775C212.147 215.198 213.135 221.826 213.213 221.779C213.213 221.779 213.292 221.732 213.323 221.732C212.9 223.252 212.476 224.881 212.037 226.668C211.253 229.974 210.407 233.718 209.748 237.855C209.09 241.991 208.478 246.503 208.274 251.314C208.055 256.139 208.086 261.216 208.792 266.449C208.808 266.512 208.823 266.574 208.823 266.621C208.149 265.149 206.095 261.122 205.907 260.824C203.195 256.703 195.559 250.326 190.228 251.799C186.387 252.849 184.756 257.064 186.136 260.605C187.547 264.24 191.78 266.496 195.324 267.514C199.322 268.643 208.227 267.311 208.933 267.201C209.639 272.184 210.783 277.229 212.21 282.274C213.025 285.157 213.935 288.04 214.891 290.923C214.264 289.669 213.684 288.557 213.59 288.416C210.877 284.295 203.242 277.934 197.911 279.391C194.069 280.441 192.439 284.655 193.819 288.196C195.23 291.831 199.463 294.088 203.006 295.106C206.597 296.125 214.217 295.137 216.224 294.84C216.6 295.937 216.961 297.049 217.337 298.146C219.156 303.41 221.006 308.675 222.652 313.877C223.232 315.71 223.734 317.543 224.251 319.36C223.687 318.248 223.216 317.324 223.122 317.183C220.41 313.062 212.774 306.685 207.443 308.158C203.602 309.207 201.972 313.422 203.351 316.963C204.762 320.598 208.996 322.854 212.539 323.873C215.973 324.844 223.013 323.998 225.396 323.669C225.866 325.549 226.336 327.445 226.713 329.294C226.932 330.563 227.246 331.77 227.387 333.054C227.559 334.324 227.748 335.577 227.92 336.83C228.171 339.243 228.437 341.735 228.626 344.085C228.767 345.73 228.876 347.281 228.97 348.864C228.406 347.03 227.246 343.458 227.12 343.176C225.756 340.199 222.385 335.922 218.67 333.571C218.466 333.133 218.231 332.71 217.964 332.318C215.769 329.2 211.363 328.229 208.353 330.814C204.167 334.418 205.217 344.32 207.146 348.848C207.255 349.114 208.808 351.888 209.827 353.611C209.074 352.687 208.369 351.778 207.585 350.838C206.048 348.958 204.465 347.124 202.771 345.15C201.925 344.226 201.062 343.286 200.184 342.346C199.338 341.39 198.334 340.497 197.393 339.557C195.183 337.426 192.847 335.373 190.432 333.352C192.078 332.005 197.832 327.148 199.494 323.842C201.141 320.551 202.332 315.898 200.608 312.404C198.914 308.988 194.712 307.359 191.341 309.474C186.669 312.404 186.199 322.337 187.406 327.116C187.484 327.414 188.739 330.736 189.46 332.553C188.002 331.347 186.559 330.14 185.038 328.981C180.68 325.612 176.149 322.337 171.649 319.047C170.269 318.044 168.905 317.026 167.541 316.007C168.137 315.537 175.098 309.897 176.964 306.199C178.61 302.909 179.802 298.255 178.077 294.761C176.384 291.346 172.182 289.716 168.811 291.831C164.139 294.761 163.668 304.695 164.876 309.474C164.97 309.834 166.773 314.629 167.306 315.819C164.295 313.579 161.316 311.323 158.479 308.972C154.543 305.745 150.874 302.36 147.55 298.804C147.833 298.584 155.123 292.74 157.036 288.949C158.682 285.658 159.874 281.005 158.149 277.511C156.456 274.095 152.254 272.466 148.883 274.581C144.211 277.511 143.74 287.444 144.948 292.223C145.026 292.537 146.406 296.187 147.096 297.911C146.955 298.005 146.97 297.989 146.829 298.083C143.317 294.244 140.401 290.077 137.861 286.05C136.387 283.715 135.101 281.412 133.91 279.14C135.384 278.184 142.063 273.782 144.148 270.554C146.155 267.467 147.833 262.971 146.5 259.32C145.199 255.732 141.185 253.664 137.61 255.387C132.64 257.785 131.088 267.608 131.762 272.497C131.793 272.763 132.467 275.411 132.985 277.354C132.467 276.32 131.903 275.255 131.417 274.252C129.598 270.491 128.171 266.95 126.933 263.785C126.243 261.984 125.647 260.338 125.114 258.803C126.07 257.111 129.849 250.279 130.21 246.519C130.555 242.853 129.99 238.09 127.121 235.457C124.314 232.872 119.799 232.872 117.416 236.053C114.108 240.471 117.259 249.919 120.113 253.93C120.363 254.275 124.848 259.257 124.895 259.179C124.895 259.179 124.942 259.101 124.957 259.085C125.443 260.573 125.976 262.172 126.604 263.911C127.779 267.107 129.144 270.695 130.884 274.502C132.609 278.31 134.6 282.415 137.077 286.536C139.554 290.672 142.376 294.902 145.857 298.866C145.904 298.913 145.951 298.96 145.983 298.992C144.603 298.146 140.683 295.905 140.354 295.764C135.823 293.821 125.929 292.725 122.292 296.877C119.674 299.869 120.63 304.288 123.734 306.481C126.917 308.737 131.699 308.283 135.211 307.171C139.162 305.917 145.857 299.885 146.39 299.399C149.73 303.16 153.461 306.748 157.444 310.163C159.717 312.122 162.069 314.018 164.452 315.898C163.245 315.208 162.147 314.597 161.991 314.519C157.459 312.576 147.566 311.479 143.929 315.631C141.31 318.624 142.267 323.042 145.371 325.236C148.554 327.492 153.336 327.038 156.848 325.925C160.407 324.797 166.208 319.768 167.729 318.42C168.654 319.125 169.563 319.846 170.489 320.551C174.926 323.936 179.363 327.304 183.612 330.736C185.117 331.942 186.544 333.195 187.97 334.433C186.889 333.822 185.979 333.305 185.822 333.242C181.291 331.3 171.398 330.203 167.76 334.355C165.142 337.348 166.098 341.766 169.203 343.959C172.386 346.216 177.168 345.761 180.68 344.649C184.082 343.568 189.476 338.977 191.294 337.379C192.721 338.695 194.164 340.011 195.496 341.343C196.39 342.283 197.299 343.113 198.146 344.101C198.993 345.056 199.839 346.012 200.67 346.952C202.207 348.832 203.806 350.744 205.264 352.624C206.283 353.909 207.24 355.162 208.196 356.416C206.722 355.194 203.775 352.859 203.508 352.702C199.322 350.101 189.711 347.516 185.493 351.073C182.451 353.642 182.718 358.139 185.462 360.787C188.268 363.498 193.05 363.78 196.688 363.216C200.686 362.589 207.945 357.873 208.839 357.277C210.422 359.361 211.943 361.398 213.339 363.341C218.215 370.078 222.025 375.876 224.627 379.965C224.722 380.106 224.8 380.247 224.894 380.388L228.265 378.743C228.092 378.476 227.92 378.226 227.732 377.944C225.004 373.87 221.037 368.088 215.957 361.398C214.358 359.283 212.602 357.042 210.783 354.771C211.253 354.253 213.903 351.324 216.02 348.284C219.892 349.804 227.983 349.866 229.018 349.866C229.19 352.467 229.331 355.021 229.425 357.418C229.77 365.738 229.754 372.664 229.66 377.521C229.66 377.724 229.66 377.897 229.645 378.085L233.361 376.283C233.329 371.473 233.172 364.955 232.686 357.246C232.53 354.598 232.294 351.762 232.044 348.864C233.078 348.613 241.467 346.451 244.649 343.912C247.519 341.609 250.56 337.896 250.45 333.995C250.356 330.187 247.205 326.944 243.27 327.445C237.798 328.15 233.204 336.971 232.294 341.829C232.247 342.111 232.012 345.276 231.902 347.281C231.793 346.09 231.699 344.947 231.558 343.724C231.322 341.312 231.009 338.914 230.679 336.329C230.476 335.091 230.272 333.838 230.068 332.569C229.896 331.315 229.551 329.999 229.284 328.699C228.626 325.706 227.795 322.698 226.901 319.689C229.018 319.47 236.496 318.593 239.71 316.744C242.909 314.911 246.452 311.683 246.938 307.829C247.409 304.037 244.806 300.371 240.824 300.277C235.305 300.136 229.425 308.173 227.795 312.827C227.701 313.125 226.901 316.587 226.509 318.499C225.96 316.697 225.411 314.895 224.8 313.078C223.028 307.86 221.053 302.627 219.124 297.409C218.528 295.811 217.964 294.213 217.384 292.615C218.136 292.552 227.058 291.69 230.648 289.622C233.847 287.789 237.39 284.561 237.892 280.707C238.362 276.931 235.759 273.249 231.777 273.155C226.258 273.014 220.379 281.052 218.748 285.705C218.622 286.05 217.494 291.048 217.274 292.333C216.004 288.808 214.765 285.282 213.684 281.757C212.194 276.9 210.987 272.043 210.187 267.264C210.532 267.232 219.861 266.386 223.53 264.271C226.728 262.438 230.272 259.21 230.774 255.34C231.244 251.564 228.641 247.882 224.659 247.788C219.14 247.647 213.26 255.685 211.63 260.338C211.52 260.636 210.658 264.444 210.281 266.261C210.109 266.261 210.14 266.261 209.968 266.245C209.152 261.106 209.027 256.03 209.137 251.267C209.2 248.509 209.403 245.877 209.67 243.323C211.426 243.338 219.438 243.338 222.95 241.803C226.321 240.33 230.209 237.51 231.119 233.734C232.012 230.021 229.817 226.088 225.882 225.555C220.41 224.819 213.684 232.151 211.551 236.601C211.442 236.836 210.532 239.437 209.905 241.317C210.046 240.158 210.156 238.967 210.313 237.87C210.877 233.734 211.645 229.989 212.351 226.668C212.774 224.787 213.182 223.095 213.59 221.513C215.314 220.635 222.244 217.016 224.612 214.086C226.932 211.219 229.08 206.941 228.14 203.15C227.262 199.515 223.499 197.023 219.751 198.371Z" fill="#9FCD00"/>
<path d="M112.582 261.501C116.91 261.328 125.533 256.91 125.533 256.894C125.627 256.847 120.892 252.1 120.563 251.833C116.706 248.763 107.455 245.096 102.846 248.151C99.5375 250.345 99.2867 254.857 101.701 257.803C104.178 260.811 108.913 261.642 112.582 261.501Z" fill="#9FCD00"/>
<path d="M431.188 524H284.808C273.827 517.041 255.066 515.501 226 506.5V77.936C226 64.1654 236.209 53 248.8 53H431.2C443.791 53 454 64.1654 454 77.936V499.064C453.988 512.835 443.779 524 431.188 524Z" fill="#263238"/>
<path d="M235.191 98.4267V450.334V460.863H445.004V98.4267H235.191Z" fill="#8F489A"/>
<path d="M437.62 117.385H242.575V449.268H437.62V117.385Z" fill="#F9F9F9"/>
<path d="M347.09 484.145C347.09 481.262 344.754 478.928 341.869 478.928C338.984 478.928 336.648 481.262 336.648 484.145C336.648 487.028 338.984 489.363 341.869 489.363C344.754 489.378 347.09 487.028 347.09 484.145Z" fill="#C6FF00"/>
<path opacity="0.1" d="M325.454 434.775C360.921 434.775 389.674 393.892 389.674 343.461C389.674 293.03 360.921 252.147 325.454 252.147C289.986 252.147 261.233 293.03 261.233 343.461C261.233 393.892 289.986 434.775 325.454 434.775Z" fill="#8F489A"/>
<path d="M334.563 241.539C334.563 241.539 330.549 234.849 326.865 234.504C323.18 234.175 279.311 261.61 272.616 276.009C265.921 290.393 259.556 319.081 277.367 346.72C294.692 373.622 321.847 372.729 335.927 371.397C349.991 370.065 359.414 365.475 373.729 354.037C388.043 342.599 401.073 325.756 402.985 314.318C404.898 302.88 397.89 296.519 393.453 294.936C389.016 293.354 363.24 293.667 344.488 274.599C325.673 255.531 334.563 241.539 334.563 241.539Z" fill="#8F489A" stroke="#263238" stroke-width="1.004" stroke-miterlimit="10"/>
<path d="M340.254 232.844C340.254 232.844 328.871 237.199 321.832 244.893C314.792 252.586 310.449 264.634 310.104 282.371C309.775 300.107 315.466 320.194 337.573 328.89C359.68 337.585 379.436 330.895 385.801 324.879C392.167 318.862 399.865 301.784 399.865 301.784C399.865 301.784 364.698 311.153 347.953 291.411C331.208 271.669 340.254 232.844 340.254 232.844Z" fill="white" stroke="#263238" stroke-miterlimit="10" stroke-linecap="round" stroke-linejoin="round"/>
<path d="M536.992 245.19C528.4 232.327 507.892 228.504 491.68 223.27C475.468 218.022 465.92 207.54 470.216 181.797C474.512 156.054 496.933 114.11 496.447 106.48C495.961 98.8494 419.181 99.3351 412.016 101.717C404.867 104.098 403.424 103.628 396.745 112.199C390.066 120.785 386.726 126.974 386.726 126.974L395.005 109.582L395.6 109.613C395.6 109.613 396.228 107.404 399.395 103.299C402.546 99.1941 410.762 89.4172 411.075 73.0126C411.389 56.608 399.708 58.1905 397.498 63.2357C395.287 68.2808 382.336 85.6412 378.558 90.373C374.763 95.1047 366.877 108.047 366.877 108.047L358.112 138.427C358.112 138.427 356.2 147.483 345.24 181.797C334.265 216.11 339.031 231.841 339.031 231.841C339.031 231.841 336.162 230.415 329.499 250.909C322.819 271.403 325.689 297.616 337.605 310.009C349.536 322.403 365.278 321.933 382.916 314.773C400.571 307.628 408.677 291.897 408.677 291.897C408.677 291.897 427.272 287.134 441.116 276.636C454.945 266.154 465.45 255.186 485.471 256.142C505.509 257.098 528.4 268.536 536.036 268.066C543.671 267.596 545.568 258.069 536.992 245.19Z" fill="white"/>
<path opacity="0.1" d="M413.96 200.505C360.888 208.417 344.205 221.093 349.505 238.5C350.524 241.869 352.358 244.986 354.757 247.838C354.773 248.183 354.804 248.527 354.851 248.904C354.851 248.904 355.792 249.483 357.203 250.47C359.006 252.225 361.029 253.855 363.208 255.327C366.689 258.633 369.809 262.77 369.166 266.609C367.802 274.787 348.721 289.092 339.172 289.766C329.624 290.44 326.222 280.914 324.858 291.129C323.494 301.345 344.629 326.539 365.074 323.829C385.519 321.102 402.562 292.492 402.562 292.492C402.562 292.492 399.834 287.729 413.474 273.424C422.49 263.976 435.346 259.871 445.208 256.017C454.553 253.197 463.913 249.75 472.348 245.629C496.619 233.752 525.421 241.665 525.421 241.665C525.421 241.665 467.033 192.592 413.96 200.505Z" fill="#8F489A"/>
<path d="M536.992 245.19C528.4 232.327 507.892 228.504 491.68 223.27C475.468 218.022 465.92 207.54 470.216 181.797C474.512 156.054 496.933 114.11 496.447 106.48C495.961 98.8494 419.181 99.3351 412.016 101.717C404.867 104.098 403.424 103.628 396.745 112.199C390.066 120.785 386.726 126.974 386.726 126.974L395.005 109.582L395.6 109.613C395.6 109.613 396.228 107.404 399.395 103.299C402.546 99.1941 410.762 89.4172 411.075 73.0126C411.389 56.608 399.708 58.1905 397.498 63.2357C395.287 68.2808 382.336 85.6412 378.558 90.373C374.763 95.1047 366.877 108.047 366.877 108.047L358.112 138.427C358.112 138.427 356.2 147.483 345.24 181.797C334.265 216.11 339.031 231.841 339.031 231.841C339.031 231.841 336.162 230.415 329.499 250.909C322.819 271.403 325.689 297.616 337.605 310.009C349.536 322.403 365.278 321.933 382.916 314.773C400.571 307.628 408.677 291.897 408.677 291.897C408.677 291.897 427.272 287.134 441.116 276.636C454.945 266.154 465.45 255.186 485.471 256.142C505.509 257.098 528.4 268.536 536.036 268.066C543.671 267.596 545.568 258.069 536.992 245.19Z" stroke="#263238" stroke-miterlimit="10" stroke-linecap="round" stroke-linejoin="round"/>
<path d="M537.18 267.988C537.18 267.988 538.184 263.976 526.801 258.618C515.418 253.259 510.73 256.941 510.73 259.621C510.714 262.284 535.503 267.988 537.18 267.988Z" fill="white" stroke="#263238" stroke-miterlimit="10" stroke-linecap="round" stroke-linejoin="round"/>
<path d="M429.404 84.3879L400.665 106.48H439.188C439.188 106.464 439.188 79.3427 429.404 84.3879Z" fill="white" stroke="#263238" stroke-miterlimit="10" stroke-linecap="round" stroke-linejoin="round"/>
<path d="M393.358 243.717C396.432 240.176 401.135 236.212 408.238 233.172" stroke="#263238" stroke-miterlimit="10" stroke-linecap="round" stroke-linejoin="round"/>
<path d="M388.137 252.256C388.137 252.256 388.576 250.799 389.862 248.605" stroke="#263238" stroke-miterlimit="10" stroke-linecap="round" stroke-linejoin="round"/>
<path d="M376.692 282.057C375.218 280.773 373.776 279.316 372.396 277.686" stroke="#263238" stroke-miterlimit="10" stroke-linecap="round" stroke-linejoin="round"/>
<path d="M408.677 291.912C408.677 291.912 395.883 294.028 383.104 286.664" stroke="#263238" stroke-miterlimit="10" stroke-linecap="round" stroke-linejoin="round"/>
<path d="M516.077 104.584H371.33C351.339 104.584 335.143 120.048 335.143 139.117V207.273C335.143 223.85 347.388 237.701 363.725 241.038L356.09 263.616L391.477 241.806H516.077C536.067 241.806 552.263 226.341 552.263 207.273V139.117C552.263 120.033 536.067 104.584 516.077 104.584Z" fill="#8F489A" stroke="#263238" stroke-width="2" stroke-miterlimit="10"/>
<path d="M358.708 150.476H521.439" stroke="#263238" stroke-width="2.0641" stroke-miterlimit="10" stroke-linecap="round"/>
<path d="M358.708 167.21H521.439" stroke="#263238" stroke-width="2.0641" stroke-miterlimit="10" stroke-linecap="round"/>
<path d="M358.708 183.943H521.439" stroke="#263238" stroke-width="2.0641" stroke-miterlimit="10" stroke-linecap="round"/>
<path d="M358.708 200.677H521.439" stroke="#263238" stroke-width="2.0641" stroke-miterlimit="10" stroke-linecap="round"/>
<path d="M473.54 94.478C473.54 94.478 474.167 107.107 485.534 113.092C496.901 119.093 511.42 117.824 511.733 110.256C512.047 102.688 503.204 94.7914 497.215 84.7011C491.21 74.6108 477.961 80.2827 472.27 87.2237" fill="white"/>
<path d="M473.54 94.478C473.54 94.478 474.167 107.107 485.534 113.092C496.901 119.093 511.42 117.824 511.733 110.256C512.047 102.688 503.204 94.7914 497.215 84.7011C491.21 74.6108 477.961 80.2827 472.27 87.2237" stroke="#263238" stroke-miterlimit="10" stroke-linecap="round" stroke-linejoin="round"/>
<path d="M493.123 104.584C492.182 109.629 495.647 112.465 498.798 114.047C501.95 115.63 508.268 114.674 511.749 110.256C511.906 106.574 509.883 102.813 507.077 98.7554C503.094 99.1941 493.86 100.62 493.123 104.584Z" fill="white" stroke="#263238" stroke-miterlimit="10" stroke-linecap="round" stroke-linejoin="round"/>
<path d="M449.865 94.478C449.865 94.478 450.492 107.107 461.859 113.092C473.226 119.093 487.745 117.824 488.058 110.256C488.372 102.688 479.529 94.7914 473.54 84.7011C467.535 74.6108 454.286 80.2827 448.595 87.2237" fill="white"/>
<path d="M449.865 94.478C449.865 94.478 450.492 107.107 461.859 113.092C473.226 119.093 487.745 117.824 488.058 110.256C488.372 102.688 479.529 94.7914 473.54 84.7011C467.535 74.6108 454.286 80.2827 448.595 87.2237" stroke="#263238" stroke-miterlimit="10" stroke-linecap="round" stroke-linejoin="round"/>
<path d="M469.432 104.584C468.491 109.629 471.956 112.465 475.108 114.047C478.259 115.63 484.578 114.674 488.058 110.256C488.215 106.574 486.193 102.813 483.386 98.7554C479.404 99.1941 470.169 100.62 469.432 104.584Z" fill="white" stroke="#263238" stroke-miterlimit="10" stroke-linecap="round" stroke-linejoin="round"/>
<path d="M427.82 94.478C427.82 94.478 428.447 107.107 439.815 113.092C451.182 119.093 465.7 117.824 466.014 110.256C466.328 102.688 457.485 94.7914 451.495 84.7011C445.49 74.6108 432.242 80.2827 426.55 87.2237" fill="white"/>
<path d="M427.82 94.478C427.82 94.478 428.447 107.107 439.815 113.092C451.182 119.093 465.7 117.824 466.014 110.256C466.328 102.688 457.485 94.7914 451.495 84.7011C445.49 74.6108 432.242 80.2827 426.55 87.2237" stroke="#263238" stroke-miterlimit="10" stroke-linecap="round" stroke-linejoin="round"/>
<path d="M447.403 104.584C446.463 109.629 449.928 112.465 453.079 114.047C456.231 115.63 462.549 114.674 466.03 110.256C466.187 106.574 464.164 102.813 461.357 98.7554C457.375 99.1941 448.14 100.62 447.403 104.584Z" fill="white" stroke="#263238" stroke-miterlimit="10" stroke-linecap="round" stroke-linejoin="round"/>
<path d="M339.031 231.857C339.031 231.857 339.909 251.254 350.634 264.306" stroke="#263238" stroke-miterlimit="10" stroke-linecap="round" stroke-linejoin="round"/>
<path d="M307.877 312.877C307.877 316.825 305.243 320.021 301.998 320.021C298.752 320.021 296.118 316.825 296.118 312.877C296.118 308.928 298.752 305.732 301.998 305.732C305.243 305.732 307.877 308.928 307.877 312.877Z" fill="white"/>
</g>
<mask id="mask1" mask-type="alpha" maskUnits="userSpaceOnUse" x="96" y="324" width="130" height="181">
<rect x="96.9997" y="324" width="129" height="181" fill="#C4C4C4"/>
</mask>
<g mask="url(#mask1)">
<path d="M165.295 379.827C165.295 379.827 191.462 316.763 206.122 319.505C220.782 322.247 180.989 420.047 180.989 420.047C257.574 275.681 307.056 380.836 207.173 461.176C288.103 374.044 350.261 418.42 233.356 491.338C322.653 463.228 265.435 507 207.173 505.269C141.493 503.318 97.2328 498 97.2328 462.085C112.943 450.209 147.483 475.795 147.483 475.795C147.483 475.795 87.8098 409.988 99.3181 385.311C110.858 360.634 162.159 430.091 162.159 430.091C162.159 430.091 120.281 341.425 128.653 325.897C137.026 310.355 165.295 379.827 165.295 379.827Z" fill="#9FCD00"/>
<path d="M156.922 383.148C179.954 451.164 179.954 499.281 179.954 499.281L116 475.5" stroke="#82A800" stroke-miterlimit="10" stroke-linecap="round" stroke-linejoin="round"/>
<path d="M168.43 419.765C168.43 419.765 173.667 394.649 187.276 360.132" stroke="#82A800" stroke-miterlimit="10" stroke-linecap="round" stroke-linejoin="round"/>
<path d="M236.492 380.015L177.853 466.864C177.853 466.864 138.06 433.381 124.451 414.548" stroke="#82A800" stroke-miterlimit="10" stroke-linecap="round" stroke-linejoin="round"/>
<path d="M178.904 487.781C178.904 487.781 240.678 458.481 265.811 441.748" stroke="#82A800" stroke-miterlimit="10" stroke-linecap="round" stroke-linejoin="round"/>
</g>
</svg>
