<svg width="413" height="317" viewBox="0 0 413 317" fill="none" xmlns="http://www.w3.org/2000/svg">
<path opacity="0.12" fill-rule="evenodd" clip-rule="evenodd" d="M108.434 11.0007C109.54 11.6894 111.123 11.5017 112.037 10.5732C112.232 10.3769 112.23 10.0599 112.032 9.86574C111.834 9.6716 111.517 9.67398 111.324 9.87121C110.745 10.4596 109.664 10.5879 108.961 10.1505C107.855 9.46279 106.273 9.65052 105.358 10.578C105.246 10.6909 105.2 10.8425 105.217 10.9885C105.23 11.0968 105.279 11.2018 105.363 11.2855C105.561 11.4796 105.877 11.4774 106.072 11.28C106.651 10.6926 107.732 10.5643 108.434 11.0007ZM112.075 13.4061C111.16 14.3336 109.578 14.5213 108.472 13.8336C107.769 13.3962 106.688 13.5244 106.11 14.1129C105.916 14.3101 105.599 14.3125 105.401 14.1183C105.317 14.0357 105.268 13.9296 105.255 13.8214C105.238 13.6754 105.284 13.5238 105.396 13.4108C106.311 12.4824 107.893 12.2947 108.999 12.9833C109.701 13.4198 110.782 13.2915 111.361 12.7041C111.556 12.5067 111.872 12.5045 112.07 12.6986C112.268 12.8936 112.269 13.2088 112.075 13.4061ZM101.964 2.70817L103.713 17.449C103.816 18.3197 103.231 19.1077 102.409 19.2053L101.793 19.2783C102.076 19.8181 103.004 21.7708 102.389 23.1821C102.063 23.9239 101.398 24.3604 100.407 24.4778C97.2223 24.8557 95.2477 18.3493 95.1648 18.0717L95.052 17.7007C94.5951 17.381 94.1621 17.0188 93.7584 16.6169L94.5698 23.456C94.5946 23.6656 94.4957 23.8688 94.3195 23.9718C94.1432 24.0748 93.9241 24.0556 93.7644 23.9241L92.511 22.8932C91.7723 22.2833 91.3023 21.4141 91.1872 20.4439L89.2773 4.34641C89.1622 3.37623 89.416 2.42231 89.9916 1.65743L90.9689 0.361927C91.0935 0.196665 91.3019 0.126706 91.4974 0.18558C91.6929 0.244465 91.8366 0.418939 91.8615 0.628517L92.4804 5.84522C93.9876 3.39735 96.4552 1.76015 99.2909 1.42373L100.285 1.30575C101.108 1.20819 101.861 1.83738 101.964 2.70817ZM96.3392 18.4586C97.7207 19.1312 99.2503 19.4555 100.812 19.3746C100.802 19.4881 100.825 19.6066 100.885 19.7131C101.162 20.209 101.872 21.8207 101.489 22.6953C101.318 23.0898 100.921 23.32 100.279 23.3962C98.549 23.6014 97.0204 20.3685 96.3392 18.4586ZM91.6657 7.48408C91.6205 7.59986 91.5773 7.71688 91.5359 7.83512C91.4472 8.09065 91.5576 8.37591 91.7859 8.49711L92.4628 14.202C92.3319 14.3186 92.2708 14.4958 92.2913 14.6687C92.301 14.7508 92.3287 14.8308 92.3756 14.9032C92.443 15.0079 92.5121 15.111 92.5826 15.2125L93.4261 22.3217L93.1267 22.0752C92.5994 21.6411 92.2635 21.0191 92.1814 20.3271L90.2714 4.22847C90.1893 3.5364 90.3704 2.85306 90.7814 2.30766L91.0149 1.99799L91.6657 7.48408ZM93.544 14.8102L92.6946 7.65074C93.9059 4.79289 96.4328 2.83052 99.4158 2.47662L100.41 2.35864C100.685 2.32608 100.935 2.53553 100.97 2.82613L102.719 17.5669C102.753 17.8575 102.558 18.1198 102.284 18.1524L101.29 18.2703C98.3061 18.6243 95.3896 17.3072 93.544 14.8102ZM111.301 8.45941C110.386 9.38687 108.803 9.57462 107.697 8.88694C106.994 8.44952 105.914 8.57768 105.334 9.16623C105.141 9.36346 104.824 9.36585 104.626 9.17171C104.543 9.08892 104.494 8.98291 104.481 8.87466C104.464 8.72864 104.51 8.57707 104.622 8.4641C105.536 7.53565 107.119 7.3479 108.225 8.03656C108.928 8.473 110.009 8.34472 110.588 7.75727C110.781 7.56106 111.099 7.55862 111.295 7.75191C111.494 7.94691 111.495 8.26308 111.301 8.45941ZM28.7261 82.7211C29.1468 84.5726 28.105 86.5966 26.3539 87.3302C25.2432 87.7964 24.5314 89.1793 24.7975 90.3509C24.8869 90.7445 24.6346 91.1199 24.2332 91.1917C24.0606 91.222 23.8903 91.1922 23.7449 91.1174C23.5488 91.0165 23.3973 90.8355 23.3464 90.6098C22.927 88.759 23.9687 86.735 25.7186 86.0007C26.8306 85.5351 27.5423 84.1523 27.2749 82.98C27.1849 82.5877 27.4378 82.211 27.8393 82.1392C28.2407 82.0674 28.638 82.3283 28.7261 82.7211ZM29.9163 89.164C31.6661 88.4298 32.7077 86.4059 32.2883 84.5552C32.1989 84.1616 31.8049 83.9009 31.4015 83.9733C31.0001 84.0451 30.7478 84.4204 30.8372 84.814C31.1033 85.9856 30.3916 87.3684 29.2809 87.8345C27.5298 88.5681 26.4881 90.592 26.9089 92.4433C26.9598 92.669 27.1113 92.85 27.3074 92.951C27.4528 93.0258 27.6244 93.0562 27.7957 93.0252C28.1971 92.9535 28.4501 92.5768 28.36 92.1846C28.0926 91.0123 28.8043 89.6295 29.9163 89.164ZM31.1042 97.1576L12.7728 87.7228C11.6899 87.1654 10.3601 87.5834 9.80889 88.6544L9.14237 89.9494C7.03946 94.0353 7.12753 98.8236 9.29154 102.825L1.03188 98.5736C0.766039 98.4368 0.451947 98.4583 0.235075 98.6273C0.0182019 98.7964 -0.0565567 99.0807 0.0443212 99.3473L0.834442 101.438C1.30203 102.671 2.23523 103.698 3.46587 104.331L23.8849 114.841C25.1155 115.474 26.4948 115.637 27.7711 115.302L29.9319 114.73C30.2074 114.657 30.3953 114.431 30.4069 114.156C30.4184 113.881 30.2534 113.613 29.9876 113.477L20.8352 108.766C21.9183 108.631 22.9687 108.373 23.9689 108.001L23.9718 108.002C24.3531 108.119 33.3175 110.814 35.4144 106.739C36.0663 105.473 36.0981 104.344 35.5127 103.384C34.6625 101.995 32.746 101.426 31.5098 101.196L32.0685 100.111C32.6197 99.04 32.187 97.7149 31.1042 97.1576ZM30.7602 102.523C29.5453 104.426 27.9029 105.969 25.9907 107.058C28.7705 107.665 33.0295 108.1 34.0826 106.054C34.5051 105.233 34.5581 104.584 34.2459 104.074C33.6454 103.091 31.759 102.656 30.7602 102.523ZM23.8316 106.48C26.4956 105.387 28.7281 103.383 30.0926 100.732L30.7591 99.437C30.9431 99.0796 30.7991 98.6385 30.4377 98.4525L12.1063 89.0177C11.7449 88.8317 11.3022 88.9709 11.1183 89.3283L10.4518 90.6233C8.32353 94.7584 8.70369 99.6963 11.4413 103.51C11.5483 103.659 11.5914 103.833 11.5765 104.001L18.5507 107.59C18.6787 107.48 18.846 107.413 19.0299 107.414C20.4075 107.418 21.7458 107.2 23.0031 106.786C23.1635 106.517 23.5004 106.384 23.8316 106.48ZM24.4971 113.654C25.3749 114.106 26.3616 114.224 27.2711 113.983L27.7875 113.847L2.00782 100.579L2.19684 101.078C2.52976 101.958 3.19883 102.693 4.0767 103.144L24.4971 113.654ZM22.7928 85.4986C24.5428 84.7642 25.5846 82.74 25.1652 80.8891C25.0772 80.4962 24.6819 80.2348 24.2785 80.3072C23.879 80.3784 23.6261 80.7551 23.7147 81.1468C23.9808 82.3185 23.269 83.7015 22.1582 84.1678C20.407 84.9015 19.3652 86.9256 19.7858 88.7772C19.8367 89.0029 19.9882 89.1839 20.1843 89.2849C20.3297 89.3597 20.5014 89.3901 20.6719 89.3604C21.0734 89.2886 21.3264 88.9119 21.2363 88.5196C20.9697 87.3459 21.6808 85.9642 22.7928 85.4986ZM98.5834 101.199C98.1327 99.3545 96.2966 98.009 94.4022 98.1349C94.0004 98.1604 93.6806 98.512 93.6887 98.9198C93.6968 99.3275 94.0293 99.6363 94.4308 99.6087C95.6305 99.5279 96.885 100.447 97.1709 101.618C97.6224 103.462 99.4585 104.807 101.352 104.682C101.583 104.667 101.785 104.546 101.916 104.368C102.012 104.236 102.069 104.073 102.066 103.898C102.057 103.49 101.726 103.182 101.323 103.209C100.125 103.288 98.8701 102.369 98.5834 101.199ZM96.7709 94.9034C98.6644 94.7787 100.5 96.1241 100.952 97.9673C101.238 99.1384 102.492 100.058 103.692 99.9769C104.093 99.9493 104.426 100.258 104.434 100.666C104.438 100.84 104.381 101.005 104.284 101.136C104.154 101.314 103.951 101.436 103.72 101.451C101.826 101.577 99.99 100.231 99.5394 98.3868C99.2527 97.2168 97.9983 96.2976 96.7995 96.3772C96.3968 96.4039 96.0655 96.096 96.0574 95.6883C96.0491 95.2785 96.3682 94.9302 96.7709 94.9034ZM96.8466 114.674L109.033 98.0444C109.753 97.0621 111.129 96.8421 112.101 97.554L113.086 98.2757C113.505 97.0905 114.368 95.2867 115.872 94.6642C116.912 94.2363 118.022 94.4443 119.171 95.2863C122.867 97.9946 118.803 106.427 118.628 106.785L118.627 106.788C118.837 107.834 118.928 108.912 118.892 110.003L124.976 101.7C125.153 101.459 125.444 101.338 125.713 101.392C125.983 101.447 126.177 101.668 126.205 101.951L126.433 104.175C126.564 105.488 126.187 106.825 125.369 107.941L111.795 126.465C110.977 127.581 109.816 128.342 108.526 128.611L106.337 129.064C106.058 129.122 105.789 129.004 105.656 128.763C105.522 128.523 105.55 128.209 105.727 127.968L111.218 120.475C106.928 121.987 102.185 121.324 98.4779 118.608L97.3031 117.747C96.3315 117.035 96.1267 115.657 96.8466 114.674ZM118.011 104.644C117.235 102.585 115.968 100.721 114.278 99.2235C114.566 98.2578 115.291 96.4628 116.356 96.0234C116.908 95.7947 117.541 95.9487 118.286 96.4944C120.142 97.8546 119.046 101.993 118.011 104.644ZM112.405 99.6027C114.81 101.365 116.44 103.884 117.103 106.686C116.956 106.998 117.035 107.352 117.276 107.552C117.488 108.859 117.494 110.215 117.274 111.574C117.245 111.756 117.284 111.932 117.373 112.075L112.737 118.402C112.574 118.361 112.395 118.377 112.231 118.459C108.036 120.566 103.1 120.169 99.3483 117.42L98.1735 116.559C97.8492 116.322 97.7811 115.863 98.0213 115.535L110.208 98.9053C110.448 98.5774 110.906 98.5042 111.23 98.7418L112.405 99.6027ZM125.052 104.462C125.147 105.398 124.877 106.355 124.293 107.151L110.718 125.676C110.134 126.472 109.304 127.018 108.383 127.209L107.86 127.318L124.998 103.931L125.052 104.462ZM92.0357 101.365C93.9294 101.241 95.7656 102.586 96.2173 104.43C96.5032 105.601 97.7566 106.519 98.9576 106.44C99.3592 106.412 99.6917 106.721 99.6998 107.129C99.7024 107.302 99.6455 107.466 99.5489 107.598C99.4185 107.776 99.216 107.897 98.9851 107.912C97.0905 108.038 95.2543 106.693 94.8035 104.848C94.5167 103.678 93.2621 102.759 92.0633 102.838C91.6626 102.865 91.33 102.556 91.3222 102.15C91.3138 101.74 91.6339 101.391 92.0357 101.365ZM255.883 6.52211C256.254 4.66008 255.158 2.66467 253.388 1.97812C253.013 1.83139 252.575 2.01492 252.41 2.38789C252.245 2.76085 252.416 3.18121 252.791 3.32589C253.913 3.75974 254.661 5.12311 254.425 6.30534C254.056 8.16667 255.151 10.1621 256.92 10.8493C257.135 10.9334 257.37 10.909 257.564 10.8028C257.707 10.7241 257.827 10.5996 257.898 10.4396C258.063 10.0666 257.893 9.64754 257.517 9.50156C256.397 9.06694 255.648 7.70364 255.883 6.52211ZM256.901 0.0504791C258.67 0.737647 259.765 2.73295 259.395 4.59419C259.159 5.7764 259.908 7.13961 261.029 7.57347C261.405 7.71814 261.575 8.13849 261.41 8.51144C261.34 8.67069 261.219 8.796 261.076 8.87469C260.882 8.98083 260.648 9.00522 260.432 8.92121C258.662 8.23474 257.567 6.23944 257.938 4.37749C258.172 3.19599 257.424 1.83271 256.304 1.39821C255.928 1.25225 255.757 0.833199 255.922 0.460249C256.088 0.0853664 256.524 -0.0954871 256.901 0.0504791ZM248.614 18.0009L266.686 8.07934C267.754 7.49327 269.094 7.87552 269.674 8.9313L270.262 10.0016C271.143 9.10478 272.687 7.83443 274.313 7.90617C275.437 7.95799 276.355 8.61548 277.04 9.86415C279.245 13.8807 271.998 19.8056 271.689 20.0565L271.686 20.0584C271.435 21.0953 271.062 22.1107 270.568 23.084L279.591 18.1305C279.853 17.9866 280.168 17.9997 280.389 18.1629C280.61 18.3261 280.693 18.6083 280.599 18.8775L279.865 20.9888C279.429 22.2345 278.523 23.2865 277.309 23.9526L257.179 35.004C255.965 35.6701 254.592 35.8696 253.309 35.5678L251.133 35.0536C250.856 34.9881 250.662 34.7672 250.643 34.4929C250.624 34.2185 250.782 33.9461 251.044 33.8022L259.187 29.3318C254.66 28.8885 250.641 26.2839 248.43 22.2557L247.729 20.979C247.149 19.9231 247.546 18.587 248.614 18.0009ZM272.035 17.8548C272.201 15.6607 271.84 13.436 270.942 11.3646C271.611 10.6111 273.027 9.29074 274.177 9.34246C274.774 9.3685 275.283 9.77569 275.727 10.5849C276.835 12.6022 274.093 15.8898 272.035 17.8548ZM269.084 10.9168C270.519 13.5306 270.932 16.502 270.349 19.3219C270.083 19.5423 270.006 19.8963 270.139 20.1798C269.779 21.4536 269.211 22.6848 268.438 23.8246C268.334 23.9768 268.296 24.1527 268.316 24.3205L261.44 28.0951C261.309 27.9889 261.141 27.9273 260.957 27.9328C256.265 28.0698 251.959 25.6237 249.721 21.547L249.02 20.2703C248.826 19.9179 248.958 19.4731 249.315 19.2775L267.387 9.35599C267.744 9.16039 268.19 9.28766 268.383 9.64002L269.084 10.9168ZM278.492 20.6659C278.183 21.5544 277.534 22.3067 276.668 22.7818L256.536 33.834C255.671 34.3091 254.688 34.4529 253.772 34.2369L253.252 34.1143L278.668 20.1615L278.492 20.6659ZM249.878 3.90574C251.647 4.59309 252.743 6.58868 252.373 8.4501C252.137 9.63241 252.885 10.9946 254.007 11.4299C254.383 11.5746 254.554 11.995 254.389 12.3679C254.318 12.5259 254.197 12.6512 254.053 12.7299C253.86 12.8361 253.625 12.8604 253.41 12.7764C251.639 12.0898 250.544 10.0942 250.915 8.23204C251.149 7.05044 250.401 5.68696 249.281 5.25234C248.906 5.10683 248.736 4.68648 248.9 4.3155C249.066 3.94057 249.503 3.75899 249.878 3.90574ZM287.289 118.217C289.183 118.091 291.019 119.437 291.47 121.281C291.757 122.451 293.011 123.37 294.21 123.291C294.613 123.264 294.944 123.572 294.952 123.98C294.955 124.155 294.899 124.318 294.802 124.45C294.672 124.628 294.47 124.749 294.239 124.764C292.345 124.889 290.509 123.544 290.057 121.7C289.772 120.529 288.517 119.61 287.317 119.691C286.916 119.718 286.583 119.409 286.575 119.002C286.567 118.594 286.887 118.242 287.289 118.217ZM293.838 118.049C293.387 116.206 291.551 114.861 289.657 114.985C289.255 115.012 288.936 115.361 288.944 115.77C288.952 116.178 289.283 116.486 289.686 116.459C290.885 116.38 292.139 117.299 292.426 118.469C292.877 120.313 294.713 121.659 296.607 121.533C296.838 121.518 297.04 121.396 297.171 121.218C297.267 121.087 297.324 120.922 297.32 120.748C297.312 120.34 296.98 120.031 296.578 120.059C295.379 120.14 294.124 119.22 293.838 118.049ZM301.919 118.126L289.733 134.756C289.013 135.739 289.218 137.117 290.19 137.829L291.364 138.69C295.071 141.406 299.814 142.069 304.104 140.557L298.614 148.05C298.437 148.291 298.409 148.605 298.542 148.845C298.675 149.086 298.944 149.204 299.223 149.146L301.412 148.693C302.703 148.424 303.863 147.663 304.681 146.547L318.255 128.023C319.073 126.907 319.451 125.57 319.319 124.257L319.092 122.033C319.063 121.75 318.869 121.529 318.6 121.474C318.33 121.42 318.039 121.541 317.863 121.782L311.778 130.085C311.815 128.994 311.724 127.916 311.513 126.87L311.515 126.867C311.689 126.509 315.754 118.077 312.058 115.368C310.909 114.526 309.799 114.318 308.759 114.746C307.254 115.369 306.392 117.172 305.972 118.358L304.987 117.636C304.016 116.924 302.639 117.144 301.919 118.126ZM307.165 119.305C308.854 120.803 310.122 122.667 310.898 124.726C311.933 122.075 313.029 117.937 311.172 116.576C310.428 116.031 309.794 115.877 309.242 116.105C308.178 116.545 307.452 118.34 307.165 119.305ZM309.99 126.768C309.327 123.966 307.697 121.447 305.292 119.685L304.117 118.824C303.793 118.586 303.334 118.659 303.094 118.987L290.908 135.617C290.668 135.945 290.736 136.404 291.06 136.641L292.235 137.502C295.986 140.251 300.923 140.648 305.118 138.541C305.281 138.459 305.46 138.443 305.624 138.484L310.26 132.157C310.171 132.014 310.131 131.838 310.161 131.656C310.38 130.297 310.375 128.941 310.162 127.634C309.922 127.433 309.842 127.08 309.99 126.768ZM317.18 127.233C317.763 126.436 318.034 125.48 317.938 124.544L317.884 124.013L300.747 147.4L301.27 147.291C302.191 147.1 303.021 146.554 303.605 145.758L317.18 127.233ZM289.104 124.512C288.652 122.668 286.816 121.323 284.922 121.447C284.52 121.473 284.2 121.822 284.209 122.232C284.217 122.638 284.549 122.947 284.95 122.92C286.149 122.841 287.403 123.76 287.69 124.93C288.141 126.775 289.977 128.12 291.872 127.994C292.103 127.979 292.305 127.858 292.435 127.68C292.532 127.548 292.589 127.384 292.586 127.21C292.578 126.803 292.246 126.494 291.844 126.522C290.643 126.601 289.39 125.683 289.104 124.512ZM118.696 254.154C116.992 253.315 116.075 251.232 116.607 249.41C116.943 248.253 116.316 246.83 115.238 246.299C114.876 246.121 114.743 245.689 114.94 245.331C115.025 245.178 115.156 245.065 115.305 244.999C115.507 244.91 115.743 244.906 115.951 245.008C117.653 245.847 118.57 247.931 118.04 249.753C117.702 250.91 118.328 252.333 119.408 252.863C119.769 253.04 119.903 253.474 119.706 253.831C119.509 254.188 119.056 254.333 118.696 254.154ZM112.94 251.024C112.409 252.846 113.326 254.929 115.028 255.768C115.391 255.946 115.841 255.804 116.039 255.445C116.236 255.088 116.103 254.655 115.741 254.477C114.663 253.947 114.036 252.523 114.373 251.367C114.905 249.544 113.987 247.461 112.284 246.623C112.076 246.521 111.84 246.524 111.638 246.613C111.489 246.679 111.357 246.793 111.273 246.946C111.076 247.303 111.21 247.737 111.572 247.914C112.651 248.444 113.278 249.867 112.94 251.024ZM105.98 246.917L124.848 238.608C125.963 238.117 126.475 236.821 125.99 235.718L125.403 234.385C123.551 230.18 119.774 227.235 115.303 226.399L123.804 222.655C124.078 222.534 124.259 222.277 124.264 222.002C124.269 221.727 124.095 221.49 123.825 221.401L121.702 220.699C120.45 220.286 119.065 220.365 117.798 220.923L96.7808 230.178C95.5141 230.736 94.5191 231.705 93.9765 232.908L93.0613 234.947C92.9445 235.207 93.002 235.495 93.2082 235.677C93.4145 235.859 93.7267 235.9 94.0003 235.779L103.421 231.631C102.844 232.557 102.384 233.536 102.043 234.547L102.041 234.549C101.71 234.772 93.9742 240.043 95.8208 244.236C96.3947 245.54 97.2519 246.275 98.3668 246.424C99.9809 246.638 101.63 245.507 102.586 244.69L103.078 245.808C103.563 246.91 104.865 247.407 105.98 246.917ZM102.027 243.273C101.312 241.131 101.147 238.883 101.504 236.712C99.2825 238.49 96.2641 241.527 97.1915 243.633C97.5635 244.478 98.0349 244.927 98.6274 245.005C99.769 245.157 101.295 243.965 102.027 243.273ZM103.311 235.398C102.484 238.156 102.637 241.152 103.839 243.881L104.425 245.214C104.587 245.582 105.021 245.748 105.393 245.584L124.261 237.275C124.633 237.111 124.804 236.68 124.642 236.312L124.055 234.979C122.181 230.723 118.104 227.911 113.417 227.638C113.234 227.628 113.072 227.551 112.951 227.434L105.772 230.595C105.777 230.764 105.724 230.936 105.608 231.079C104.738 232.147 104.065 233.324 103.595 234.561C103.703 234.855 103.595 235.201 103.311 235.398ZM97.3173 231.4C96.4137 231.798 95.7014 232.491 95.3159 233.349L95.097 233.836L121.632 222.152L121.125 221.984C120.232 221.689 119.24 221.747 118.336 222.145L97.3173 231.4ZM120.271 247.795C119.74 249.617 120.658 251.7 122.36 252.539C122.721 252.718 123.173 252.575 123.371 252.216C123.567 251.861 123.433 251.427 123.073 251.25C121.995 250.719 121.368 249.296 121.705 248.139C122.237 246.316 121.319 244.233 119.615 243.395C119.408 243.292 119.172 243.296 118.97 243.385C118.82 243.451 118.689 243.565 118.605 243.716C118.408 244.073 118.541 244.507 118.903 244.684C119.983 245.215 120.609 246.638 120.271 247.795ZM384.796 289.887C384.186 288.089 382.24 286.909 380.363 287.199C379.965 287.26 379.677 287.638 379.721 288.043C379.764 288.449 380.123 288.727 380.52 288.665C381.708 288.48 383.038 289.286 383.425 290.428C384.035 292.225 385.982 293.405 387.857 293.116C388.086 293.081 388.277 292.943 388.392 292.754C388.476 292.614 388.518 292.446 388.5 292.272C388.456 291.867 388.099 291.589 387.7 291.65C386.513 291.834 385.183 291.028 384.796 289.887ZM382.441 283.774C384.317 283.484 386.263 284.665 386.873 286.461C387.26 287.603 388.59 288.409 389.778 288.225C390.176 288.162 390.534 288.441 390.577 288.846C390.596 289.019 390.554 289.188 390.469 289.328C390.355 289.517 390.164 289.655 389.935 289.69C388.059 289.981 386.112 288.8 385.503 287.002C385.115 285.862 383.785 285.055 382.598 285.239C382.199 285.301 381.843 285.023 381.799 284.618C381.755 284.21 382.042 283.835 382.441 283.774ZM384.24 303.463L394.93 285.834C395.562 284.793 396.914 284.453 397.944 285.078L398.988 285.711C399.302 284.494 400.004 282.622 401.449 281.87C402.448 281.353 403.572 281.464 404.79 282.203C408.707 284.579 405.394 293.333 405.251 293.705L405.25 293.708C405.551 294.732 405.735 295.798 405.794 296.888L411.132 288.086C411.287 287.83 411.566 287.685 411.839 287.715C412.112 287.746 412.325 287.949 412.378 288.229L412.798 290.425C413.044 291.721 412.784 293.086 412.067 294.269L400.159 313.905C399.441 315.089 398.352 315.948 397.089 316.329L394.948 316.971C394.675 317.053 394.397 316.958 394.243 316.73C394.09 316.502 394.09 316.187 394.245 315.932L399.062 307.989C394.92 309.868 390.137 309.622 386.208 307.239L384.962 306.484C383.932 305.86 383.608 304.504 384.24 303.463ZM404.45 291.626C403.497 289.642 402.072 287.896 400.258 286.551C400.461 285.564 401.027 283.713 402.049 283.182C402.579 282.906 403.224 283.005 404.013 283.483C405.981 284.677 405.25 288.895 404.45 291.626ZM398.426 287.092C400.975 288.639 402.818 291.005 403.723 293.739C403.603 294.063 403.713 294.408 403.971 294.587C404.296 295.87 404.42 297.22 404.32 298.594C404.306 298.778 404.361 298.949 404.462 299.085L400.395 305.791C400.228 305.765 400.052 305.796 399.896 305.892C395.9 308.357 390.948 308.392 386.971 305.98L385.726 305.225C385.382 305.017 385.274 304.565 385.485 304.218L396.176 286.589C396.386 286.242 396.836 286.129 397.18 286.337L398.426 287.092ZM411.448 290.831C411.624 291.755 411.438 292.731 410.926 293.576L399.017 313.213C398.505 314.057 397.726 314.674 396.825 314.944L396.313 315.098L411.348 290.307L411.448 290.831ZM378.287 290.624C380.163 290.334 382.109 291.515 382.72 293.312C383.107 294.454 384.436 295.259 385.625 295.075C386.023 295.013 386.381 295.291 386.425 295.697C386.442 295.869 386.4 296.038 386.315 296.178C386.201 296.367 386.01 296.505 385.781 296.54C383.904 296.831 381.958 295.65 381.348 293.852C380.96 292.711 379.63 291.905 378.443 292.088C378.046 292.15 377.688 291.871 377.645 291.468C377.601 291.06 377.889 290.684 378.287 290.624ZM256.671 198.969C257.912 200.406 257.942 202.682 256.74 204.152C255.979 205.085 255.999 206.64 256.784 207.55C257.048 207.855 257.001 208.305 256.681 208.557C256.543 208.665 256.378 208.719 256.215 208.721C255.994 208.724 255.775 208.635 255.625 208.46C254.385 207.022 254.355 204.746 255.555 203.276C256.319 202.343 256.298 200.788 255.511 199.879C255.248 199.575 255.294 199.123 255.615 198.871C255.936 198.619 256.409 198.663 256.671 198.969ZM260.747 204.099C261.947 202.629 261.917 200.353 260.677 198.916C260.414 198.61 259.943 198.565 259.621 198.818C259.3 199.07 259.254 199.52 259.518 199.826C260.303 200.735 260.323 202.29 259.562 203.223C258.36 204.693 258.39 206.969 259.631 208.406C259.782 208.582 260.001 208.67 260.221 208.667C260.385 208.665 260.55 208.611 260.687 208.504C261.008 208.252 261.054 207.8 260.791 207.496C260.004 206.587 259.983 205.032 260.747 204.099ZM265.548 210.599L244.933 210.875C243.715 210.891 242.738 211.884 242.754 213.089L242.773 214.545C242.835 219.14 245.16 223.326 248.949 225.843L239.661 225.967C239.362 225.971 239.095 226.138 238.982 226.389C238.87 226.64 238.938 226.926 239.152 227.114L240.831 228.589C241.823 229.458 243.129 229.927 244.513 229.908L267.476 229.601C268.86 229.583 270.154 229.08 271.124 228.184L272.763 226.665C272.972 226.471 273.032 226.183 272.913 225.935C272.794 225.687 272.523 225.528 272.224 225.532L261.931 225.67C262.824 225.042 263.63 224.321 264.339 223.523L264.342 223.523C264.733 223.446 273.914 221.617 273.852 217.036C273.833 215.612 273.332 214.6 272.364 214.027C270.961 213.2 269.002 213.597 267.803 213.975L267.786 212.754C267.77 211.55 266.766 210.583 265.548 210.599ZM267.763 215.498C267.584 217.748 266.859 219.882 265.681 221.741C268.421 220.972 272.386 219.357 272.355 217.056C272.342 216.133 272.084 215.534 271.569 215.231C270.578 214.645 268.708 215.146 267.763 215.498ZM263.504 222.245C265.343 220.029 266.373 217.212 266.333 214.23L266.314 212.774C266.308 212.372 265.974 212.05 265.568 212.055L244.953 212.331C244.546 212.336 244.221 212.667 244.226 213.069L244.246 214.525C244.308 219.176 246.962 223.357 251.169 225.439C251.334 225.52 251.453 225.654 251.519 225.809L259.362 225.704C259.423 225.546 259.54 225.409 259.702 225.323C260.921 224.68 262 223.86 262.916 222.904C262.931 222.591 263.166 222.315 263.504 222.245ZM267.459 228.267C268.447 228.254 269.373 227.894 270.063 227.255L270.455 226.892L241.464 227.279L241.865 227.632C242.572 228.252 243.508 228.587 244.495 228.574L267.459 228.267ZM252.736 204.207C253.937 202.737 253.906 200.46 252.667 199.023C252.405 198.717 251.933 198.672 251.611 198.926C251.291 199.176 251.245 199.627 251.507 199.931C252.292 200.841 252.313 202.396 251.551 203.33C250.349 204.8 250.38 207.076 251.62 208.513C251.771 208.689 251.99 208.777 252.211 208.774C252.374 208.772 252.54 208.718 252.677 208.612C252.997 208.36 253.044 207.909 252.78 207.605C251.994 206.694 251.973 205.14 252.736 204.207Z" fill="white"/>
</svg>
