<svg xmlns="http://www.w3.org/2000/svg" width="128" height="40" fill="none" viewBox="0 0 128 40">
    <path fill="#000" d="M123.259 40H4.741C2.086 40 0 37.8 0 35V5c0-2.8 2.086-5 4.74-5H123.26C125.914 0 128 2.2 128 5v30c0 2.8-2.086 5-4.741 5z"/>
    <path fill="#fff" d="M45.045 11.544c-.076.649-.32 1.15-.729 1.504-.406.351-.948.527-1.624.527-.734 0-1.322-.26-1.766-.78-.44-.52-.66-1.214-.66-2.085v-.59c0-.57.102-1.071.307-1.504.207-.432.5-.764.878-.994.378-.233.816-.35 1.313-.35.66 0 1.188.183 1.586.548.398.362.63.865.695 1.508h-.823c-.07-.488-.226-.842-.464-1.061-.236-.22-.568-.329-.994-.329-.523 0-.934.191-1.232.573-.296.382-.443.925-.443 1.63v.594c0 .666.14 1.195.422 1.588.281.394.675.59 1.18.59.456 0 .804-.1 1.045-.303.245-.205.407-.56.486-1.066h.823zm2.435.004h-.576v1.942h-.793V8.932h.793v1.93h.516l1.552-1.93h.955l-1.825 2.19 1.979 2.368h-1.002l-1.599-1.942zm6.127 1.942c-.045-.09-.082-.25-.11-.48-.367.376-.805.565-1.314.565-.455 0-.829-.127-1.121-.38-.29-.255-.435-.578-.435-.969 0-.474.182-.842.545-1.103.367-.264.882-.396 1.544-.396h.767v-.358c0-.273-.082-.489-.247-.649-.165-.163-.408-.244-.729-.244-.281 0-.517.07-.708.21-.19.14-.285.31-.285.51h-.794c0-.227.081-.447.244-.657.164-.214.386-.382.665-.506.281-.123.59-.185.925-.185.531 0 .948.132 1.25.396.3.261.457.622.468 1.083v2.098c0 .418.054.75.162.998v.067h-.827zm-1.309-.594c.247 0 .482-.063.704-.19.221-.126.382-.29.481-.492v-.935h-.618c-.966 0-1.45.28-1.45.838 0 .244.083.435.248.573.165.138.376.206.635.206zm6.694.594H58.2V11.84c-.347.09-.702.135-1.066.135-.577 0-1.017-.146-1.322-.438-.3-.293-.454-.708-.46-1.247V8.928h.789v1.386c.014.68.345 1.02.993 1.02.364 0 .72-.045 1.066-.135V8.932h.793v4.558zm4.115 0c-.046-.09-.083-.25-.111-.48-.367.376-.805.565-1.313.565-.455 0-.829-.127-1.122-.38-.29-.255-.435-.578-.435-.969 0-.474.182-.842.546-1.103.367-.264.881-.396 1.544-.396h.767v-.358c0-.273-.082-.489-.247-.649-.165-.163-.408-.244-.73-.244-.28 0-.517.07-.707.21-.19.14-.286.31-.286.51h-.793c0-.227.081-.447.243-.657.165-.214.387-.382.665-.506.282-.123.59-.185.926-.185.531 0 .948.132 1.249.396.301.261.458.622.469 1.083v2.098c0 .418.054.75.162.998v.067h-.827zm-1.31-.594c.248 0 .483-.063.704-.19.222-.126.383-.29.482-.492v-.935h-.618c-.967 0-1.45.28-1.45.838 0 .244.083.435.248.573.164.138.376.206.635.206zm6.571-3.332h-1.547v3.926h-.79V9.564h-1.517v-.632h3.854v.632zm1.63.94h1.197c.523.005.937.14 1.241.404.304.264.456.622.456 1.074 0 .455-.156.82-.469 1.095-.312.276-.733.413-1.262.413h-1.953V8.932h.79v1.572zm0 .636v1.714h1.172c.295 0 .524-.074.686-.223.162-.152.243-.358.243-.62 0-.252-.08-.458-.239-.619-.156-.162-.376-.247-.66-.252h-1.203zm6.118 2.35V8.932h1.799c.614 0 1.084.107 1.411.32.33.211.495.521.495.931 0 .211-.064.402-.192.573-.128.169-.317.298-.567.388.279.065.502.19.67.379.17.188.255.413.255.674 0 .419-.156.739-.469.96-.31.222-.749.333-1.317.333h-2.085zm.788-2v1.373h1.305c.33 0 .576-.06.738-.181.165-.121.247-.291.247-.51 0-.455-.338-.683-1.015-.683h-1.275zm0-.624h1.02c.738 0 1.108-.214 1.108-.64 0-.427-.35-.648-1.049-.662h-1.079v1.302zM65.044 22.227c-2.179 0-3.903 1.674-3.903 3.998 0 2.232 1.724 3.999 3.903 3.999 2.179 0 3.904-1.674 3.904-3.998 0-2.418-1.725-3.999-3.904-3.999zm0 6.323c-1.18 0-2.179-1.023-2.179-2.418 0-1.394.999-2.417 2.18-2.417 1.18 0 2.178.93 2.178 2.418 0 1.394-.999 2.417-2.179 2.417zm-8.442-6.323c-2.18 0-3.904 1.674-3.904 3.998 0 2.232 1.725 3.999 3.904 3.999 2.178 0 3.903-1.674 3.903-3.998 0-2.418-1.725-3.999-3.904-3.999zm0 6.323c-1.18 0-2.18-1.023-2.18-2.418 0-1.394 1-2.417 2.18-2.417 1.18 0 2.178.93 2.178 2.418 0 1.394-.998 2.417-2.178 2.417zm-10.077-5.114v1.674h3.904c-.091.93-.454 1.673-.908 2.138-.545.558-1.453 1.21-2.996 1.21-2.451 0-4.267-1.954-4.267-4.464 0-2.51 1.907-4.463 4.267-4.463 1.27 0 2.27.558 2.996 1.208l1.18-1.208c-.999-.93-2.27-1.674-4.085-1.674-3.268 0-6.083 2.79-6.083 6.137 0 3.347 2.815 6.137 6.083 6.137 1.815 0 3.086-.558 4.176-1.767 1.089-1.116 1.452-2.696 1.452-3.905 0-.372 0-.744-.09-1.023h-5.63zm41.214 1.302c-.363-.93-1.27-2.51-3.268-2.51-1.997 0-3.631 1.58-3.631 3.997 0 2.232 1.634 3.999 3.813 3.999 1.724 0 2.814-1.116 3.177-1.767l-1.271-.93c-.454.651-.999 1.116-1.906 1.116-.908 0-1.453-.372-1.907-1.209l5.175-2.231-.182-.465zm-5.265 1.302c0-1.488 1.18-2.325 1.997-2.325.635 0 1.271.372 1.453.837l-3.45 1.488zm-4.267 3.812h1.725V18.229h-1.725v11.623zm-2.723-6.788c-.454-.465-1.18-.93-2.088-.93-1.906 0-3.722 1.767-3.722 3.998 0 2.232 1.725 3.906 3.722 3.906.908 0 1.634-.465 1.997-.93h.09v.558c0 1.488-.816 2.325-2.087 2.325-.999 0-1.725-.744-1.906-1.395l-1.453.65c.454 1.023 1.543 2.325 3.45 2.325 1.997 0 3.63-1.209 3.63-4.091v-7.067h-1.633v.651zm-1.997 5.486c-1.18 0-2.18-1.023-2.18-2.418 0-1.394 1-2.417 2.18-2.417 1.18 0 2.088 1.023 2.088 2.418 0 1.394-.908 2.417-2.088 2.417zm22.15-10.321h-4.085v11.623h1.725v-4.37h2.36c1.906 0 3.722-1.395 3.722-3.627 0-2.231-1.816-3.626-3.722-3.626zm.09 5.579h-2.45V19.81h2.45c1.272 0 1.998 1.115 1.998 1.952-.09 1.023-.817 2.046-1.997 2.046zm10.44-1.674c-1.27 0-2.541.558-2.995 1.767l1.543.65c.363-.65.908-.836 1.543-.836.908 0 1.725.558 1.816 1.488v.093c-.272-.186-.999-.465-1.725-.465-1.634 0-3.268.93-3.268 2.603 0 1.581 1.362 2.604 2.814 2.604 1.18 0 1.725-.558 2.179-1.116h.091v.93h1.634v-4.463c-.182-2.046-1.725-3.255-3.632-3.255zm-.181 6.416c-.545 0-1.362-.279-1.362-1.023 0-.93.999-1.209 1.816-1.209.726 0 1.089.186 1.543.372-.181 1.116-1.089 1.86-1.997 1.86zm9.532-6.137l-1.907 5.021h-.09l-1.997-5.02h-1.816l2.996 7.066-1.725 3.905h1.725l4.629-10.972h-1.815zm-15.251 7.439h1.725V18.229h-1.725v11.623z"/>
    <path fill="url(#prefix__paint0_linear)" d="M10.354 7.505c-.299.3-.398.8-.398 1.399v22.092c0 .6.199 1.1.497 1.4l.1.1L22.898 20.1v-.2L10.354 7.505z"/>
    <path fill="url(#prefix__paint1_linear)" d="M26.88 24.299L22.798 20.2v-.3l4.082-4.098.1.1 4.878 2.799c1.394.8 1.394 2.099 0 2.899l-4.978 2.699z"/>
    <path fill="url(#prefix__paint2_linear)" d="M26.98 24.199L22.797 20 10.354 32.496c.498.5 1.194.5 2.09.1l14.536-8.397z"/>
    <path fill="url(#prefix__paint3_linear)" d="M26.98 15.802L12.444 7.504c-.896-.5-1.593-.4-2.09.1L22.798 20l4.182-4.198z"/>
    <path fill="#000" d="M26.88 24.099l-14.436 8.197c-.796.5-1.493.4-1.99 0l-.1.1.1.1c.497.4 1.194.5 1.99 0l14.436-8.397z" opacity=".2"/>
    <path fill="#000" d="M10.354 32.296c-.299-.3-.398-.8-.398-1.4v.1c0 .6.199 1.1.497 1.4v-.1h-.1zM31.858 21.3l-4.978 2.799.1.1 4.878-2.8c.697-.4.995-.9.995-1.399 0 .5-.398.9-.995 1.3z" opacity=".2"/>
    <path fill="#fff" d="M12.444 7.605L31.858 18.7c.597.4.995.8.995 1.3 0-.5-.298-1-.995-1.4L12.445 7.505c-1.394-.8-2.49-.2-2.49 1.399v.1c0-1.5 1.096-2.2 2.49-1.4z" opacity=".2"/>
    <defs>
        <linearGradient id="prefix__paint0_linear" x1="21.703" x2="4.926" y1="8.714" y2="25.421" gradientUnits="userSpaceOnUse">
            <stop stop-color="#00A0FF"/>
            <stop offset=".007" stop-color="#00A1FF"/>
            <stop offset=".26" stop-color="#00BEFF"/>
            <stop offset=".512" stop-color="#00D2FF"/>
            <stop offset=".76" stop-color="#00DFFF"/>
            <stop offset="1" stop-color="#00E3FF"/>
        </linearGradient>
        <linearGradient id="prefix__paint1_linear" x1="33.684" x2="9.594" y1="20.001" y2="20.001" gradientUnits="userSpaceOnUse">
            <stop stop-color="#FFE000"/>
            <stop offset=".409" stop-color="#FFBD00"/>
            <stop offset=".775" stop-color="orange"/>
            <stop offset="1" stop-color="#FF9C00"/>
        </linearGradient>
        <linearGradient id="prefix__paint2_linear" x1="24.717" x2="1.967" y1="22.295" y2="44.952" gradientUnits="userSpaceOnUse">
            <stop stop-color="#FF3A44"/>
            <stop offset="1" stop-color="#C31162"/>
        </linearGradient>
        <linearGradient id="prefix__paint3_linear" x1="7.265" x2="17.424" y1=".183" y2="10.301" gradientUnits="userSpaceOnUse">
            <stop stop-color="#32A071"/>
            <stop offset=".069" stop-color="#2DA771"/>
            <stop offset=".476" stop-color="#15CF74"/>
            <stop offset=".801" stop-color="#06E775"/>
            <stop offset="1" stop-color="#00F076"/>
        </linearGradient>
    </defs>
</svg>
