<svg xmlns="http://www.w3.org/2000/svg" width="25" height="25" fill="none" viewBox="0 0 25 25">
    <path fill="#8F489A" fill-rule="evenodd" d="M12.5 25C19.404 25 25 19.404 25 12.5S19.404 0 12.5 0 0 5.596 0 12.5 5.596 25 12.5 25z" clip-rule="evenodd"/>
    <path fill="#fff" fill-rule="evenodd" d="M9.89 14.667h6.352c.157 0 .296-.099.338-.242l1.406-4.667c.03-.1.01-.209-.057-.292-.066-.083-.17-.133-.28-.133h-8.57l-.251-1.072C8.792 8.108 8.649 8 8.484 8H6.352C6.157 8 6 8.15 6 8.333c0 .185.157.334.352.334h1.85l1.27 5.416c-.374.154-.636.507-.636.917 0 .551.473 1 1.055 1h.697c-.579.003-1.049.45-1.049 1 0 .552.473 1 1.055 1 .581 0 1.055-.448 1.055-1 0-.55-.47-.997-1.05-1h4.934c-.579.003-1.049.45-1.049 1 0 .552.474 1 1.055 1 .582 0 1.055-.448 1.055-1 0-.55-.47-.997-1.049-1h.697c.195 0 .352-.149.352-.333 0-.184-.157-.334-.352-.334H9.891c-.194 0-.352-.149-.352-.333 0-.184.158-.333.352-.333z" clip-rule="evenodd"/>
</svg>
